{"glyphs":{"0":{"ha":825,"x_min":65,"x_max":760,"o":"m 760 488 q 746 296 760 376 q 696 151 732 216 q 576 28 650 71 q 414 -16 503 -16 q 229 43 311 -16 q 106 204 147 101 q 75 329 85 260 q 65 476 65 397 q 76 661 65 578 q 110 802 87 743 q 226 950 150 899 q 408 1002 302 1002 q 535 979 478 1002 q 635 912 592 956 q 708 804 678 869 q 760 488 760 692 m 574 501 q 559 704 574 625 q 509 824 544 783 q 411 864 473 864 q 287 774 321 864 q 252 496 252 684 q 267 287 252 368 q 317 164 281 205 q 412 122 352 122 q 510 165 475 122 q 559 290 545 209 q 574 501 574 370 z "},"1":{"ha":825,"x_min":87,"x_max":576,"o":"m 392 93 l 392 710 q 160 578 220 578 q 110 601 132 578 q 87 653 87 623 q 109 704 87 688 q 186 746 131 720 q 317 827 268 785 q 404 923 366 870 q 454 988 442 976 q 497 1000 465 1000 q 555 972 533 1000 q 576 896 576 945 l 576 119 q 484 -17 576 -17 q 417 11 442 -17 q 392 93 392 39 z "},"2":{"ha":825,"x_min":77,"x_max":772,"o":"m 310 160 l 664 160 q 745 138 717 160 q 772 79 772 117 q 750 23 772 46 q 684 0 728 0 l 184 0 q 105 28 134 0 q 77 94 77 56 q 95 159 77 119 q 135 222 113 199 q 298 383 225 316 q 401 471 370 450 q 494 550 457 510 q 550 631 531 589 q 570 713 570 673 q 549 790 570 756 q 493 844 528 825 q 415 863 457 863 q 275 785 326 863 q 253 729 269 774 q 217 659 237 684 q 158 635 197 635 q 102 657 124 635 q 79 718 79 680 q 100 816 79 765 q 163 908 121 867 q 269 975 205 949 q 419 1000 333 1000 q 596 968 523 1000 q 680 908 644 946 q 735 820 715 870 q 755 717 755 770 q 714 564 755 633 q 629 456 672 495 q 483 334 585 417 q 343 204 381 250 q 310 160 327 186 z "},"3":{"ha":825,"x_min":68,"x_max":762,"o":"m 380 600 q 488 637 443 600 q 533 742 533 673 q 497 832 533 794 q 400 869 461 869 q 332 858 359 869 q 290 827 305 846 q 260 779 274 808 q 235 722 246 749 q 210 700 228 708 q 170 692 193 692 q 120 714 142 692 q 97 772 97 736 q 118 847 97 808 q 181 921 140 886 q 283 978 222 956 q 419 999 344 999 q 539 981 485 999 q 633 929 593 963 q 694 850 673 895 q 714 754 714 806 q 685 638 714 686 q 600 543 655 589 q 689 478 653 515 q 744 397 726 441 q 762 301 762 353 q 738 182 762 239 q 665 79 713 124 q 550 8 616 34 q 404 -17 484 -17 q 258 12 323 -17 q 152 85 194 41 q 89 176 111 129 q 68 253 68 222 q 93 316 68 292 q 157 340 119 340 q 193 329 176 340 q 216 302 211 318 q 292 162 252 208 q 406 117 332 117 q 487 137 448 117 q 551 199 526 158 q 576 293 576 239 q 533 417 576 372 q 412 463 490 463 q 370 460 399 463 q 334 457 342 457 q 276 476 296 457 q 256 528 256 494 q 280 580 256 560 q 353 600 304 600 l 380 600 z "},"4":{"ha":825,"x_min":17,"x_max":800,"o":"m 486 86 l 486 212 l 146 212 q 49 241 81 212 q 17 321 17 271 q 22 347 17 334 q 36 375 26 360 q 56 403 45 389 q 81 436 66 416 l 440 917 q 498 986 475 964 q 553 1007 521 1007 q 656 889 656 1007 l 656 364 l 685 364 q 769 350 737 364 q 800 288 800 336 q 774 230 800 248 q 697 212 749 212 l 656 212 l 656 86 q 633 8 656 34 q 571 -17 610 -17 q 510 9 533 -17 q 486 86 486 35 m 195 364 l 486 364 l 486 758 l 195 364 z "},"5":{"ha":825,"x_min":74,"x_max":772,"o":"m 643 827 l 321 827 l 282 607 q 460 659 378 659 q 582 634 525 659 q 681 567 638 610 q 748 465 724 524 q 772 338 772 406 q 728 159 772 239 q 601 31 684 78 q 410 -17 518 -17 q 213 28 288 -17 q 105 131 137 73 q 74 232 74 189 q 96 282 74 258 q 151 306 118 306 q 236 240 208 306 q 309 146 263 180 q 412 113 355 113 q 504 140 465 113 q 565 214 543 167 q 586 322 586 262 q 563 433 586 387 q 501 502 540 479 q 415 525 463 525 q 332 511 357 525 q 259 461 307 496 q 182 425 212 425 q 123 449 149 425 q 97 504 97 473 q 104 550 97 507 l 161 875 q 197 960 171 933 q 281 986 222 986 l 639 986 q 745 905 745 986 q 719 848 745 870 q 643 827 693 827 z "},"6":{"ha":825,"x_min":64,"x_max":774,"o":"m 252 538 q 352 619 298 593 q 473 646 406 646 q 592 622 538 646 q 688 553 647 597 q 751 448 729 509 q 774 322 774 388 q 730 149 774 227 q 608 27 686 71 q 431 -17 530 -17 q 234 39 317 -17 q 107 203 151 94 q 64 469 64 312 q 90 699 64 597 q 166 866 117 800 q 286 966 216 932 q 447 1000 357 1000 q 600 966 534 1000 q 700 882 666 932 q 733 786 733 832 q 712 735 733 758 q 659 713 691 713 q 606 731 630 713 q 570 781 581 749 q 520 846 554 821 q 441 871 486 871 q 370 850 406 871 q 310 794 334 829 q 252 538 260 722 m 435 117 q 548 173 503 117 q 593 319 593 229 q 572 426 593 381 q 514 493 551 470 q 433 517 477 517 q 353 494 391 517 q 291 430 315 472 q 268 330 268 387 q 315 178 268 239 q 435 117 363 117 z "},"7":{"ha":825,"x_min":103,"x_max":791,"o":"m 216 985 l 668 985 q 762 964 733 985 q 791 897 791 944 q 757 822 791 869 q 679 719 723 775 q 589 578 635 662 q 504 372 543 494 q 481 283 488 319 q 466 192 474 248 q 452 106 458 136 q 411 10 437 37 q 342 -17 385 -17 q 275 12 300 -17 q 250 97 250 41 q 269 215 250 140 q 328 394 287 290 q 432 607 370 498 q 579 825 494 717 l 216 825 q 131 846 159 825 q 103 911 103 867 q 133 971 103 958 q 216 985 163 985 z "},"8":{"ha":825,"x_min":60,"x_max":765,"o":"m 93 742 q 130 870 93 810 q 238 966 167 930 q 406 1002 310 1002 q 547 981 486 1002 q 649 923 608 960 q 709 839 690 886 q 729 741 729 793 q 695 622 729 674 q 593 536 661 570 q 688 478 650 514 q 746 394 726 441 q 765 288 765 346 q 724 133 765 202 q 602 24 682 63 q 414 -16 522 -16 q 221 24 301 -16 q 100 132 141 63 q 60 286 60 201 q 232 536 60 469 q 93 742 93 602 m 579 293 q 557 385 579 346 q 496 446 536 425 q 408 467 457 467 q 292 420 339 467 q 245 292 245 374 q 268 198 245 239 q 328 136 290 158 q 412 114 366 114 q 498 136 460 114 q 557 199 536 159 q 579 293 579 240 m 410 872 q 307 832 346 872 q 268 730 268 793 q 308 634 268 673 q 411 596 348 596 q 469 606 443 596 q 514 634 495 616 q 543 677 532 652 q 553 732 553 702 q 535 804 553 772 q 484 854 517 836 q 410 872 452 872 z "},"9":{"ha":825,"x_min":45,"x_max":754,"o":"m 566 446 q 466 366 521 393 q 343 339 410 339 q 224 364 279 339 q 129 433 169 389 q 66 537 88 477 q 45 661 45 596 q 69 794 45 731 q 139 903 94 857 q 247 975 184 949 q 386 1000 310 1000 q 542 968 473 1000 q 657 876 610 937 q 729 723 704 815 q 754 514 754 631 q 728 284 754 384 q 651 118 701 185 q 530 17 600 50 q 370 -16 459 -16 q 216 18 281 -16 q 117 101 151 52 q 83 197 83 151 q 104 248 83 226 q 158 271 125 271 q 212 254 188 271 q 248 204 235 237 q 297 139 262 163 q 375 114 332 114 q 448 134 414 114 q 507 189 483 153 q 566 446 556 262 m 550 653 q 537 738 550 699 q 502 806 525 777 q 448 850 479 834 q 379 867 416 867 q 270 811 315 867 q 225 665 225 756 q 270 522 225 575 q 383 468 315 468 q 464 490 425 468 q 526 554 502 512 q 550 653 550 596 z "}," ":{"ha":347,"x_min":0,"x_max":0,"o":""},"!":{"ha":463,"x_min":129,"x_max":334,"o":"m 157 431 l 135 755 q 129 892 129 850 q 158 980 129 948 q 236 1011 188 1011 q 314 971 294 1011 q 334 854 334 930 q 329 764 334 810 l 300 429 q 279 338 295 370 q 228 306 264 306 q 177 337 191 306 q 157 431 163 368 m 232 -16 q 160 11 191 -16 q 129 86 129 38 q 158 158 129 128 q 231 187 188 187 q 303 158 273 187 q 334 86 334 128 q 303 12 334 39 q 232 -16 273 -16 z "},"\"":{"ha":665,"x_min":77,"x_max":590,"o":"m 253 640 l 113 640 l 77 827 l 77 994 l 285 994 l 285 827 l 253 640 m 558 640 l 418 640 l 382 827 l 382 994 l 590 994 l 590 827 l 558 640 z "},"#":{"ha":766,"x_min":11,"x_max":755,"o":"m 79 121 l 104 248 q 11 322 11 250 q 34 377 11 356 q 103 399 58 399 l 135 399 l 174 596 l 103 596 q 35 618 59 596 q 11 672 11 640 q 34 727 11 706 q 103 747 58 747 l 204 747 l 236 903 q 253 964 243 942 q 278 998 262 987 q 319 1010 294 1010 q 374 991 355 1010 q 393 942 393 972 q 382 873 393 935 l 357 747 l 505 747 l 538 903 q 551 960 545 938 q 573 996 557 981 q 619 1011 589 1011 q 674 993 654 1011 q 693 943 693 975 q 691 916 693 929 q 687 889 690 902 q 684 873 684 877 l 659 746 q 755 671 755 744 q 732 616 755 637 q 664 596 709 596 l 629 596 l 589 399 l 664 399 q 732 377 709 399 q 755 322 755 355 q 733 268 755 289 q 664 248 710 248 l 559 248 l 528 92 q 514 34 520 54 q 492 -2 509 14 q 446 -17 476 -17 q 392 2 412 -17 q 372 52 372 21 q 382 121 372 79 l 407 248 l 257 248 l 225 92 q 200 8 213 34 q 143 -17 186 -17 q 89 2 109 -17 q 69 52 69 21 q 73 86 69 67 q 79 121 77 106 m 476 596 l 326 596 l 286 399 l 437 399 l 476 596 z "},"$":{"ha":825,"x_min":53,"x_max":765,"o":"m 454 1080 l 454 1007 q 579 977 527 1000 q 669 909 631 955 q 716 838 700 875 q 733 771 733 802 q 708 712 733 737 q 648 688 684 688 q 562 760 582 688 q 454 872 540 844 l 454 590 q 588 548 538 567 q 677 493 638 529 q 742 404 720 456 q 765 290 765 352 q 729 145 765 213 q 622 35 692 78 q 454 -16 551 -7 l 454 -184 q 447 -243 454 -224 q 412 -261 439 -261 q 378 -246 388 -261 q 368 -200 368 -231 l 368 -17 q 230 20 289 -8 q 131 91 170 49 q 72 179 91 134 q 53 269 53 225 q 78 328 53 302 q 142 354 104 354 q 193 340 172 354 q 222 300 214 326 q 254 215 241 244 q 295 161 268 185 q 368 123 323 136 l 368 439 q 216 495 277 464 q 117 583 155 526 q 79 729 79 640 q 154 920 79 846 q 368 1007 228 995 l 368 1079 q 411 1136 368 1136 q 454 1080 454 1136 m 368 615 l 368 875 q 279 830 311 858 q 248 746 248 802 q 277 665 248 692 q 368 615 307 637 m 454 414 l 454 117 q 560 172 523 130 q 597 268 597 213 q 561 359 597 327 q 454 414 525 391 z "},"%":{"ha":1186,"x_min":33,"x_max":1153,"o":"m 458 739 q 401 547 458 610 q 245 484 345 484 q 136 510 184 484 q 60 594 87 537 q 33 733 33 651 q 54 880 33 821 q 122 970 75 939 q 243 1000 170 1000 q 336 984 296 1000 q 404 934 376 968 q 445 852 431 901 q 458 739 458 804 m 332 746 q 313 875 332 835 q 245 916 294 916 q 194 896 213 916 q 167 839 174 877 q 160 743 160 802 q 167 645 160 683 q 193 588 174 607 q 245 568 212 568 q 314 611 296 568 q 332 746 332 654 m 1153 249 q 1096 56 1153 119 q 940 -7 1039 -7 q 830 20 878 -7 q 754 104 781 47 q 726 243 726 160 q 777 442 726 375 q 937 509 827 509 q 1030 492 990 509 q 1098 444 1069 476 q 1139 362 1126 411 q 1153 249 1153 314 m 1026 256 q 1007 384 1026 343 q 940 424 988 424 q 887 405 906 424 q 860 349 868 386 q 852 253 852 312 q 872 120 852 162 q 940 78 891 78 q 1008 121 989 78 q 1026 256 1026 164 m 911 911 l 346 0 q 297 -37 324 -37 q 266 -25 281 -37 q 250 5 250 -14 q 264 40 250 20 l 832 958 q 858 996 847 983 q 890 1008 869 1008 q 923 997 911 1008 q 936 965 936 985 q 911 911 936 951 z "},"&":{"ha":1055,"x_min":83,"x_max":1019,"o":"m 215 783 q 248 898 215 846 q 345 981 281 950 q 494 1011 408 1011 q 642 979 580 1011 q 735 896 705 947 q 766 789 766 844 q 716 656 766 713 q 568 542 666 600 q 631 467 602 502 q 688 401 661 431 q 737 349 715 370 q 769 420 747 368 q 809 495 790 472 q 861 518 827 518 q 918 495 893 518 q 942 440 942 473 q 921 356 942 410 q 860 235 900 301 q 940 169 885 213 q 1007 109 994 125 q 1019 66 1019 93 q 994 7 1019 31 q 937 -17 968 -17 q 876 3 905 -17 q 749 103 846 24 q 657 35 705 62 q 556 -4 610 9 q 436 -17 503 -17 q 284 8 351 -17 q 172 75 216 33 q 105 168 127 117 q 83 272 83 219 q 100 365 83 323 q 145 442 116 408 q 218 507 175 476 q 318 567 261 538 q 241 681 267 631 q 215 783 215 730 m 407 458 q 303 378 338 418 q 269 283 269 338 q 282 224 269 252 q 318 171 294 195 q 374 134 342 146 q 441 121 406 121 q 509 132 476 121 q 570 162 541 142 q 631 212 600 182 q 522 322 570 268 q 407 458 474 377 m 476 644 q 576 719 545 688 q 607 791 607 749 q 576 862 607 833 q 498 890 545 890 q 420 861 452 890 q 389 793 389 832 q 400 749 389 772 q 430 703 412 726 q 476 644 448 680 z "},"'":{"ha":334,"x_min":62,"x_max":271,"o":"m 239 640 l 98 640 l 62 827 l 62 994 l 271 994 l 271 827 l 239 640 z "},"(":{"ha":492,"x_min":87,"x_max":425,"o":"m 87 359 q 105 551 87 462 q 159 727 123 640 q 248 900 195 813 q 301 976 279 953 q 342 1005 323 1000 q 392 1011 361 1011 q 425 993 425 1011 q 394 919 425 987 q 335 778 363 852 q 284 593 308 704 q 261 359 261 483 q 284 128 261 237 q 337 -61 307 19 q 396 -204 366 -141 q 425 -273 425 -268 q 392 -292 425 -292 q 341 -285 361 -292 q 301 -255 322 -279 q 248 -179 280 -231 q 159 -6 194 -90 q 106 166 124 77 q 87 359 87 256 z "},")":{"ha":492,"x_min":68,"x_max":406,"o":"m 406 359 q 366 82 406 210 q 245 -179 326 -46 q 174 -273 200 -254 q 102 -292 147 -292 q 68 -273 68 -292 q 96 -208 68 -267 q 156 -66 125 -149 q 209 126 186 16 q 232 359 232 237 q 209 593 232 482 q 155 786 186 705 q 96 927 125 867 q 68 993 68 987 q 102 1011 68 1011 q 175 993 149 1011 q 245 900 201 975 q 315 769 286 833 q 365 640 345 705 q 395 506 385 576 q 406 359 406 436 z "},"*":{"ha":608,"x_min":22,"x_max":586,"o":"m 342 828 q 426 869 386 848 q 490 899 466 889 q 528 908 513 908 q 569 892 551 908 q 586 852 586 876 q 577 824 586 839 q 559 806 569 810 q 367 755 472 771 q 414 709 386 738 q 443 677 441 680 q 471 642 453 663 q 497 609 490 621 q 504 581 504 597 q 488 543 504 559 q 446 526 471 526 q 388 566 420 526 q 304 710 355 606 q 235 587 253 616 q 201 542 218 557 q 164 526 185 526 q 122 544 139 526 q 106 581 106 561 q 113 608 106 599 q 243 755 175 693 q 141 775 186 764 q 46 807 96 786 q 30 826 38 811 q 22 852 22 840 q 40 892 22 876 q 79 908 57 908 q 120 898 96 908 q 182 870 144 888 q 268 828 220 851 q 253 926 259 871 q 248 1002 248 981 q 263 1045 248 1027 q 304 1063 279 1063 q 345 1045 329 1063 q 361 997 361 1027 q 358 965 361 989 q 352 906 356 941 q 342 828 347 872 z "},"+":{"ha":810,"x_min":57,"x_max":753,"o":"m 492 143 l 317 143 l 317 401 l 57 401 l 57 579 l 317 579 l 317 839 l 492 839 l 492 579 l 753 579 l 753 401 l 492 401 l 492 143 z "},",":{"ha":435,"x_min":111,"x_max":334,"o":"m 221 -18 q 144 9 176 -18 q 111 86 111 37 q 143 158 111 129 q 218 187 175 187 q 277 170 251 187 q 319 118 304 152 q 334 33 334 83 q 305 -93 334 -34 q 236 -185 277 -151 q 161 -220 195 -220 q 127 -206 140 -220 q 114 -174 114 -192 q 142 -129 114 -146 q 221 -18 221 -85 z "},"-":{"ha":463,"x_min":25,"x_max":439,"o":"m 339 279 l 125 279 q 51 302 76 279 q 25 361 25 325 q 50 420 25 397 q 125 443 75 443 l 339 443 q 414 420 389 443 q 439 361 439 397 q 414 302 439 325 q 339 279 390 279 z "},".":{"ha":435,"x_min":115,"x_max":319,"o":"m 218 -17 q 146 10 176 -17 q 115 86 115 37 q 144 157 115 127 q 216 187 174 187 q 289 158 259 187 q 319 86 319 128 q 289 11 319 38 q 218 -17 259 -17 z "},"/":{"ha":390,"x_min":18,"x_max":372,"o":"m 358 873 l 168 92 q 152 31 159 53 q 130 -4 144 8 q 87 -17 115 -17 q 18 43 18 -17 q 32 121 18 58 l 221 903 q 250 988 236 965 q 302 1011 263 1011 q 354 995 336 1011 q 372 950 372 979 q 358 873 372 929 z "},":":{"ha":435,"x_min":115,"x_max":319,"o":"m 218 -17 q 146 10 176 -17 q 115 86 115 37 q 144 157 115 127 q 216 187 174 187 q 289 158 259 187 q 319 86 319 128 q 289 11 319 38 q 218 -17 259 -17 m 115 635 q 145 709 115 683 q 218 736 176 736 q 290 709 260 736 q 319 635 319 682 q 287 565 319 597 q 216 533 254 533 q 145 564 175 533 q 115 635 115 594 z "},";":{"ha":435,"x_min":98,"x_max":321,"o":"m 208 -18 q 131 9 163 -18 q 98 86 98 37 q 130 158 98 129 q 205 187 162 187 q 264 170 238 187 q 306 118 291 152 q 321 33 321 83 q 292 -93 321 -34 q 223 -185 264 -151 q 149 -220 182 -220 q 115 -206 127 -220 q 102 -174 102 -192 q 129 -129 102 -146 q 208 -18 208 -85 m 115 635 q 145 709 115 683 q 218 736 176 736 q 290 709 260 736 q 319 635 319 682 q 288 565 319 596 q 218 533 256 533 q 166 547 190 533 q 129 583 143 560 q 115 635 115 606 z "},"<":{"ha":810,"x_min":64,"x_max":746,"o":"m 746 306 l 746 114 l 64 410 l 64 574 l 746 869 l 746 676 l 271 493 l 746 306 z "},"=":{"ha":810,"x_min":57,"x_max":753,"o":"m 753 252 l 57 252 l 57 429 l 753 429 l 753 252 m 753 553 l 57 553 l 57 730 l 753 730 l 753 553 z "},">":{"ha":810,"x_min":64,"x_max":746,"o":"m 746 410 l 64 113 l 64 304 l 541 492 l 64 676 l 64 867 l 746 572 l 746 410 z "},"?":{"ha":796,"x_min":61,"x_max":739,"o":"m 61 728 q 102 858 61 792 q 223 968 144 924 q 408 1011 302 1011 q 582 975 507 1011 q 698 876 657 939 q 739 741 739 814 q 716 640 739 683 q 660 565 692 596 q 545 458 628 533 q 508 421 522 437 q 487 392 494 406 q 476 366 480 379 q 465 319 473 353 q 385 249 452 249 q 325 272 349 249 q 301 340 301 295 q 319 439 301 397 q 366 512 336 481 q 444 587 395 544 q 507 645 488 625 q 539 688 526 664 q 553 739 553 711 q 512 831 553 793 q 408 868 472 868 q 298 830 334 868 q 239 720 263 793 q 151 643 216 643 q 87 670 113 643 q 61 728 61 696 m 392 -16 q 320 11 351 -16 q 289 86 289 38 q 319 158 289 129 q 392 187 349 187 q 464 158 435 187 q 493 86 493 129 q 463 12 493 39 q 392 -16 432 -16 z "},"@":{"ha":1360,"x_min":40,"x_max":1350,"o":"m 843 643 l 860 718 l 1039 718 l 936 232 q 926 171 926 186 q 934 146 926 155 q 953 138 942 138 q 1047 185 989 138 q 1148 316 1105 233 q 1192 496 1192 398 q 1161 649 1192 577 q 1072 774 1130 721 q 927 857 1013 827 q 733 886 842 886 q 530 858 623 886 q 368 775 438 829 q 252 642 298 721 q 189 488 210 572 q 167 317 167 404 q 213 103 167 200 q 348 -59 260 7 q 562 -152 437 -124 q 846 -163 688 -179 q 1058 -106 971 -148 q 1206 12 1145 -64 l 1350 12 q 1258 -117 1315 -60 q 1126 -213 1202 -174 q 956 -273 1050 -252 q 750 -293 861 -293 q 450 -249 583 -293 q 225 -123 316 -205 q 87 74 134 -41 q 40 326 40 188 q 88 596 40 471 q 227 814 136 722 q 448 959 317 907 q 736 1011 578 1011 q 972 974 865 1011 q 1156 865 1080 936 q 1273 698 1233 795 q 1314 485 1314 602 q 1281 307 1314 394 q 1188 150 1249 220 q 1045 40 1127 81 q 868 0 963 0 q 783 19 813 0 q 742 78 752 37 q 606 4 683 20 q 458 19 530 -11 q 341 118 386 48 q 297 290 297 188 q 343 500 297 397 q 473 669 389 603 q 664 734 557 734 q 843 643 786 734 m 472 292 q 506 167 472 210 q 595 123 540 123 q 707 174 659 123 q 781 303 755 225 q 806 453 806 380 q 797 518 806 489 q 772 568 789 547 q 732 601 755 590 q 679 612 709 612 q 571 566 619 612 q 498 445 524 519 q 472 292 472 371 z "},"A":{"ha":999,"x_min":37,"x_max":960,"o":"m 745 113 l 697 237 l 293 237 l 245 110 q 198 9 218 35 q 134 -17 178 -17 q 66 11 96 -17 q 37 74 37 39 q 44 116 37 94 q 66 176 51 138 l 321 822 q 347 889 332 850 q 379 954 362 928 q 425 995 397 979 q 494 1011 453 1011 q 565 995 536 1011 q 610 954 593 979 q 639 900 627 929 q 669 823 651 871 l 929 182 q 960 75 960 109 q 931 12 960 41 q 861 -17 902 -17 q 821 -8 838 -17 q 792 15 804 0 q 767 59 781 29 q 745 113 754 90 m 346 389 l 643 389 l 493 799 l 346 389 z "},"B":{"ha":999,"x_min":107,"x_max":933,"o":"m 533 0 l 229 0 q 135 30 163 0 q 107 123 107 59 l 107 871 q 136 965 107 937 q 229 994 165 994 l 551 994 q 675 985 623 994 q 768 951 727 977 q 831 898 804 930 q 872 827 858 866 q 886 745 886 788 q 737 526 886 595 q 933 283 933 464 q 890 133 933 200 q 775 35 848 66 q 671 8 730 16 q 533 0 612 0 m 518 441 l 309 441 l 309 151 l 525 151 q 729 298 729 151 q 676 408 729 374 q 518 441 623 441 m 309 843 l 309 586 l 493 586 q 609 600 568 586 q 672 654 650 614 q 689 718 689 683 q 635 818 689 793 q 472 843 582 843 l 309 843 z "},"C":{"ha":1028,"x_min":69,"x_max":956,"o":"m 956 314 q 932 211 956 267 q 859 103 909 156 q 730 16 808 50 q 549 -17 652 -17 q 406 -2 470 -17 q 289 44 341 13 q 192 127 236 76 q 125 232 153 174 q 83 356 97 290 q 69 496 69 422 q 104 711 69 616 q 204 873 139 806 q 357 976 269 941 q 543 1011 444 1011 q 758 963 664 1011 q 903 844 852 915 q 953 710 953 773 q 928 649 953 675 q 869 623 904 623 q 811 641 831 623 q 768 704 792 659 q 676 814 729 778 q 545 851 623 851 q 347 757 420 851 q 273 489 273 663 q 306 296 273 373 q 398 181 338 219 q 538 143 458 143 q 685 186 625 143 q 775 313 745 229 q 807 377 788 352 q 868 401 826 401 q 930 376 904 401 q 956 314 956 351 z "},"D":{"ha":1028,"x_min":110,"x_max":960,"o":"m 233 994 l 496 994 q 671 975 598 994 q 804 904 745 956 q 960 500 960 771 q 944 336 960 410 q 896 203 928 262 q 812 97 863 144 q 725 39 772 61 q 623 9 677 18 q 500 0 568 0 l 237 0 q 155 17 182 0 q 118 63 127 33 q 110 142 110 94 l 110 871 q 139 965 110 936 q 233 994 168 994 m 311 835 l 311 160 l 464 160 q 543 163 514 160 q 602 176 571 165 q 654 207 632 187 q 755 501 755 292 q 711 722 755 648 q 602 815 667 795 q 444 835 536 835 l 311 835 z "},"E":{"ha":926,"x_min":109,"x_max":875,"o":"m 764 839 l 310 839 l 310 595 l 728 595 q 797 574 774 595 q 819 519 819 553 q 797 464 819 486 q 728 443 774 443 l 310 443 l 310 160 l 779 160 q 851 138 827 160 q 875 79 875 116 q 851 22 875 44 q 779 0 827 0 l 232 0 q 137 29 166 0 q 109 123 109 58 l 109 871 q 121 942 109 914 q 162 982 134 969 q 232 994 189 994 l 764 994 q 835 973 812 994 q 859 917 859 951 q 835 860 859 882 q 764 839 812 839 z "},"F":{"ha":839,"x_min":104,"x_max":798,"o":"m 703 839 l 306 839 l 306 585 l 637 585 q 706 564 684 585 q 729 509 729 543 q 706 454 729 474 q 637 433 683 433 l 306 433 l 306 106 q 278 13 306 43 q 205 -17 250 -17 q 133 14 161 -17 q 104 106 104 44 l 104 871 q 117 942 104 914 q 158 982 130 969 q 228 994 185 994 l 703 994 q 774 973 751 994 q 798 917 798 951 q 774 860 798 882 q 703 839 751 839 z "},"G":{"ha":1100,"x_min":68,"x_max":1017,"o":"m 1017 404 l 1017 214 q 1009 153 1017 176 q 982 112 1002 130 q 930 77 962 94 q 757 5 840 28 q 575 -17 673 -17 q 366 18 460 -17 q 205 121 272 54 q 103 283 139 188 q 68 497 68 379 q 102 709 68 613 q 204 873 137 806 q 368 976 271 940 q 586 1011 464 1011 q 764 984 686 1011 q 889 917 841 958 q 962 831 937 876 q 986 750 986 785 q 958 685 986 712 q 890 659 930 659 q 849 669 869 659 q 815 697 829 679 q 752 785 778 755 q 683 836 726 815 q 571 856 639 856 q 446 832 501 856 q 352 762 391 808 q 293 650 313 716 q 272 503 272 583 q 352 233 272 328 q 576 139 433 139 q 708 157 646 139 q 832 210 769 176 l 832 371 l 676 371 q 591 388 620 371 q 562 446 562 405 q 586 500 562 479 q 652 522 610 522 l 880 522 q 951 515 922 522 q 999 481 981 507 q 1017 404 1017 456 z "},"H":{"ha":1055,"x_min":110,"x_max":947,"o":"m 311 889 l 311 604 l 746 604 l 746 889 q 773 981 746 950 q 846 1011 801 1011 q 919 981 891 1011 q 947 889 947 951 l 947 106 q 919 14 947 44 q 846 -17 890 -17 q 773 14 800 -17 q 746 106 746 45 l 746 440 l 311 440 l 311 106 q 283 14 311 44 q 210 -17 254 -17 q 137 14 164 -17 q 110 106 110 45 l 110 889 q 137 981 110 950 q 210 1011 163 1011 q 283 981 255 1011 q 311 889 311 951 z "},"I":{"ha":435,"x_min":117,"x_max":318,"o":"m 117 106 l 117 889 q 144 981 117 950 q 216 1011 172 1011 q 290 981 262 1011 q 318 889 318 951 l 318 106 q 290 14 318 44 q 216 -17 262 -17 q 145 14 173 -17 q 117 106 117 45 z "},"J":{"ha":796,"x_min":26,"x_max":686,"o":"m 686 889 l 686 368 q 681 253 686 300 q 654 157 675 205 q 543 29 621 75 q 353 -17 465 -17 q 184 15 252 -17 q 75 118 117 47 q 40 205 54 156 q 26 300 26 255 q 53 372 26 347 q 121 397 79 397 q 181 374 161 397 q 212 302 201 351 q 235 219 224 250 q 274 165 247 188 q 351 143 301 143 q 485 339 485 143 l 485 889 q 512 981 485 950 q 585 1011 538 1011 q 659 981 631 1011 q 686 889 686 950 z "},"K":{"ha":1028,"x_min":110,"x_max":957,"o":"m 311 889 l 311 541 l 707 953 q 755 997 735 983 q 808 1011 775 1011 q 879 986 852 1011 q 905 924 905 960 q 860 836 905 880 l 615 604 l 897 200 q 942 126 927 158 q 957 65 957 95 q 931 7 957 32 q 860 -17 905 -17 q 791 1 818 -17 q 747 49 765 19 q 714 103 728 79 l 476 469 l 311 311 l 311 106 q 283 13 311 43 q 210 -17 254 -17 q 160 -3 184 -17 q 123 33 136 10 q 112 77 114 52 q 110 150 110 102 l 110 889 q 137 981 110 950 q 210 1011 163 1011 q 283 981 255 1011 q 311 889 311 951 z "},"L":{"ha":839,"x_min":104,"x_max":815,"o":"m 306 889 l 306 165 l 714 165 q 789 142 763 165 q 815 82 815 118 q 789 23 815 45 q 714 0 764 0 l 228 0 q 133 29 162 0 q 104 123 104 58 l 104 889 q 132 981 104 950 q 204 1011 159 1011 q 278 981 250 1011 q 306 889 306 951 z "},"M":{"ha":1157,"x_min":100,"x_max":1059,"o":"m 444 150 l 285 783 l 285 97 q 259 12 285 40 q 192 -17 234 -17 q 125 11 151 -17 q 100 97 100 39 l 100 884 q 134 971 100 949 q 225 994 168 994 l 288 994 q 369 984 344 994 q 407 947 395 974 q 435 861 419 921 l 579 317 l 724 861 q 751 947 739 921 q 789 984 764 974 q 871 994 814 994 l 933 994 q 1025 971 991 994 q 1059 884 1059 949 l 1059 97 q 1033 12 1059 40 q 965 -17 1008 -17 q 899 12 925 -17 q 873 97 873 40 l 873 783 l 714 150 q 689 59 699 88 q 652 7 679 31 q 579 -17 626 -17 q 519 -2 544 -17 q 481 37 495 14 q 460 90 468 61 q 444 150 452 119 z "},"N":{"ha":1055,"x_min":111,"x_max":943,"o":"m 371 890 l 758 304 l 758 896 q 783 982 758 954 q 850 1011 808 1011 q 918 982 893 1011 q 943 896 943 954 l 943 114 q 835 -17 943 -17 q 786 -9 808 -17 q 745 16 764 -1 q 710 55 726 33 q 677 102 694 78 l 300 681 l 300 98 q 273 12 300 41 q 205 -17 247 -17 q 137 13 163 -17 q 111 98 111 42 l 111 865 q 122 942 111 914 q 165 992 135 972 q 229 1011 195 1011 q 276 1002 256 1011 q 310 979 295 994 q 339 940 324 964 q 371 890 355 916 z "},"O":{"ha":1100,"x_min":62,"x_max":1036,"o":"m 546 1011 q 811 948 701 1011 q 979 770 922 886 q 1036 498 1036 654 q 1005 289 1036 383 q 911 125 974 195 q 758 20 849 56 q 550 -17 667 -17 q 341 21 433 -17 q 187 127 249 58 q 94 292 125 195 q 62 500 62 388 q 95 710 62 614 q 191 873 128 806 q 342 976 253 940 q 546 1011 432 1011 m 832 500 q 797 689 832 609 q 696 810 762 769 q 546 851 631 851 q 434 828 486 851 q 346 762 383 806 q 288 651 309 719 q 267 500 267 584 q 288 347 267 415 q 348 233 309 278 q 438 165 387 188 q 549 143 488 143 q 691 182 626 143 q 794 301 755 220 q 832 500 832 382 z "},"P":{"ha":926,"x_min":109,"x_max":867,"o":"m 494 387 l 310 387 l 310 106 q 281 14 310 45 q 210 -17 253 -17 q 136 14 164 -17 q 109 104 109 45 l 109 871 q 139 966 109 937 q 236 994 170 994 l 494 994 q 671 977 609 994 q 776 920 732 960 q 844 824 821 881 q 867 696 867 767 q 773 466 867 544 q 494 387 680 387 m 446 843 l 310 843 l 310 539 l 446 539 q 565 554 517 539 q 637 603 612 569 q 663 692 663 637 q 624 799 663 758 q 446 843 581 843 z "},"Q":{"ha":1100,"x_min":62,"x_max":1090,"o":"m 908 123 q 1004 65 952 94 q 1074 21 1057 37 q 1090 -26 1090 4 q 1070 -70 1090 -48 q 1022 -92 1050 -92 q 966 -77 999 -92 q 889 -33 933 -62 q 791 33 844 -5 q 550 -17 693 -17 q 342 20 434 -17 q 188 126 250 57 q 94 292 125 196 q 62 500 62 387 q 95 710 62 614 q 191 873 128 806 q 342 976 253 940 q 546 1011 432 1011 q 811 948 701 1011 q 979 770 922 886 q 1036 498 1036 654 q 908 123 1036 262 m 750 233 q 812 347 792 281 q 832 500 832 413 q 797 689 832 609 q 696 810 762 769 q 546 851 631 851 q 434 828 486 851 q 346 762 383 806 q 288 651 309 719 q 267 500 267 584 q 347 236 267 328 q 549 143 427 143 q 652 164 599 143 q 572 212 620 188 q 507 248 524 235 q 489 285 489 261 q 506 321 489 305 q 543 336 523 336 q 750 233 605 336 z "},"R":{"ha":999,"x_min":107,"x_max":935,"o":"m 379 425 l 309 425 l 309 106 q 281 13 309 43 q 208 -17 253 -17 q 134 14 160 -17 q 107 106 107 45 l 107 871 q 136 965 107 936 q 231 994 165 994 l 558 994 q 674 988 626 994 q 761 965 722 983 q 844 909 808 945 q 898 824 880 872 q 917 721 917 775 q 854 543 917 610 q 664 449 791 477 q 766 365 718 420 q 853 247 815 309 q 913 133 892 184 q 935 64 935 83 q 922 25 935 44 q 888 -6 909 5 q 838 -17 866 -17 q 781 -1 804 -17 q 741 39 758 15 q 696 111 724 64 l 615 245 q 537 358 572 319 q 468 411 503 397 q 379 425 433 425 m 494 843 l 309 843 l 309 570 l 489 570 q 611 582 562 570 q 687 625 661 595 q 713 708 713 655 q 692 781 713 749 q 633 828 671 812 q 494 843 598 843 z "},"S":{"ha":926,"x_min":74,"x_max":864,"o":"m 864 298 q 818 136 864 208 q 682 24 771 64 q 469 -17 592 -17 q 227 39 322 -17 q 116 145 159 79 q 74 275 74 212 q 99 338 74 312 q 164 364 125 364 q 218 344 196 364 q 256 283 240 323 q 297 204 275 236 q 359 152 319 172 q 464 131 399 131 q 609 173 553 131 q 665 277 665 214 q 635 357 665 326 q 557 404 605 388 q 429 439 509 420 q 250 497 322 464 q 135 589 178 531 q 93 733 93 647 q 138 879 93 815 q 267 977 182 943 q 467 1011 352 1011 q 625 988 558 1011 q 736 928 692 966 q 800 849 780 890 q 821 768 821 808 q 795 704 821 732 q 732 675 770 675 q 679 692 697 675 q 640 749 661 709 q 575 837 613 805 q 453 868 537 868 q 327 834 375 868 q 279 751 279 800 q 296 700 279 722 q 340 663 312 678 q 398 638 369 647 q 494 612 427 629 q 647 569 578 593 q 763 511 715 545 q 837 426 810 477 q 864 298 864 374 z "},"T":{"ha":868,"x_min":12,"x_max":857,"o":"m 754 828 l 534 828 l 534 106 q 507 13 534 43 q 435 -17 479 -17 q 362 14 390 -17 q 334 106 334 44 l 334 828 l 114 828 q 37 851 62 828 q 12 911 12 873 q 38 972 12 949 q 114 994 64 994 l 754 994 q 832 971 806 994 q 857 911 857 948 q 831 851 857 873 q 754 828 806 828 z "},"U":{"ha":1055,"x_min":110,"x_max":946,"o":"m 110 411 l 110 889 q 137 981 110 950 q 210 1011 165 1011 q 284 981 256 1011 q 311 889 311 950 l 311 400 q 330 261 311 317 q 396 174 349 205 q 529 143 444 143 q 696 206 647 143 q 745 396 745 269 l 745 889 q 772 981 745 951 q 844 1011 799 1011 q 918 981 890 1011 q 946 889 946 951 l 946 411 q 923 216 946 294 q 838 79 901 138 q 711 6 783 29 q 543 -17 640 -17 q 346 8 429 -17 q 211 84 263 33 q 134 217 159 136 q 110 411 110 298 z "},"V":{"ha":956,"x_min":41,"x_max":913,"o":"m 256 879 l 481 212 l 707 884 q 733 957 724 937 q 762 995 742 978 q 818 1011 783 1011 q 866 998 844 1011 q 900 964 888 985 q 913 921 913 943 q 909 889 913 906 q 899 855 905 871 q 886 821 892 838 l 646 171 q 620 100 633 134 q 590 41 607 66 q 545 -1 573 16 q 476 -17 517 -17 q 407 -1 435 -17 q 362 41 379 15 q 332 100 345 67 q 306 171 319 134 l 69 815 q 57 850 63 833 q 46 886 50 867 q 41 920 41 906 q 69 983 41 954 q 139 1011 97 1011 q 212 980 191 1011 q 256 879 233 948 z "},"W":{"ha":1303,"x_min":24,"x_max":1278,"o":"m 812 157 l 652 753 l 489 157 q 459 59 470 89 q 420 6 448 30 q 346 -17 392 -17 q 284 -3 309 -17 q 245 36 260 11 q 221 97 231 62 q 204 161 212 132 l 39 831 q 24 920 24 889 q 51 985 24 958 q 118 1011 78 1011 q 192 976 173 1011 q 225 873 211 941 l 355 293 l 501 836 q 530 931 517 899 q 572 987 543 964 q 652 1011 602 1011 q 731 986 703 1011 q 770 932 759 962 q 799 836 781 903 l 946 293 l 1076 873 q 1094 945 1086 919 q 1123 991 1103 970 q 1183 1011 1144 1011 q 1250 985 1223 1011 q 1278 920 1278 959 q 1263 831 1278 892 l 1097 161 q 1069 62 1080 94 q 1031 7 1058 31 q 956 -17 1004 -17 q 882 6 909 -17 q 843 58 854 29 q 812 157 832 87 z "},"X":{"ha":839,"x_min":22,"x_max":810,"o":"m 72 193 l 294 518 l 107 807 q 67 879 81 849 q 54 937 54 909 q 80 988 54 966 q 142 1011 105 1011 q 207 986 184 1011 q 272 895 231 962 l 421 653 l 581 895 q 614 947 600 925 q 641 983 628 968 q 670 1004 654 997 q 707 1011 686 1011 q 769 988 745 1011 q 793 935 793 966 q 741 811 793 889 l 545 518 l 755 193 q 797 122 784 151 q 810 69 810 94 q 798 26 810 45 q 766 -5 787 6 q 718 -17 745 -17 q 670 -5 690 -17 q 638 24 650 7 q 593 93 626 42 l 418 368 l 232 85 q 201 37 210 51 q 179 11 192 24 q 149 -9 166 -2 q 107 -17 131 -17 q 46 5 71 -17 q 22 71 22 28 q 72 193 22 121 z "},"Y":{"ha":868,"x_min":29,"x_max":838,"o":"m 330 106 l 330 421 l 87 798 q 42 877 56 848 q 29 926 29 905 q 56 986 29 961 q 122 1011 83 1011 q 185 988 163 1011 q 249 895 206 964 l 435 593 l 623 895 q 651 941 640 922 q 676 977 663 960 q 707 1002 690 994 q 749 1011 724 1011 q 812 986 787 1011 q 838 929 838 962 q 825 876 838 903 q 781 803 812 850 l 532 421 l 532 106 q 503 14 532 44 q 431 -17 475 -17 q 358 13 386 -17 q 330 106 330 43 z "},"Z":{"ha":897,"x_min":8,"x_max":879,"o":"m 82 232 l 593 843 l 154 843 q 84 863 108 843 q 61 917 61 884 q 84 973 61 951 q 154 994 108 994 l 720 994 q 829 892 829 994 q 811 814 829 843 q 737 720 793 785 l 260 151 l 786 151 q 856 132 833 151 q 879 78 879 113 q 856 21 879 42 q 786 0 833 0 l 140 0 q 41 30 75 0 q 8 109 8 59 q 14 140 8 125 q 28 166 19 154 q 54 198 37 179 q 82 232 70 218 z "},"[":{"ha":492,"x_min":100,"x_max":476,"o":"m 389 867 l 275 867 l 275 -117 l 389 -117 q 476 -189 476 -117 q 389 -261 476 -261 l 220 -261 q 152 -248 178 -261 q 112 -207 125 -234 q 100 -138 100 -179 l 100 888 q 128 981 100 951 q 220 1011 157 1011 l 389 1011 q 454 991 433 1011 q 476 939 476 972 q 389 867 476 867 z "},"\\":{"ha":390,"x_min":18,"x_max":372,"o":"m 168 903 l 358 121 q 372 43 372 65 q 302 -17 372 -17 q 259 -4 274 -17 q 239 26 245 8 q 221 92 233 44 l 32 873 q 18 950 18 932 q 36 995 18 979 q 87 1011 54 1011 q 140 988 127 1011 q 168 903 153 965 z "},"]":{"ha":492,"x_min":16,"x_max":392,"o":"m 216 -117 l 216 867 l 104 867 q 38 887 61 867 q 16 939 16 907 q 38 991 16 971 q 104 1011 61 1011 l 272 1011 q 363 981 334 1011 q 392 888 392 951 l 392 -138 q 363 -231 392 -201 q 272 -261 335 -261 l 104 -261 q 38 -241 61 -261 q 16 -189 16 -221 q 38 -137 16 -157 q 104 -117 61 -117 l 216 -117 z "},"^":{"ha":810,"x_min":78,"x_max":732,"o":"m 272 469 l 78 469 l 334 1011 l 484 1011 l 732 469 l 541 469 l 406 802 l 272 469 z "},"_":{"ha":694,"x_min":-8,"x_max":703,"o":"m -8 -174 l -8 -104 l 703 -104 l 703 -174 l -8 -174 z "},"`":{"ha":463,"x_min":56,"x_max":336,"o":"m 288 925 l 318 868 q 336 828 336 839 q 307 811 336 811 q 224 831 262 811 q 130 911 205 840 q 56 991 56 983 q 90 1002 56 1002 l 182 1002 q 242 987 222 1002 q 288 925 262 973 z "},"a":{"ha":825,"x_min":56,"x_max":766,"o":"m 564 87 q 434 9 496 35 q 293 -17 371 -17 q 168 11 222 -17 q 85 87 114 39 q 56 192 56 136 q 104 321 56 268 q 236 393 152 375 q 323 412 254 397 q 443 438 393 426 q 551 467 493 450 q 522 574 548 540 q 414 608 496 608 q 308 589 343 608 q 247 530 272 569 q 211 478 221 490 q 165 465 200 465 q 112 485 134 465 q 89 536 89 505 q 123 631 89 585 q 231 707 158 677 q 414 737 304 737 q 606 708 536 737 q 704 617 675 680 q 733 452 733 555 q 733 341 733 387 q 732 240 732 296 q 749 131 732 188 q 766 58 766 75 q 740 6 766 30 q 679 -17 713 -17 q 623 10 650 -17 q 564 87 595 37 m 551 355 q 433 324 511 340 q 326 299 355 307 q 269 269 296 292 q 241 205 241 246 q 273 134 241 163 q 357 104 305 104 q 458 129 412 104 q 526 191 505 153 q 551 329 551 233 l 551 355 z "},"b":{"ha":868,"x_min":92,"x_max":815,"o":"m 267 905 l 267 623 q 373 706 319 677 q 507 734 427 734 q 669 691 600 734 q 777 564 739 647 q 815 367 815 481 q 794 213 815 283 q 732 91 772 142 q 633 11 691 39 q 505 -17 575 -17 q 425 -7 463 -17 q 361 20 387 3 q 316 54 334 37 q 267 107 297 72 l 267 89 q 241 10 267 37 q 178 -17 216 -17 q 115 10 138 -17 q 92 89 92 37 l 92 897 q 114 982 92 954 q 178 1011 137 1011 q 243 984 220 1011 q 267 905 267 956 m 275 355 q 326 185 275 245 q 458 126 376 126 q 579 187 528 126 q 629 361 629 248 q 608 487 629 434 q 549 569 587 540 q 458 597 510 597 q 364 569 406 597 q 299 485 323 540 q 275 355 275 431 z "},"c":{"ha":825,"x_min":60,"x_max":760,"o":"m 760 212 q 739 138 760 178 q 676 63 718 99 q 569 6 633 28 q 424 -16 505 -16 q 156 84 252 -16 q 60 353 60 184 q 104 554 60 467 q 231 689 148 642 q 431 737 315 737 q 563 716 503 737 q 664 662 623 695 q 728 591 706 629 q 750 521 750 553 q 725 465 750 488 q 665 441 701 441 q 627 453 642 441 q 593 492 612 465 q 522 569 559 543 q 428 595 485 595 q 296 531 346 595 q 245 355 245 467 q 258 259 245 303 q 296 185 271 216 q 355 138 320 154 q 431 122 389 122 q 526 148 486 122 q 596 227 566 174 q 633 275 613 258 q 681 293 652 293 q 737 267 715 293 q 760 212 760 241 z "},"d":{"ha":868,"x_min":53,"x_max":778,"o":"m 603 89 l 603 107 q 529 38 566 64 q 451 -3 493 11 q 358 -17 408 -17 q 235 11 292 -17 q 137 92 178 39 q 74 214 96 144 q 53 367 53 285 q 138 637 53 541 q 361 734 222 734 q 496 707 441 734 q 603 623 551 680 l 603 896 q 626 982 603 953 q 690 1011 648 1011 q 755 984 732 1011 q 778 905 778 958 l 778 89 q 753 9 778 36 q 690 -17 729 -17 q 628 11 652 -17 q 603 89 603 38 m 239 361 q 262 233 239 286 q 326 153 286 180 q 415 126 367 126 q 504 152 464 126 q 569 230 545 177 q 593 361 593 282 q 569 488 593 435 q 504 569 545 541 q 414 597 463 597 q 323 569 363 597 q 261 486 283 540 q 239 361 239 432 z "},"e":{"ha":825,"x_min":61,"x_max":765,"o":"m 612 314 l 250 314 q 276 203 251 251 q 341 130 300 155 q 432 106 382 106 q 493 114 465 106 q 546 138 520 121 q 593 174 572 155 q 650 225 615 193 q 690 237 664 237 q 736 222 719 237 q 754 178 754 206 q 734 119 754 153 q 675 55 715 85 q 575 3 635 24 q 437 -17 515 -17 q 160 85 259 -17 q 61 361 61 186 q 85 513 61 443 q 157 633 110 583 q 272 710 203 684 q 424 737 340 737 q 610 691 532 737 q 726 573 688 646 q 765 425 765 500 q 725 335 765 355 q 612 314 685 314 m 250 419 l 586 419 q 535 561 579 514 q 418 608 490 608 q 304 561 349 608 q 250 419 260 513 z "},"f":{"ha":463,"x_min":-12,"x_max":528,"o":"m 81 720 l 125 720 l 125 775 q 147 913 125 862 q 221 988 169 964 q 366 1011 274 1011 q 528 932 528 1011 q 511 888 528 906 q 471 869 494 869 q 433 873 460 869 q 389 878 407 878 q 324 848 338 878 q 310 764 310 819 l 310 720 l 355 720 q 461 656 461 720 q 433 598 461 610 q 355 586 405 586 l 310 586 l 310 96 q 284 12 310 41 q 216 -17 258 -17 q 151 12 177 -17 q 125 96 125 41 l 125 586 l 74 586 q 10 605 33 586 q -12 653 -12 623 q 81 720 -12 720 z "},"g":{"ha":868,"x_min":54,"x_max":777,"o":"m 777 600 l 777 62 q 757 -96 777 -30 q 694 -206 737 -163 q 580 -271 650 -250 q 406 -292 510 -292 q 235 -265 310 -292 q 119 -196 159 -238 q 78 -109 78 -153 q 101 -53 78 -75 q 157 -32 124 -32 q 228 -68 197 -32 q 259 -105 243 -86 q 294 -137 275 -123 q 340 -156 313 -150 q 403 -163 368 -163 q 514 -143 475 -163 q 570 -87 554 -123 q 589 -10 586 -51 q 593 122 591 31 q 494 31 550 62 q 361 0 438 0 q 198 47 268 0 q 92 180 129 95 q 54 378 54 266 q 77 528 54 461 q 142 642 100 595 q 239 711 184 688 q 359 734 294 734 q 496 704 438 734 q 603 610 553 674 l 603 635 q 627 709 603 683 q 688 736 650 736 q 759 701 741 736 q 777 600 777 666 m 240 366 q 289 195 240 253 q 416 138 338 138 q 504 162 463 138 q 570 237 545 187 q 596 358 596 287 q 546 534 596 471 q 415 597 496 597 q 288 537 336 597 q 240 366 240 477 z "},"h":{"ha":839,"x_min":92,"x_max":751,"o":"m 277 899 l 277 624 q 346 688 312 665 q 420 724 379 712 q 507 736 460 736 q 632 706 578 736 q 718 619 687 676 q 745 545 738 586 q 751 450 751 504 l 751 96 q 726 12 751 40 q 659 -17 701 -17 q 567 96 567 -17 l 567 408 q 541 545 567 497 q 440 593 514 593 q 351 565 391 593 q 292 488 311 536 q 277 340 277 446 l 277 96 q 252 12 277 41 q 183 -17 227 -17 q 92 96 92 -17 l 92 899 q 116 983 92 955 q 183 1011 140 1011 q 252 983 227 1011 q 277 899 277 954 z "},"i":{"ha":376,"x_min":96,"x_max":281,"o":"m 281 631 l 281 96 q 254 12 281 40 q 187 -17 228 -17 q 121 12 146 -17 q 96 96 96 41 l 96 625 q 121 708 96 680 q 187 736 146 736 q 254 708 228 736 q 281 631 281 680 m 189 822 q 123 846 151 822 q 96 913 96 869 q 124 978 96 952 q 189 1003 152 1003 q 253 980 225 1003 q 281 913 281 957 q 254 846 281 870 q 189 822 227 822 z "},"j":{"ha":376,"x_min":-102,"x_max":282,"o":"m 282 625 l 282 -3 q 278 -112 282 -70 q 265 -174 273 -155 q 69 -292 219 -292 q -58 -269 -15 -292 q -102 -201 -102 -245 q -82 -148 -102 -169 q -31 -127 -62 -127 q -17 -129 -26 -127 q 10 -131 -8 -130 q 35 -132 28 -132 q 84 -103 72 -132 q 97 1 97 -74 l 97 625 q 123 708 97 680 q 191 736 149 736 q 257 708 231 736 q 282 625 282 681 m 191 822 q 124 846 152 822 q 97 913 97 869 q 125 978 97 952 q 191 1003 153 1003 q 254 980 227 1003 q 282 913 282 957 q 255 846 282 870 q 191 822 228 822 z "},"k":{"ha":796,"x_min":109,"x_max":746,"o":"m 557 68 l 393 336 l 293 241 l 293 94 q 265 12 293 41 q 200 -17 237 -17 q 133 12 157 -17 q 109 96 109 40 l 109 885 q 132 979 109 947 q 200 1011 156 1011 q 268 982 243 1011 q 293 896 293 953 l 293 447 l 501 665 q 560 721 540 706 q 610 736 581 736 q 667 714 644 736 q 690 659 690 692 q 615 550 690 618 l 517 460 l 707 161 q 737 111 728 128 q 746 78 746 94 q 722 8 746 34 q 659 -17 698 -17 q 606 1 625 -17 q 557 68 588 20 z "},"l":{"ha":376,"x_min":96,"x_max":281,"o":"m 96 96 l 96 899 q 120 983 96 954 q 187 1011 145 1011 q 255 983 229 1011 q 281 899 281 955 l 281 96 q 255 11 281 39 q 187 -17 229 -17 q 121 12 146 -17 q 96 96 96 41 z "},"m":{"ha":1229,"x_min":85,"x_max":1145,"o":"m 711 346 l 711 100 q 685 12 711 41 q 615 -17 659 -17 q 547 12 573 -17 q 521 100 521 41 l 521 395 q 516 503 521 465 q 490 567 511 542 q 424 591 469 591 q 304 529 333 591 q 275 350 275 467 l 275 100 q 249 13 275 42 q 180 -17 223 -17 q 112 13 138 -17 q 85 100 85 42 l 85 629 q 109 709 85 682 q 172 736 133 736 q 236 710 210 736 q 261 640 261 685 l 261 623 q 364 707 309 680 q 486 734 419 734 q 606 707 556 734 q 689 623 656 679 q 789 707 736 680 q 908 734 843 734 q 1039 705 984 734 q 1121 619 1094 675 q 1145 461 1145 569 l 1145 100 q 1118 12 1145 41 q 1048 -17 1092 -17 q 980 13 1006 -17 q 953 100 953 42 l 953 411 q 948 507 953 471 q 920 567 943 543 q 852 591 898 591 q 783 570 816 591 q 732 511 750 548 q 711 346 711 465 z "},"n":{"ha":839,"x_min":90,"x_max":750,"o":"m 264 633 l 264 611 q 371 706 313 675 q 504 736 429 736 q 635 704 577 736 q 721 614 692 672 q 745 541 739 580 q 750 440 750 501 l 750 96 q 725 12 750 40 q 659 -17 699 -17 q 591 12 617 -17 q 566 96 566 41 l 566 404 q 540 544 566 496 q 439 593 515 593 q 349 563 389 593 q 289 482 308 534 q 275 328 275 441 l 275 96 q 249 11 275 39 q 182 -17 223 -17 q 116 12 142 -17 q 90 96 90 41 l 90 631 q 113 710 90 684 q 176 736 136 736 q 220 724 201 736 q 252 690 240 713 q 264 633 264 667 z "},"o":{"ha":839,"x_min":52,"x_max":789,"o":"m 789 359 q 763 207 789 277 q 688 87 737 137 q 572 10 640 37 q 419 -17 504 -17 q 268 10 335 -17 q 152 88 201 37 q 77 207 102 138 q 52 359 52 276 q 77 513 52 444 q 151 633 103 583 q 268 709 199 682 q 419 736 336 736 q 572 709 503 736 q 689 631 640 682 q 763 512 738 581 q 789 359 789 443 m 603 359 q 553 536 603 473 q 419 599 503 599 q 323 571 365 599 q 260 488 282 543 q 237 359 237 433 q 259 233 237 287 q 322 150 281 178 q 419 121 363 121 q 553 184 503 121 q 603 359 603 248 z "},"p":{"ha":868,"x_min":92,"x_max":815,"o":"m 267 632 l 267 610 q 375 704 319 674 q 503 734 431 734 q 660 690 588 734 q 773 562 732 646 q 815 361 815 477 q 791 204 815 275 q 725 84 767 132 q 626 9 683 35 q 503 -17 568 -17 q 369 15 423 -17 q 267 109 315 47 l 267 -170 q 178 -292 267 -292 q 109 -260 125 -292 q 92 -168 92 -229 l 92 631 q 115 710 92 684 q 178 736 138 736 q 242 709 217 736 q 267 632 267 682 m 629 363 q 607 489 629 436 q 545 569 585 541 q 457 597 505 597 q 328 537 380 597 q 275 359 275 477 q 328 188 275 249 q 457 126 380 126 q 543 153 503 126 q 606 233 582 180 q 629 363 629 287 z "},"q":{"ha":868,"x_min":54,"x_max":778,"o":"m 603 -168 l 603 93 q 491 11 549 39 q 363 -17 433 -17 q 206 28 277 -17 q 95 159 135 74 q 54 359 54 244 q 95 562 54 477 q 208 690 136 646 q 368 734 280 734 q 502 704 443 734 q 603 610 561 673 l 603 632 q 627 709 603 683 q 690 736 652 736 q 753 710 729 736 q 778 632 778 684 l 778 -168 q 690 -292 778 -292 q 620 -258 636 -292 q 603 -168 603 -225 m 240 361 q 264 232 240 286 q 328 152 288 178 q 412 126 367 126 q 503 152 462 126 q 570 232 545 178 q 595 364 595 286 q 580 465 595 420 q 541 539 566 509 q 483 583 515 568 q 414 597 450 597 q 290 536 339 597 q 240 361 240 474 z "},"r":{"ha":608,"x_min":94,"x_max":603,"o":"m 279 250 l 279 96 q 253 11 279 39 q 186 -17 227 -17 q 120 12 146 -17 q 94 96 94 40 l 94 611 q 184 736 94 736 q 251 707 231 736 q 273 621 271 677 q 341 707 307 677 q 435 736 376 736 q 548 707 493 736 q 603 629 603 677 q 579 573 603 595 q 529 551 556 551 q 480 564 519 551 q 411 576 441 576 q 345 555 370 576 q 304 492 319 534 q 285 392 290 450 q 279 250 279 334 z "},"s":{"ha":753,"x_min":57,"x_max":692,"o":"m 692 225 q 654 94 692 149 q 544 11 617 39 q 367 -17 471 -17 q 196 14 267 -17 q 91 90 125 44 q 57 182 57 136 q 79 234 57 212 q 134 256 100 256 q 178 241 163 256 q 208 201 194 227 q 276 127 237 152 q 385 103 316 103 q 476 128 440 103 q 511 184 511 153 q 474 256 511 233 q 353 298 437 278 q 197 348 257 322 q 101 417 137 374 q 65 522 65 460 q 98 627 65 578 q 196 706 132 677 q 353 736 261 736 q 482 721 425 736 q 577 681 539 706 q 636 625 616 656 q 656 566 656 595 q 634 513 656 534 q 574 493 613 493 q 525 509 545 493 q 479 558 505 526 q 430 602 458 585 q 353 618 401 618 q 269 596 302 618 q 236 543 236 575 q 260 495 236 514 q 326 465 285 477 q 440 435 368 452 q 581 385 526 414 q 664 316 635 355 q 692 225 692 276 z "},"t":{"ha":492,"x_min":20,"x_max":519,"o":"m 106 720 l 126 720 l 126 831 q 129 901 126 876 q 142 945 131 926 q 173 976 153 964 q 218 987 193 987 q 282 961 254 987 q 306 918 301 943 q 311 846 311 892 l 311 720 l 379 720 q 439 701 418 720 q 460 653 460 682 q 430 601 460 616 q 346 586 401 586 l 311 586 l 311 245 q 314 179 311 202 q 331 141 317 155 q 374 126 344 126 q 418 132 390 126 q 461 138 446 138 q 502 120 484 138 q 519 75 519 102 q 471 7 519 31 q 330 -17 422 -17 q 199 12 243 -17 q 140 93 154 41 q 126 231 126 144 l 126 586 l 102 586 q 41 605 62 586 q 20 653 20 624 q 42 701 20 682 q 106 720 64 720 z "},"u":{"ha":839,"x_min":90,"x_max":750,"o":"m 576 87 l 576 111 q 507 41 543 69 q 427 -2 470 12 q 328 -16 383 -16 q 207 12 260 -16 q 125 89 154 40 q 90 258 90 148 l 90 625 q 115 708 90 681 q 182 736 140 736 q 250 708 224 736 q 275 625 275 680 l 275 329 q 286 221 275 264 q 325 152 297 177 q 401 127 353 127 q 490 155 448 127 q 550 228 531 183 q 566 400 566 267 l 566 625 q 591 708 566 680 q 659 736 617 736 q 725 708 700 736 q 750 625 750 681 l 750 89 q 726 9 750 36 q 664 -17 702 -17 q 601 11 626 -17 q 576 87 576 38 z "},"v":{"ha":753,"x_min":37,"x_max":715,"o":"m 227 621 l 376 200 l 538 639 q 575 714 557 692 q 631 736 593 736 q 691 712 666 736 q 715 657 715 688 q 711 629 715 645 q 701 598 707 612 q 688 566 695 584 l 510 125 q 491 77 503 106 q 464 27 479 47 q 428 -5 450 6 q 376 -17 407 -17 q 314 1 337 -17 q 279 40 290 19 q 241 125 268 62 l 65 561 q 53 593 59 577 q 42 627 46 610 q 37 656 37 644 q 49 693 37 675 q 81 724 60 712 q 125 736 101 736 q 188 709 171 736 q 227 621 205 683 z "},"w":{"ha":1129,"x_min":32,"x_max":1097,"o":"m 211 621 l 332 207 l 441 591 q 468 674 459 652 q 499 716 476 696 q 564 736 523 736 q 628 716 605 736 q 661 672 652 696 q 688 591 671 649 l 798 207 l 920 621 q 939 685 932 665 q 964 721 947 705 q 1015 736 982 736 q 1073 713 1048 736 q 1097 659 1097 690 q 1076 572 1097 630 l 925 129 q 895 47 905 73 q 860 3 884 22 q 796 -17 837 -17 q 730 4 754 -17 q 694 56 706 25 q 669 135 683 86 l 564 496 l 461 135 q 417 21 441 60 q 334 -17 393 -17 q 282 -5 303 -17 q 246 29 260 7 q 221 81 232 51 q 204 129 210 111 l 54 572 q 32 659 32 635 q 56 712 32 688 q 114 736 79 736 q 176 710 160 736 q 211 621 193 684 z "},"x":{"ha":724,"x_min":37,"x_max":686,"o":"m 497 60 l 363 257 l 225 60 q 175 1 195 18 q 122 -17 154 -17 q 62 5 87 -17 q 37 56 37 27 q 75 139 37 85 l 243 379 l 94 579 q 56 665 56 629 q 79 715 56 694 q 139 736 102 736 q 193 718 172 736 q 243 660 214 699 l 363 496 l 479 660 q 530 718 509 701 q 583 736 551 736 q 644 715 620 736 q 668 665 668 694 q 658 625 668 644 q 628 579 648 606 l 479 379 l 647 139 q 686 54 686 83 q 662 4 686 25 q 602 -17 637 -17 q 548 1 570 -17 q 497 60 526 20 z "},"y":{"ha":753,"x_min":14,"x_max":714,"o":"m 267 -40 l 283 1 l 56 575 q 35 647 35 625 q 47 691 35 671 q 80 724 59 711 q 125 736 102 736 q 185 710 165 736 q 221 637 205 685 l 378 182 l 526 606 q 558 686 544 657 q 588 726 572 715 q 633 736 604 736 q 674 725 654 736 q 704 694 693 713 q 714 654 714 675 q 705 618 711 642 q 690 570 699 594 l 449 -62 q 388 -193 418 -146 q 309 -266 358 -241 q 176 -292 260 -292 q 54 -274 95 -292 q 14 -210 14 -256 q 33 -160 14 -178 q 90 -143 52 -143 q 119 -147 105 -143 q 150 -151 137 -151 q 200 -142 182 -151 q 233 -109 218 -132 q 267 -40 248 -85 z "},"z":{"ha":724,"x_min":16,"x_max":711,"o":"m 599 524 l 260 144 l 623 144 q 689 124 667 144 q 711 71 711 103 q 689 20 711 39 q 623 0 667 0 l 121 0 q 42 23 68 0 q 16 86 16 46 q 34 134 16 110 q 110 222 52 158 q 221 345 171 290 q 313 448 271 400 q 384 529 356 496 q 429 586 412 562 l 154 586 q 68 596 97 586 q 39 650 39 606 q 61 701 39 682 q 123 720 83 720 l 549 720 q 639 702 608 720 q 671 640 671 685 q 665 609 671 625 q 651 583 659 593 q 631 558 644 573 q 599 524 618 544 z "},"{":{"ha":534,"x_min":40,"x_max":504,"o":"m 239 359 q 314 293 287 330 q 352 198 341 256 q 363 52 363 141 q 366 -47 363 -16 q 378 -96 369 -79 q 400 -118 387 -113 q 444 -127 413 -123 q 487 -153 470 -131 q 504 -210 504 -174 q 404 -292 504 -292 q 294 -266 342 -292 q 219 -193 245 -240 q 192 -85 193 -146 q 188 81 190 18 q 182 161 186 143 q 152 230 172 207 q 99 273 132 253 q 54 309 67 293 q 40 359 40 325 q 79 435 40 410 q 149 487 128 465 q 178 542 170 508 q 188 615 186 575 q 192 806 189 654 q 251 955 194 899 q 404 1011 309 1011 q 504 930 504 1011 q 487 873 504 894 q 444 848 471 852 q 389 832 405 843 q 369 790 374 821 q 363 669 364 759 q 352 526 361 582 q 316 431 343 470 q 239 359 290 391 z "},"|":{"ha":390,"x_min":119,"x_max":271,"o":"m 271 918 l 271 -199 q 250 -268 271 -245 q 196 -292 229 -292 q 141 -268 163 -292 q 119 -199 119 -244 l 119 918 q 141 987 119 964 q 196 1011 163 1011 q 250 987 229 1011 q 271 918 271 963 z "},"}":{"ha":534,"x_min":31,"x_max":494,"o":"m 296 359 q 236 408 259 382 q 198 469 213 433 q 177 554 183 505 q 171 669 171 603 q 168 768 171 734 q 157 818 165 802 q 135 839 149 833 q 90 848 120 845 q 48 873 65 852 q 31 930 31 894 q 129 1011 31 1011 q 240 986 192 1011 q 315 913 288 960 q 343 806 342 866 q 353 558 347 581 q 385 490 363 513 q 435 449 406 467 q 480 413 465 431 q 494 359 494 395 q 456 285 494 309 q 387 234 408 256 q 357 179 366 212 q 347 80 349 146 q 343 -85 345 14 q 283 -235 341 -178 q 129 -292 225 -292 q 56 -271 81 -292 q 31 -210 31 -250 q 39 -169 31 -187 q 60 -140 47 -150 q 90 -127 73 -130 q 136 -117 121 -123 q 158 -94 151 -111 q 169 -44 166 -77 q 171 52 171 -12 q 182 198 172 145 q 218 289 191 251 q 296 359 244 327 z "},"~":{"ha":810,"x_min":45,"x_max":765,"o":"m 229 446 q 45 353 134 446 l 45 528 q 139 599 90 578 q 249 621 188 621 q 338 608 296 621 q 425 578 380 596 q 513 545 470 560 q 579 529 555 529 q 671 554 622 529 q 765 627 720 579 l 765 444 q 712 402 745 423 q 644 367 679 380 q 579 354 610 354 q 489 366 530 354 q 394 400 447 377 q 306 434 340 422 q 229 446 271 446 z "},"Ä":{"ha":999,"x_min":37,"x_max":960,"o":"m 745 113 l 697 237 l 293 237 l 245 110 q 198 9 218 35 q 134 -17 178 -17 q 66 11 96 -17 q 37 74 37 39 q 44 116 37 94 q 66 176 51 138 l 321 822 q 347 889 332 850 q 379 954 362 928 q 425 995 397 979 q 494 1011 453 1011 q 565 995 536 1011 q 610 954 593 979 q 639 900 627 929 q 669 823 651 871 l 929 182 q 960 75 960 109 q 931 12 960 41 q 861 -17 902 -17 q 821 -8 838 -17 q 792 15 804 0 q 767 59 781 29 q 745 113 754 90 m 346 389 l 643 389 l 493 799 l 346 389 m 332 1078 q 279 1099 302 1078 q 256 1154 256 1119 q 278 1210 256 1188 q 332 1231 300 1231 q 385 1212 362 1231 q 408 1154 408 1192 q 385 1099 408 1119 q 332 1078 362 1078 m 596 1231 q 633 1221 615 1231 q 662 1192 652 1211 q 672 1154 672 1174 q 650 1099 672 1119 q 596 1078 627 1078 q 543 1099 566 1078 q 519 1154 519 1119 q 543 1208 519 1185 q 596 1231 566 1231 z "},"Å":{"ha":999,"x_min":37,"x_max":960,"o":"m 745 113 l 697 237 l 293 237 l 245 110 q 198 9 218 35 q 134 -17 178 -17 q 66 11 96 -17 q 37 74 37 39 q 44 116 37 94 q 66 176 51 138 l 321 822 q 347 889 332 850 q 379 954 362 928 q 425 995 397 979 q 494 1011 453 1011 q 565 995 536 1011 q 610 954 593 979 q 639 900 627 929 q 669 823 651 871 l 929 182 q 960 75 960 109 q 931 12 960 41 q 861 -17 902 -17 q 821 -8 838 -17 q 792 15 804 0 q 767 59 781 29 q 745 113 754 90 m 346 389 l 643 389 l 493 799 l 346 389 m 463 1314 q 562 1273 520 1314 q 603 1174 603 1232 q 562 1075 603 1116 q 463 1034 520 1034 q 392 1053 424 1034 q 341 1103 360 1072 q 322 1174 322 1135 q 363 1273 322 1232 q 463 1314 405 1314 m 463 1243 q 413 1223 433 1243 q 393 1174 393 1204 q 413 1125 393 1145 q 463 1106 433 1106 q 497 1115 481 1106 q 523 1139 513 1124 q 532 1174 532 1155 q 526 1201 532 1188 q 512 1223 521 1215 q 490 1238 503 1232 q 463 1243 477 1243 z "},"Ç":{"ha":1028,"x_min":69,"x_max":956,"o":"m 551 -17 l 547 -32 q 653 -72 616 -43 q 690 -151 690 -100 q 665 -222 690 -191 q 587 -271 639 -254 q 463 -289 535 -289 q 395 -285 427 -289 q 329 -271 363 -281 q 319 -260 324 -269 q 314 -243 314 -250 q 331 -213 314 -221 q 378 -205 347 -205 q 395 -206 389 -205 q 411 -207 401 -206 q 434 -209 422 -208 q 454 -210 446 -210 q 564 -151 564 -210 q 544 -113 564 -128 q 493 -98 525 -98 q 457 -103 480 -98 q 429 -107 434 -107 q 407 -96 417 -107 q 397 -71 397 -85 q 509 -17 397 -28 q 410 -2 460 -13 q 318 28 359 8 q 240 79 277 47 q 149 186 189 123 q 90 328 110 250 q 69 496 69 406 q 104 711 69 616 q 204 873 139 806 q 357 976 269 941 q 543 1011 444 1011 q 758 963 664 1011 q 903 844 852 915 q 953 710 953 773 q 928 649 953 675 q 869 623 904 623 q 819 636 839 623 q 781 681 798 650 q 727 767 754 730 q 656 827 701 803 q 545 851 612 851 q 347 757 420 851 q 273 489 273 663 q 306 296 273 373 q 398 180 338 218 q 538 142 457 142 q 693 193 629 142 q 775 313 758 244 q 868 401 798 401 q 930 376 904 401 q 956 314 956 351 q 938 229 956 277 q 886 136 920 182 q 803 56 851 90 q 551 -17 705 -15 z "},"É":{"ha":926,"x_min":109,"x_max":875,"o":"m 764 839 l 310 839 l 310 595 l 728 595 q 797 574 774 595 q 819 519 819 553 q 797 464 819 486 q 728 443 774 443 l 310 443 l 310 160 l 779 160 q 851 138 827 160 q 875 79 875 116 q 851 22 875 44 q 779 0 827 0 l 232 0 q 137 29 166 0 q 109 123 109 58 l 109 871 q 121 942 109 914 q 162 982 134 969 q 232 994 189 994 l 764 994 q 835 973 812 994 q 859 917 859 951 q 835 860 859 882 q 764 839 812 839 m 518 1253 l 610 1253 q 644 1243 644 1253 q 606 1199 644 1238 q 530 1125 568 1160 q 476 1082 491 1090 q 393 1063 437 1063 q 364 1080 364 1063 q 382 1120 364 1091 l 412 1177 q 458 1240 439 1226 q 518 1253 478 1253 z "},"Ñ":{"ha":1055,"x_min":111,"x_max":943,"o":"m 371 890 l 758 304 l 758 896 q 783 982 758 954 q 850 1011 808 1011 q 918 982 893 1011 q 943 896 943 954 l 943 114 q 835 -17 943 -17 q 786 -9 808 -17 q 745 16 764 -1 q 710 55 726 33 q 677 102 694 78 l 300 681 l 300 98 q 273 12 300 41 q 205 -17 247 -17 q 137 13 163 -17 q 111 98 111 42 l 111 865 q 122 942 111 914 q 165 992 135 972 q 229 1011 195 1011 q 276 1002 256 1011 q 310 979 295 994 q 339 940 324 964 q 371 890 355 916 m 393 1141 q 346 1095 358 1141 q 309 1055 334 1055 q 282 1068 294 1055 q 271 1107 271 1082 q 286 1173 271 1141 q 327 1223 300 1204 q 385 1242 354 1242 q 441 1233 415 1242 q 511 1204 467 1224 q 571 1178 555 1184 q 607 1173 587 1173 q 638 1182 627 1173 q 655 1218 649 1192 q 692 1257 666 1257 q 719 1243 707 1257 q 730 1204 730 1229 q 702 1119 730 1166 q 612 1071 673 1071 q 565 1079 589 1071 q 498 1105 541 1086 q 434 1133 455 1124 q 393 1141 413 1141 z "},"Ö":{"ha":1100,"x_min":62,"x_max":1036,"o":"m 546 1011 q 811 948 701 1011 q 979 770 922 886 q 1036 498 1036 654 q 1005 289 1036 383 q 911 125 974 195 q 758 20 849 56 q 550 -17 667 -17 q 341 21 433 -17 q 187 127 249 58 q 94 292 125 195 q 62 500 62 388 q 95 710 62 614 q 191 873 128 806 q 342 976 253 940 q 546 1011 432 1011 m 832 500 q 797 689 832 609 q 696 810 762 769 q 546 851 631 851 q 434 828 486 851 q 346 762 383 806 q 288 651 309 719 q 267 500 267 584 q 288 347 267 415 q 348 233 309 278 q 438 165 387 188 q 549 143 488 143 q 691 182 626 143 q 794 301 755 220 q 832 500 832 382 m 439 1078 q 386 1099 410 1078 q 363 1154 363 1119 q 385 1210 363 1188 q 439 1231 408 1231 q 492 1212 469 1231 q 515 1154 515 1192 q 492 1099 515 1119 q 439 1078 469 1078 m 703 1231 q 741 1221 722 1231 q 769 1192 759 1211 q 779 1154 779 1174 q 757 1099 779 1119 q 703 1078 734 1078 q 650 1099 673 1078 q 627 1154 627 1119 q 650 1208 627 1185 q 703 1231 673 1231 z "},"Ü":{"ha":1055,"x_min":110,"x_max":946,"o":"m 110 411 l 110 889 q 137 981 110 950 q 210 1011 165 1011 q 284 981 256 1011 q 311 889 311 950 l 311 400 q 330 261 311 317 q 396 174 349 205 q 529 143 444 143 q 696 206 647 143 q 745 396 745 269 l 745 889 q 772 981 745 951 q 844 1011 799 1011 q 918 981 890 1011 q 946 889 946 951 l 946 411 q 923 216 946 294 q 838 79 901 138 q 711 6 783 29 q 543 -17 640 -17 q 346 8 429 -17 q 211 84 263 33 q 134 217 159 136 q 110 411 110 298 m 369 1078 q 316 1099 340 1078 q 293 1154 293 1119 q 315 1210 293 1188 q 369 1231 338 1231 q 422 1212 399 1231 q 446 1154 446 1192 q 422 1099 446 1119 q 369 1078 399 1078 m 633 1231 q 671 1221 652 1231 q 699 1192 689 1211 q 709 1154 709 1174 q 687 1099 709 1119 q 633 1078 665 1078 q 580 1099 604 1078 q 557 1154 557 1119 q 580 1208 557 1185 q 633 1231 603 1231 z "},"á":{"ha":825,"x_min":56,"x_max":766,"o":"m 564 87 q 434 9 496 35 q 293 -17 371 -17 q 168 11 222 -17 q 85 87 114 39 q 56 192 56 136 q 104 321 56 268 q 236 393 152 375 q 323 412 254 397 q 443 438 393 426 q 551 467 493 450 q 522 574 548 540 q 414 608 496 608 q 308 589 343 608 q 247 530 272 569 q 211 478 221 490 q 165 465 200 465 q 112 485 134 465 q 89 536 89 505 q 123 631 89 585 q 231 707 158 677 q 414 737 304 737 q 606 708 536 737 q 704 617 675 680 q 733 452 733 555 q 733 341 733 387 q 732 240 732 296 q 749 131 732 188 q 766 58 766 75 q 740 6 766 30 q 679 -17 713 -17 q 623 10 650 -17 q 564 87 595 37 m 551 355 q 433 324 511 340 q 326 299 355 307 q 269 269 296 292 q 241 205 241 246 q 273 134 241 163 q 357 104 305 104 q 458 129 412 104 q 526 191 505 153 q 551 329 551 233 l 551 355 m 440 1002 l 532 1002 q 566 991 566 1002 q 528 947 566 986 q 452 873 490 909 q 398 831 413 838 q 315 811 359 811 q 286 828 286 811 q 304 868 286 840 l 334 925 q 380 988 361 975 q 440 1002 400 1002 z "},"à":{"ha":825,"x_min":56,"x_max":766,"o":"m 564 87 q 434 9 496 35 q 293 -17 371 -17 q 168 11 222 -17 q 85 87 114 39 q 56 192 56 136 q 104 321 56 268 q 236 393 152 375 q 323 412 254 397 q 443 438 393 426 q 551 467 493 450 q 522 574 548 540 q 414 608 496 608 q 308 589 343 608 q 247 530 272 569 q 211 478 221 490 q 165 465 200 465 q 112 485 134 465 q 89 536 89 505 q 123 631 89 585 q 231 707 158 677 q 414 737 304 737 q 606 708 536 737 q 704 617 675 680 q 733 452 733 555 q 733 341 733 387 q 732 240 732 296 q 749 131 732 188 q 766 58 766 75 q 740 6 766 30 q 679 -17 713 -17 q 623 10 650 -17 q 564 87 595 37 m 551 355 q 433 324 511 340 q 326 299 355 307 q 269 269 296 292 q 241 205 241 246 q 273 134 241 163 q 357 104 305 104 q 458 129 412 104 q 526 191 505 153 q 551 329 551 233 l 551 355 m 441 925 l 472 868 q 490 828 490 839 q 461 811 490 811 q 378 831 416 811 q 284 911 359 840 q 210 991 210 983 q 244 1002 210 1002 l 336 1002 q 396 987 376 1002 q 441 925 416 973 z "},"â":{"ha":825,"x_min":56,"x_max":766,"o":"m 564 87 q 434 9 496 35 q 293 -17 371 -17 q 168 11 222 -17 q 85 87 114 39 q 56 192 56 136 q 104 321 56 268 q 236 393 152 375 q 323 412 254 397 q 443 438 393 426 q 551 467 493 450 q 522 574 548 540 q 414 608 496 608 q 308 589 343 608 q 247 530 272 569 q 211 478 221 490 q 165 465 200 465 q 112 485 134 465 q 89 536 89 505 q 123 631 89 585 q 231 707 158 677 q 414 737 304 737 q 606 708 536 737 q 704 617 675 680 q 733 452 733 555 q 733 341 733 387 q 732 240 732 296 q 749 131 732 188 q 766 58 766 75 q 740 6 766 30 q 679 -17 713 -17 q 623 10 650 -17 q 564 87 595 37 m 551 355 q 433 324 511 340 q 326 299 355 307 q 269 269 296 292 q 241 205 241 246 q 273 134 241 163 q 357 104 305 104 q 458 129 412 104 q 526 191 505 153 q 551 329 551 233 l 551 355 m 454 863 l 386 942 l 318 863 q 279 821 290 829 q 241 814 269 814 l 187 814 q 159 823 159 814 q 180 857 159 831 l 256 947 q 277 974 265 959 q 299 996 290 989 q 326 1006 308 1002 q 366 1010 343 1010 l 404 1010 q 466 999 449 1010 q 515 947 482 988 l 593 856 q 612 825 612 830 q 582 814 612 814 l 530 814 q 498 820 510 814 q 475 838 486 825 q 454 863 465 850 z "},"ä":{"ha":825,"x_min":56,"x_max":766,"o":"m 564 87 q 434 9 496 35 q 293 -17 371 -17 q 168 11 222 -17 q 85 87 114 39 q 56 192 56 136 q 104 321 56 268 q 236 393 152 375 q 323 412 254 397 q 443 438 393 426 q 551 467 493 450 q 522 574 548 540 q 414 608 496 608 q 308 589 343 608 q 247 530 272 569 q 211 478 221 490 q 165 465 200 465 q 112 485 134 465 q 89 536 89 505 q 123 631 89 585 q 231 707 158 677 q 414 737 304 737 q 606 708 536 737 q 704 617 675 680 q 733 452 733 555 q 733 341 733 387 q 732 240 732 296 q 749 131 732 188 q 766 58 766 75 q 740 6 766 30 q 679 -17 713 -17 q 623 10 650 -17 q 564 87 595 37 m 551 355 q 433 324 511 340 q 326 299 355 307 q 269 269 296 292 q 241 205 241 246 q 273 134 241 163 q 357 104 305 104 q 458 129 412 104 q 526 191 505 153 q 551 329 551 233 l 551 355 m 254 827 q 201 847 224 827 q 178 903 178 867 q 200 958 178 937 q 254 979 222 979 q 307 960 284 979 q 330 903 330 941 q 307 847 330 867 q 254 827 284 827 m 518 979 q 555 969 537 979 q 584 941 574 959 q 594 903 594 922 q 572 847 594 867 q 518 827 549 827 q 465 847 488 827 q 441 903 441 867 q 465 956 441 933 q 518 979 488 979 z "},"ã":{"ha":825,"x_min":56,"x_max":766,"o":"m 564 87 q 434 9 496 35 q 293 -17 371 -17 q 168 11 222 -17 q 85 87 114 39 q 56 192 56 136 q 104 321 56 268 q 236 393 152 375 q 323 412 254 397 q 443 438 393 426 q 551 467 493 450 q 522 574 548 540 q 414 608 496 608 q 308 589 343 608 q 247 530 272 569 q 211 478 221 490 q 165 465 200 465 q 112 485 134 465 q 89 536 89 505 q 123 631 89 585 q 231 707 158 677 q 414 737 304 737 q 606 708 536 737 q 704 617 675 680 q 733 452 733 555 q 733 341 733 387 q 732 240 732 296 q 749 131 732 188 q 766 58 766 75 q 740 6 766 30 q 679 -17 713 -17 q 623 10 650 -17 q 564 87 595 37 m 551 355 q 433 324 511 340 q 326 299 355 307 q 269 269 296 292 q 241 205 241 246 q 273 134 241 163 q 357 104 305 104 q 458 129 412 104 q 526 191 505 153 q 551 329 551 233 l 551 355 m 277 889 q 231 843 243 889 q 194 803 218 803 q 167 817 179 803 q 155 856 155 831 q 170 921 155 890 q 212 971 185 953 q 269 990 239 990 q 326 981 300 990 q 396 952 352 972 q 456 927 439 932 q 492 921 472 921 q 523 931 511 921 q 540 966 534 941 q 576 1006 551 1006 q 604 991 592 1006 q 615 953 615 977 q 586 867 615 915 q 497 819 557 819 q 450 827 474 819 q 382 854 425 835 q 319 881 340 873 q 277 889 298 889 z "},"å":{"ha":825,"x_min":56,"x_max":766,"o":"m 564 87 q 434 9 496 35 q 293 -17 371 -17 q 168 11 222 -17 q 85 87 114 39 q 56 192 56 136 q 104 321 56 268 q 236 393 152 375 q 323 412 254 397 q 443 438 393 426 q 551 467 493 450 q 522 574 548 540 q 414 608 496 608 q 308 589 343 608 q 247 530 272 569 q 211 478 221 490 q 165 465 200 465 q 112 485 134 465 q 89 536 89 505 q 123 631 89 585 q 231 707 158 677 q 414 737 304 737 q 606 708 536 737 q 704 617 675 680 q 733 452 733 555 q 733 341 733 387 q 732 240 732 296 q 749 131 732 188 q 766 58 766 75 q 740 6 766 30 q 679 -17 713 -17 q 623 10 650 -17 q 564 87 595 37 m 551 355 q 433 324 511 340 q 326 299 355 307 q 269 269 296 292 q 241 205 241 246 q 273 134 241 163 q 357 104 305 104 q 458 129 412 104 q 526 191 505 153 q 551 329 551 233 l 551 355 m 385 1063 q 484 1021 442 1063 q 525 922 525 980 q 484 823 525 865 q 385 782 442 782 q 314 801 346 782 q 263 852 282 820 q 244 922 244 884 q 286 1021 244 980 q 385 1063 327 1063 m 385 991 q 335 972 355 991 q 315 922 315 952 q 335 874 315 893 q 385 854 355 854 q 419 863 404 854 q 445 888 435 872 q 454 922 454 903 q 448 950 454 937 q 434 972 443 963 q 412 986 425 981 q 385 991 399 991 z "},"ç":{"ha":825,"x_min":60,"x_max":760,"o":"m 444 -17 l 441 -31 q 548 -66 513 -37 q 583 -144 583 -96 q 557 -215 583 -184 q 480 -261 531 -245 q 357 -278 429 -278 q 232 -231 232 -278 q 241 -208 232 -218 q 264 -199 251 -199 q 294 -201 267 -199 q 343 -204 321 -204 q 465 -146 465 -204 q 447 -110 465 -125 q 400 -96 428 -96 q 369 -99 389 -96 q 339 -102 349 -102 q 312 -89 322 -102 q 302 -62 302 -77 q 399 -16 302 -30 q 147 93 235 -7 q 60 353 60 192 q 104 554 60 467 q 231 689 148 642 q 431 737 315 737 q 563 716 503 737 q 664 662 623 695 q 728 591 706 629 q 750 521 750 553 q 725 465 750 488 q 665 441 701 441 q 604 476 629 441 q 527 566 562 537 q 428 595 492 595 q 296 531 346 595 q 245 355 245 467 q 258 259 245 303 q 296 185 271 216 q 355 138 320 154 q 431 122 389 122 q 523 144 489 122 q 586 212 556 167 q 633 275 616 258 q 681 293 649 293 q 737 268 714 293 q 760 212 760 243 q 723 115 760 167 q 615 25 687 62 q 444 -17 543 -13 z "},"é":{"ha":825,"x_min":61,"x_max":765,"o":"m 612 314 l 250 314 q 276 203 251 251 q 341 130 300 155 q 432 106 382 106 q 493 114 465 106 q 546 138 520 121 q 593 174 572 155 q 650 225 615 193 q 690 237 664 237 q 736 222 719 237 q 754 178 754 206 q 734 119 754 153 q 675 55 715 85 q 575 3 635 24 q 437 -17 515 -17 q 160 85 259 -17 q 61 361 61 186 q 85 513 61 443 q 157 633 110 583 q 272 710 203 684 q 424 737 340 737 q 610 691 532 737 q 726 573 688 646 q 765 425 765 500 q 725 335 765 355 q 612 314 685 314 m 250 419 l 586 419 q 535 561 579 514 q 418 608 490 608 q 304 561 349 608 q 250 419 260 513 m 440 1002 l 532 1002 q 566 991 566 1002 q 528 947 566 986 q 452 873 490 909 q 398 831 413 838 q 315 811 359 811 q 286 828 286 811 q 304 868 286 840 l 334 925 q 380 988 361 975 q 440 1002 400 1002 z "},"è":{"ha":825,"x_min":61,"x_max":765,"o":"m 612 314 l 250 314 q 276 203 251 251 q 341 130 300 155 q 432 106 382 106 q 493 114 465 106 q 546 138 520 121 q 593 174 572 155 q 650 225 615 193 q 690 237 664 237 q 736 222 719 237 q 754 178 754 206 q 734 119 754 153 q 675 55 715 85 q 575 3 635 24 q 437 -17 515 -17 q 160 85 259 -17 q 61 361 61 186 q 85 513 61 443 q 157 633 110 583 q 272 710 203 684 q 424 737 340 737 q 610 691 532 737 q 726 573 688 646 q 765 425 765 500 q 725 335 765 355 q 612 314 685 314 m 250 419 l 586 419 q 535 561 579 514 q 418 608 490 608 q 304 561 349 608 q 250 419 260 513 m 441 925 l 472 868 q 490 828 490 839 q 461 811 490 811 q 378 831 416 811 q 284 911 359 840 q 210 991 210 983 q 244 1002 210 1002 l 336 1002 q 396 987 376 1002 q 441 925 416 973 z "},"ê":{"ha":825,"x_min":61,"x_max":765,"o":"m 612 314 l 250 314 q 276 203 251 251 q 341 130 300 155 q 432 106 382 106 q 493 114 465 106 q 546 138 520 121 q 593 174 572 155 q 650 225 615 193 q 690 237 664 237 q 736 222 719 237 q 754 178 754 206 q 734 119 754 153 q 675 55 715 85 q 575 3 635 24 q 437 -17 515 -17 q 160 85 259 -17 q 61 361 61 186 q 85 513 61 443 q 157 633 110 583 q 272 710 203 684 q 424 737 340 737 q 610 691 532 737 q 726 573 688 646 q 765 425 765 500 q 725 335 765 355 q 612 314 685 314 m 250 419 l 586 419 q 535 561 579 514 q 418 608 490 608 q 304 561 349 608 q 250 419 260 513 m 454 863 l 386 942 l 318 863 q 279 821 290 829 q 241 814 269 814 l 187 814 q 159 823 159 814 q 180 857 159 831 l 256 947 q 277 974 265 959 q 299 996 290 989 q 326 1006 308 1002 q 366 1010 343 1010 l 404 1010 q 466 999 449 1010 q 515 947 482 988 l 593 856 q 612 825 612 830 q 582 814 612 814 l 530 814 q 498 820 510 814 q 475 838 486 825 q 454 863 465 850 z "},"ë":{"ha":825,"x_min":61,"x_max":765,"o":"m 612 314 l 250 314 q 276 203 251 251 q 341 130 300 155 q 432 106 382 106 q 493 114 465 106 q 546 138 520 121 q 593 174 572 155 q 650 225 615 193 q 690 237 664 237 q 736 222 719 237 q 754 178 754 206 q 734 119 754 153 q 675 55 715 85 q 575 3 635 24 q 437 -17 515 -17 q 160 85 259 -17 q 61 361 61 186 q 85 513 61 443 q 157 633 110 583 q 272 710 203 684 q 424 737 340 737 q 610 691 532 737 q 726 573 688 646 q 765 425 765 500 q 725 335 765 355 q 612 314 685 314 m 250 419 l 586 419 q 535 561 579 514 q 418 608 490 608 q 304 561 349 608 q 250 419 260 513 m 254 827 q 201 847 224 827 q 178 903 178 867 q 200 958 178 937 q 254 979 222 979 q 307 960 284 979 q 330 903 330 941 q 307 847 330 867 q 254 827 284 827 m 518 979 q 555 969 537 979 q 584 941 574 959 q 594 903 594 922 q 572 847 594 867 q 518 827 549 827 q 465 847 488 827 q 441 903 441 867 q 465 956 441 933 q 518 979 488 979 z "},"í":{"ha":376,"x_min":95,"x_max":375,"o":"m 281 631 l 281 96 q 254 12 281 40 q 187 -17 228 -17 q 121 12 146 -17 q 96 96 96 41 l 96 625 q 121 708 96 680 q 187 736 146 736 q 254 708 228 736 q 281 631 281 680 m 249 1002 l 340 1002 q 375 991 375 1002 q 337 947 375 986 q 260 873 299 909 q 207 831 222 838 q 124 811 168 811 q 95 828 95 811 q 113 868 95 840 l 143 925 q 189 988 170 975 q 249 1002 209 1002 z "},"ì":{"ha":376,"x_min":18,"x_max":299,"o":"m 281 631 l 281 96 q 254 12 281 40 q 187 -17 228 -17 q 121 12 146 -17 q 96 96 96 41 l 96 625 q 121 708 96 680 q 187 736 146 736 q 254 708 228 736 q 281 631 281 680 m 250 925 l 281 868 q 299 828 299 839 q 270 811 299 811 q 186 831 225 811 q 93 911 168 840 q 18 991 18 983 q 53 1002 18 1002 l 144 1002 q 205 987 184 1002 q 250 925 225 973 z "},"î":{"ha":376,"x_min":-32,"x_max":421,"o":"m 281 631 l 281 96 q 254 12 281 40 q 187 -17 228 -17 q 121 12 146 -17 q 96 96 96 41 l 96 625 q 121 708 96 680 q 187 736 146 736 q 254 708 228 736 q 281 631 281 680 m 262 863 l 195 942 l 127 863 q 88 821 98 829 q 50 814 78 814 l -4 814 q -32 823 -32 814 q -11 857 -32 831 l 64 947 q 86 974 74 959 q 107 996 98 989 q 134 1006 117 1002 q 175 1010 152 1010 l 213 1010 q 274 999 258 1010 q 323 947 291 988 l 401 856 q 421 825 421 830 q 391 814 421 814 l 339 814 q 307 820 319 814 q 284 838 295 825 q 262 863 273 850 z "},"ï":{"ha":376,"x_min":-14,"x_max":403,"o":"m 281 631 l 281 96 q 254 12 281 40 q 187 -17 228 -17 q 121 12 146 -17 q 96 96 96 41 l 96 625 q 121 708 96 680 q 187 736 146 736 q 254 708 228 736 q 281 631 281 680 m 62 827 q 10 847 33 827 q -14 903 -14 867 q 9 958 -14 937 q 62 979 31 979 q 116 960 93 979 q 139 903 139 941 q 116 847 139 867 q 62 827 93 827 m 327 979 q 364 969 346 979 q 393 941 382 959 q 403 903 403 922 q 380 847 403 867 q 327 827 358 827 q 274 847 297 827 q 250 903 250 867 q 273 956 250 933 q 327 979 296 979 z "},"ñ":{"ha":839,"x_min":90,"x_max":750,"o":"m 264 633 l 264 611 q 371 706 313 675 q 504 736 429 736 q 635 704 577 736 q 721 614 692 672 q 745 541 739 580 q 750 440 750 501 l 750 96 q 725 12 750 40 q 659 -17 699 -17 q 591 12 617 -17 q 566 96 566 41 l 566 404 q 540 544 566 496 q 439 593 515 593 q 349 563 389 593 q 289 482 308 534 q 275 328 275 441 l 275 96 q 249 11 275 39 q 182 -17 223 -17 q 116 12 142 -17 q 90 96 90 41 l 90 631 q 113 710 90 684 q 176 736 136 736 q 220 724 201 736 q 252 690 240 713 q 264 633 264 667 m 277 889 q 231 843 243 889 q 194 803 218 803 q 167 817 179 803 q 155 856 155 831 q 170 921 155 890 q 212 971 185 953 q 269 990 239 990 q 326 981 300 990 q 396 952 352 972 q 456 927 439 932 q 492 921 472 921 q 523 931 511 921 q 540 966 534 941 q 576 1006 551 1006 q 604 991 592 1006 q 615 953 615 977 q 586 867 615 915 q 497 819 557 819 q 450 827 474 819 q 382 854 425 835 q 319 881 340 873 q 277 889 298 889 z "},"ó":{"ha":839,"x_min":52,"x_max":789,"o":"m 789 359 q 763 207 789 277 q 688 87 737 137 q 572 10 640 37 q 419 -17 504 -17 q 268 10 335 -17 q 152 88 201 37 q 77 207 102 138 q 52 359 52 276 q 77 513 52 444 q 151 633 103 583 q 268 709 199 682 q 419 736 336 736 q 572 709 503 736 q 689 631 640 682 q 763 512 738 581 q 789 359 789 443 m 603 359 q 553 536 603 473 q 419 599 503 599 q 323 571 365 599 q 260 488 282 543 q 237 359 237 433 q 259 233 237 287 q 322 150 281 178 q 419 121 363 121 q 553 184 503 121 q 603 359 603 248 m 440 1002 l 532 1002 q 566 991 566 1002 q 528 947 566 986 q 452 873 490 909 q 398 831 413 838 q 315 811 359 811 q 286 828 286 811 q 304 868 286 840 l 334 925 q 380 988 361 975 q 440 1002 400 1002 z "},"ò":{"ha":839,"x_min":52,"x_max":789,"o":"m 789 359 q 763 207 789 277 q 688 87 737 137 q 572 10 640 37 q 419 -17 504 -17 q 268 10 335 -17 q 152 88 201 37 q 77 207 102 138 q 52 359 52 276 q 77 513 52 444 q 151 633 103 583 q 268 709 199 682 q 419 736 336 736 q 572 709 503 736 q 689 631 640 682 q 763 512 738 581 q 789 359 789 443 m 603 359 q 553 536 603 473 q 419 599 503 599 q 323 571 365 599 q 260 488 282 543 q 237 359 237 433 q 259 233 237 287 q 322 150 281 178 q 419 121 363 121 q 553 184 503 121 q 603 359 603 248 m 441 925 l 472 868 q 490 828 490 839 q 461 811 490 811 q 378 831 416 811 q 284 911 359 840 q 210 991 210 983 q 244 1002 210 1002 l 336 1002 q 396 987 376 1002 q 441 925 416 973 z "},"ô":{"ha":839,"x_min":52,"x_max":789,"o":"m 789 359 q 763 207 789 277 q 688 87 737 137 q 572 10 640 37 q 419 -17 504 -17 q 268 10 335 -17 q 152 88 201 37 q 77 207 102 138 q 52 359 52 276 q 77 513 52 444 q 151 633 103 583 q 268 709 199 682 q 419 736 336 736 q 572 709 503 736 q 689 631 640 682 q 763 512 738 581 q 789 359 789 443 m 603 359 q 553 536 603 473 q 419 599 503 599 q 323 571 365 599 q 260 488 282 543 q 237 359 237 433 q 259 233 237 287 q 322 150 281 178 q 419 121 363 121 q 553 184 503 121 q 603 359 603 248 m 454 863 l 386 942 l 318 863 q 279 821 290 829 q 241 814 269 814 l 187 814 q 159 823 159 814 q 180 857 159 831 l 256 947 q 277 974 265 959 q 299 996 290 989 q 326 1006 308 1002 q 366 1010 343 1010 l 404 1010 q 466 999 449 1010 q 515 947 482 988 l 593 856 q 612 825 612 830 q 582 814 612 814 l 530 814 q 498 820 510 814 q 475 838 486 825 q 454 863 465 850 z "},"ö":{"ha":839,"x_min":52,"x_max":789,"o":"m 789 359 q 763 207 789 277 q 688 87 737 137 q 572 10 640 37 q 419 -17 504 -17 q 268 10 335 -17 q 152 88 201 37 q 77 207 102 138 q 52 359 52 276 q 77 513 52 444 q 151 633 103 583 q 268 709 199 682 q 419 736 336 736 q 572 709 503 736 q 689 631 640 682 q 763 512 738 581 q 789 359 789 443 m 603 359 q 553 536 603 473 q 419 599 503 599 q 323 571 365 599 q 260 488 282 543 q 237 359 237 433 q 259 233 237 287 q 322 150 281 178 q 419 121 363 121 q 553 184 503 121 q 603 359 603 248 m 254 827 q 201 847 224 827 q 178 903 178 867 q 200 958 178 937 q 254 979 222 979 q 307 960 284 979 q 330 903 330 941 q 307 847 330 867 q 254 827 284 827 m 518 979 q 555 969 537 979 q 584 941 574 959 q 594 903 594 922 q 572 847 594 867 q 518 827 549 827 q 465 847 488 827 q 441 903 441 867 q 465 956 441 933 q 518 979 488 979 z "},"õ":{"ha":839,"x_min":52,"x_max":789,"o":"m 789 359 q 763 207 789 277 q 688 87 737 137 q 572 10 640 37 q 419 -17 504 -17 q 268 10 335 -17 q 152 88 201 37 q 77 207 102 138 q 52 359 52 276 q 77 513 52 444 q 151 633 103 583 q 268 709 199 682 q 419 736 336 736 q 572 709 503 736 q 689 631 640 682 q 763 512 738 581 q 789 359 789 443 m 603 359 q 553 536 603 473 q 419 599 503 599 q 323 571 365 599 q 260 488 282 543 q 237 359 237 433 q 259 233 237 287 q 322 150 281 178 q 419 121 363 121 q 553 184 503 121 q 603 359 603 248 m 277 889 q 231 843 243 889 q 194 803 218 803 q 167 817 179 803 q 155 856 155 831 q 170 921 155 890 q 212 971 185 953 q 269 990 239 990 q 326 981 300 990 q 396 952 352 972 q 456 927 439 932 q 492 921 472 921 q 523 931 511 921 q 540 966 534 941 q 576 1006 551 1006 q 604 991 592 1006 q 615 953 615 977 q 586 867 615 915 q 497 819 557 819 q 450 827 474 819 q 382 854 425 835 q 319 881 340 873 q 277 889 298 889 z "},"ú":{"ha":839,"x_min":90,"x_max":750,"o":"m 576 87 l 576 111 q 507 41 543 69 q 427 -2 470 12 q 328 -16 383 -16 q 207 12 260 -16 q 125 89 154 40 q 90 258 90 148 l 90 625 q 115 708 90 681 q 182 736 140 736 q 250 708 224 736 q 275 625 275 680 l 275 329 q 286 221 275 264 q 325 152 297 177 q 401 127 353 127 q 490 155 448 127 q 550 228 531 183 q 566 400 566 267 l 566 625 q 591 708 566 680 q 659 736 617 736 q 725 708 700 736 q 750 625 750 681 l 750 89 q 726 9 750 36 q 664 -17 702 -17 q 601 11 626 -17 q 576 87 576 38 m 440 1002 l 532 1002 q 566 991 566 1002 q 528 947 566 986 q 452 873 490 909 q 398 831 413 838 q 315 811 359 811 q 286 828 286 811 q 304 868 286 840 l 334 925 q 380 988 361 975 q 440 1002 400 1002 z "},"ù":{"ha":839,"x_min":90,"x_max":750,"o":"m 576 87 l 576 111 q 507 41 543 69 q 427 -2 470 12 q 328 -16 383 -16 q 207 12 260 -16 q 125 89 154 40 q 90 258 90 148 l 90 625 q 115 708 90 681 q 182 736 140 736 q 250 708 224 736 q 275 625 275 680 l 275 329 q 286 221 275 264 q 325 152 297 177 q 401 127 353 127 q 490 155 448 127 q 550 228 531 183 q 566 400 566 267 l 566 625 q 591 708 566 680 q 659 736 617 736 q 725 708 700 736 q 750 625 750 681 l 750 89 q 726 9 750 36 q 664 -17 702 -17 q 601 11 626 -17 q 576 87 576 38 m 441 925 l 472 868 q 490 828 490 839 q 461 811 490 811 q 378 831 416 811 q 284 911 359 840 q 210 991 210 983 q 244 1002 210 1002 l 336 1002 q 396 987 376 1002 q 441 925 416 973 z "},"û":{"ha":839,"x_min":90,"x_max":750,"o":"m 576 87 l 576 111 q 507 41 543 69 q 427 -2 470 12 q 328 -16 383 -16 q 207 12 260 -16 q 125 89 154 40 q 90 258 90 148 l 90 625 q 115 708 90 681 q 182 736 140 736 q 250 708 224 736 q 275 625 275 680 l 275 329 q 286 221 275 264 q 325 152 297 177 q 401 127 353 127 q 490 155 448 127 q 550 228 531 183 q 566 400 566 267 l 566 625 q 591 708 566 680 q 659 736 617 736 q 725 708 700 736 q 750 625 750 681 l 750 89 q 726 9 750 36 q 664 -17 702 -17 q 601 11 626 -17 q 576 87 576 38 m 454 863 l 386 942 l 318 863 q 279 821 290 829 q 241 814 269 814 l 187 814 q 159 823 159 814 q 180 857 159 831 l 256 947 q 277 974 265 959 q 299 996 290 989 q 326 1006 308 1002 q 366 1010 343 1010 l 404 1010 q 466 999 449 1010 q 515 947 482 988 l 593 856 q 612 825 612 830 q 582 814 612 814 l 530 814 q 498 820 510 814 q 475 838 486 825 q 454 863 465 850 z "},"ü":{"ha":839,"x_min":90,"x_max":750,"o":"m 576 87 l 576 111 q 507 41 543 69 q 427 -2 470 12 q 328 -16 383 -16 q 207 12 260 -16 q 125 89 154 40 q 90 258 90 148 l 90 625 q 115 708 90 681 q 182 736 140 736 q 250 708 224 736 q 275 625 275 680 l 275 329 q 286 221 275 264 q 325 152 297 177 q 401 127 353 127 q 490 155 448 127 q 550 228 531 183 q 566 400 566 267 l 566 625 q 591 708 566 680 q 659 736 617 736 q 725 708 700 736 q 750 625 750 681 l 750 89 q 726 9 750 36 q 664 -17 702 -17 q 601 11 626 -17 q 576 87 576 38 m 254 827 q 201 847 224 827 q 178 903 178 867 q 200 958 178 937 q 254 979 222 979 q 307 960 284 979 q 330 903 330 941 q 307 847 330 867 q 254 827 284 827 m 518 979 q 555 969 537 979 q 584 941 574 959 q 594 903 594 922 q 572 847 594 867 q 518 827 549 827 q 465 847 488 827 q 441 903 441 867 q 465 956 441 933 q 518 979 488 979 z "},"†":{"ha":825,"x_min":52,"x_max":775,"o":"m 329 -164 l 329 568 l 140 568 q 74 588 96 568 q 52 640 52 608 q 74 693 52 673 q 140 713 97 713 l 329 713 l 329 900 q 352 978 329 952 q 412 1003 375 1003 q 474 978 450 1003 q 497 900 497 952 l 497 713 l 686 713 q 753 693 731 713 q 775 640 775 673 q 753 588 775 608 q 686 568 730 568 l 497 568 l 497 -164 q 474 -241 497 -216 q 412 -267 450 -267 q 352 -241 375 -267 q 329 -164 329 -216 z "},"°":{"ha":550,"x_min":58,"x_max":492,"o":"m 58 794 q 76 880 58 839 q 123 949 94 920 q 192 995 153 978 q 275 1011 231 1011 q 383 982 333 1011 q 463 903 433 954 q 492 794 492 853 q 463 686 492 736 q 384 608 433 636 q 275 579 334 579 q 122 642 186 579 q 58 794 58 705 m 171 794 q 202 722 171 751 q 275 692 233 692 q 348 721 317 692 q 378 794 378 751 q 364 847 378 823 q 326 885 350 871 q 275 899 302 899 q 202 868 233 899 q 171 794 171 837 z "},"¢":{"ha":825,"x_min":60,"x_max":760,"o":"m 637 914 l 574 715 q 668 662 627 695 q 729 591 708 628 q 750 525 750 554 q 725 469 750 492 q 665 446 700 446 q 624 459 637 446 q 582 512 610 473 q 526 570 554 551 l 387 126 q 431 122 418 122 q 523 144 489 122 q 586 212 556 167 q 633 275 616 258 q 681 293 649 293 q 737 268 714 293 q 760 211 760 243 q 739 138 760 178 q 675 64 718 99 q 569 7 633 29 q 424 -16 505 -16 q 345 -9 382 -16 l 283 -201 q 264 -245 275 -229 q 236 -262 252 -262 q 191 -221 191 -262 q 204 -165 191 -210 l 261 12 q 152 89 197 40 q 83 206 106 138 q 60 357 60 274 q 71 465 60 414 q 103 558 81 515 q 157 636 125 601 q 231 694 189 671 q 320 726 272 717 q 431 736 369 736 q 489 733 471 736 l 554 937 q 573 978 562 964 q 604 991 585 991 q 644 946 644 991 q 637 914 644 931 m 313 171 l 446 596 q 428 599 432 599 q 334 571 375 599 q 269 489 292 543 q 245 359 245 435 q 313 171 245 227 z "},"£":{"ha":825,"x_min":9,"x_max":827,"o":"m 335 558 l 436 558 q 522 547 492 558 q 553 494 553 536 q 532 448 553 466 q 479 431 512 431 l 359 431 l 359 419 q 329 293 359 351 q 221 150 298 236 q 266 160 243 155 q 315 169 288 165 q 375 172 342 172 q 502 162 420 172 q 610 151 583 151 q 693 165 648 151 q 749 179 737 179 q 803 155 779 179 q 827 97 827 130 q 763 11 827 41 q 628 -20 700 -20 q 378 28 584 -20 q 359 33 372 29 q 328 40 347 37 q 282 43 309 43 q 232 35 254 43 q 157 5 210 26 q 85 -17 104 -17 q 34 6 59 -17 q 9 68 9 30 q 18 98 9 82 q 46 133 27 113 q 103 186 65 153 q 161 268 138 215 q 184 371 184 320 q 178 431 184 389 l 121 431 q 45 443 71 431 q 20 492 20 455 q 106 558 20 558 l 146 558 q 113 725 113 664 q 152 873 113 808 q 264 976 191 939 q 432 1013 338 1013 q 575 992 515 1013 q 681 924 635 971 q 760 749 760 842 q 734 690 760 715 q 671 664 708 664 q 583 737 605 664 q 529 841 564 808 q 437 875 495 875 q 337 834 375 875 q 298 730 298 794 q 307 658 298 692 q 335 558 315 625 z "},"§":{"ha":825,"x_min":54,"x_max":771,"o":"m 117 789 q 150 900 117 848 q 249 982 184 951 q 404 1013 315 1013 q 527 995 471 1013 q 624 948 584 977 q 684 883 663 918 q 705 814 705 848 q 682 766 705 787 q 628 745 658 745 q 584 759 600 745 q 540 806 568 772 q 485 857 513 840 q 411 875 456 875 q 328 850 359 875 q 297 791 297 825 q 323 732 297 757 q 413 673 350 707 q 496 627 475 640 q 603 564 555 591 q 688 504 650 536 q 749 430 727 472 q 771 330 771 387 q 736 215 771 267 q 636 126 702 163 q 728 -53 728 50 q 707 -145 728 -102 q 646 -222 686 -189 q 551 -273 606 -255 q 431 -292 496 -292 q 291 -270 351 -292 q 187 -212 231 -249 q 122 -133 143 -174 q 102 -56 102 -92 q 126 4 102 -22 q 187 31 151 31 q 216 25 201 31 q 237 11 231 19 q 286 -64 271 -32 q 425 -154 326 -154 q 514 -124 480 -154 q 547 -56 547 -95 q 528 -5 547 -28 q 474 43 509 18 q 365 112 438 67 q 216 205 292 157 q 157 246 188 224 q 104 292 127 267 q 67 350 81 317 q 54 428 54 383 q 197 627 54 551 q 117 789 117 696 m 289 551 q 210 447 210 500 q 230 395 210 419 q 283 350 250 372 q 389 285 317 328 q 446 251 410 273 q 518 210 483 229 q 599 313 599 267 q 585 358 599 337 q 546 397 570 378 q 485 438 522 416 q 392 493 449 460 q 323 533 346 519 q 289 551 300 546 z "},"•":{"ha":492,"x_min":46,"x_max":447,"o":"m 447 490 q 387 349 447 407 q 245 290 328 290 q 104 349 163 290 q 46 490 46 407 q 104 632 46 573 q 245 692 162 692 q 346 665 299 692 q 420 591 393 637 q 447 490 447 544 z "},"¶":{"ha":782,"x_min":1,"x_max":764,"o":"m 578 940 l 450 940 l 450 -271 l 380 -271 l 380 342 q 295 349 332 344 q 221 365 258 353 q 151 395 184 376 q 92 440 119 414 q 1 671 1 530 q 122 932 1 840 q 251 983 174 972 q 472 994 328 994 l 764 994 l 764 940 l 648 940 l 648 -271 l 578 -271 l 578 940 z "},"ß":{"ha":825,"x_min":82,"x_max":778,"o":"m 479 796 q 454 855 479 832 q 383 878 428 878 q 312 856 339 878 q 274 791 285 833 q 262 688 262 748 l 262 93 q 237 11 262 39 q 172 -17 212 -17 q 107 11 132 -17 q 82 93 82 39 l 82 673 q 85 750 82 715 q 97 818 88 785 q 122 879 106 851 q 226 979 161 947 q 387 1011 291 1011 q 537 985 475 1011 q 629 914 598 959 q 660 812 660 869 q 645 737 660 778 q 606 664 629 696 q 561 561 561 603 q 636 454 561 521 q 718 370 688 408 q 763 293 747 332 q 778 208 778 254 q 747 93 778 145 q 664 12 717 41 q 545 -17 610 -17 q 430 7 481 -17 q 350 65 379 31 q 321 131 321 100 q 341 179 321 159 q 392 200 362 200 q 457 158 428 200 q 529 117 486 117 q 587 142 562 117 q 611 201 611 167 q 579 277 611 236 q 498 354 547 319 q 414 440 448 392 q 380 524 380 488 q 431 664 380 585 q 479 796 479 742 z "},"®":{"ha":1028,"x_min":-5,"x_max":1034,"o":"m 392 214 l 279 214 l 279 765 l 541 765 q 643 746 602 765 q 705 691 684 726 q 726 608 726 655 q 687 508 726 550 q 578 456 648 465 q 636 415 614 442 q 694 325 658 389 l 760 214 l 621 214 l 575 302 q 521 391 543 362 q 476 430 498 420 q 421 440 454 440 l 392 440 l 392 214 m 392 677 l 392 528 l 482 528 q 575 544 543 528 q 607 607 607 559 q 579 659 607 640 q 493 677 551 677 l 392 677 m 514 1011 q 715 971 621 1011 q 882 860 810 932 q 994 693 954 787 q 1034 492 1034 598 q 964 231 1034 351 q 775 42 895 111 q 514 -28 655 -28 q 253 42 373 -28 q 64 231 134 111 q -5 492 -5 351 q 64 752 -5 633 q 253 942 134 872 q 514 1011 373 1011 m 515 909 q 306 853 402 909 q 153 701 210 798 q 97 492 97 605 q 154 282 97 378 q 307 130 210 185 q 515 74 403 74 q 725 130 630 74 q 876 282 821 186 q 932 492 932 378 q 876 702 932 606 q 725 854 821 798 q 515 909 629 909 z "},"©":{"ha":1028,"x_min":-5,"x_max":1034,"o":"m 750 615 l 639 589 q 518 684 603 684 q 416 633 453 684 q 379 500 379 583 q 395 389 379 434 q 440 321 410 344 q 513 298 471 298 q 640 415 606 298 l 750 378 q 510 201 696 201 q 386 234 444 201 q 294 333 329 267 q 260 492 260 399 q 292 643 260 578 q 383 743 323 707 q 522 779 442 779 q 750 615 690 779 m 514 1011 q 715 971 621 1011 q 882 860 810 932 q 994 693 954 787 q 1034 492 1034 598 q 963 232 1034 352 q 774 43 893 113 q 514 -26 654 -26 q 253 43 372 -26 q 64 232 134 112 q -5 492 -5 351 q 64 752 -5 633 q 253 942 134 872 q 514 1011 373 1011 m 514 909 q 304 853 399 909 q 153 701 209 797 q 97 492 97 605 q 153 282 97 378 q 304 131 209 187 q 514 75 400 75 q 724 131 627 75 q 876 282 820 186 q 932 492 932 377 q 876 701 932 604 q 723 853 819 797 q 514 909 627 909 z "},"™":{"ha":1389,"x_min":147,"x_max":1219,"o":"m 432 439 l 319 439 l 319 897 l 147 897 l 147 994 l 599 994 l 599 897 l 432 897 l 432 439 m 771 439 l 665 439 l 665 994 l 842 994 l 942 611 l 1043 994 l 1219 994 l 1219 439 l 1112 439 l 1112 882 l 991 439 l 890 439 l 771 882 l 771 439 z "},"´":{"ha":463,"x_min":132,"x_max":412,"o":"m 286 1002 l 378 1002 q 412 991 412 1002 q 374 947 412 986 q 298 873 336 909 q 244 831 259 838 q 161 811 205 811 q 132 828 132 811 q 150 868 132 840 l 180 925 q 227 988 207 975 q 286 1002 246 1002 z "},"¨":{"ha":463,"x_min":24,"x_max":440,"o":"m 100 827 q 47 847 71 827 q 24 903 24 867 q 46 958 24 937 q 100 979 68 979 q 153 960 130 979 q 176 903 176 941 q 153 847 176 867 q 100 827 130 827 m 364 979 q 401 969 383 979 q 430 941 420 959 q 440 903 440 922 q 418 847 440 867 q 364 827 395 827 q 311 847 334 827 q 288 903 288 867 q 311 956 288 933 q 364 979 334 979 z "},"≠":{"ha":762,"x_min":21,"x_max":750,"o":"m 558 762 l 627 724 l 521 534 l 750 534 l 750 458 l 479 458 l 371 265 l 750 265 l 750 189 l 329 189 l 204 -35 l 136 4 l 239 189 l 21 189 l 21 265 l 282 265 l 389 458 l 21 458 l 21 534 l 432 534 l 558 762 z "},"Æ":{"ha":1375,"x_min":-4,"x_max":1328,"o":"m 627 239 l 269 239 l 208 98 q 157 14 185 44 q 83 -17 129 -17 q 20 5 43 -17 q -4 57 -4 27 q -1 92 -4 77 q 6 114 2 106 q 22 150 9 123 l 355 873 q 396 954 384 934 q 430 984 408 973 q 497 994 452 994 l 1217 994 q 1288 973 1264 994 q 1311 917 1311 951 q 1288 863 1311 883 q 1217 843 1265 843 l 821 843 l 821 595 l 1182 595 q 1251 574 1228 595 q 1274 518 1274 553 q 1251 463 1274 484 q 1182 443 1227 443 l 821 443 l 821 151 l 1231 151 q 1304 132 1280 151 q 1328 78 1328 113 q 1304 21 1328 42 q 1231 0 1280 0 l 747 0 q 655 28 684 0 q 627 118 627 56 l 627 239 m 335 399 l 627 399 l 627 850 l 530 850 l 335 399 z "},"Ø":{"ha":1100,"x_min":62,"x_max":1038,"o":"m 129 146 l 153 171 q 85 320 107 237 q 62 500 62 403 q 95 710 62 614 q 191 873 128 806 q 342 976 253 940 q 546 1011 432 1011 q 720 988 644 1011 q 860 917 797 966 l 878 936 q 943 997 920 981 q 989 1013 966 1013 q 1024 998 1010 1013 q 1038 960 1038 984 q 975 854 1038 919 l 947 825 q 1036 498 1036 694 q 1005 289 1036 383 q 911 125 974 195 q 758 20 849 56 q 550 -17 667 -17 q 239 78 357 -17 l 224 60 q 190 23 208 42 q 154 -6 172 5 q 113 -17 136 -17 q 77 -1 91 -17 q 62 33 62 14 q 78 85 62 60 q 129 146 94 111 m 296 321 l 732 783 q 651 833 700 814 q 549 851 602 851 q 400 810 464 851 q 301 689 336 769 q 267 500 267 610 q 296 321 267 399 m 803 672 l 368 212 q 549 143 444 143 q 691 182 626 143 q 794 301 755 220 q 832 500 832 382 q 803 672 832 594 z "},"∞":{"ha":990,"x_min":35,"x_max":966,"o":"m 500 412 q 575 478 551 458 q 624 514 600 498 q 680 543 649 530 q 777 562 728 565 q 865 534 825 559 q 931 471 906 509 q 960 387 956 432 q 940 282 966 334 q 866 199 915 231 q 756 174 817 168 q 665 197 709 178 q 591 238 622 216 q 532 290 561 261 q 500 321 503 319 q 462 283 484 304 q 410 238 440 261 q 337 197 380 216 q 245 174 294 178 q 135 199 184 168 q 61 282 86 231 q 41 387 35 334 q 71 471 45 433 q 136 534 96 510 q 225 562 177 559 q 321 543 273 565 q 377 514 352 530 q 426 478 401 498 q 500 412 450 458 m 455 367 q 359 443 395 418 q 290 479 323 468 q 215 488 248 494 q 157 460 181 481 q 122 412 134 439 q 111 359 111 385 q 136 291 111 321 q 197 247 160 260 q 271 243 235 234 q 355 277 326 256 q 455 367 385 298 m 547 367 q 618 299 593 321 q 667 264 643 277 q 730 243 692 252 q 804 247 767 234 q 866 291 842 260 q 891 359 890 321 q 871 429 892 393 q 809 482 850 465 q 711 479 768 498 q 642 442 677 467 q 547 367 606 416 z "},"±":{"ha":810,"x_min":57,"x_max":753,"o":"m 492 241 l 317 241 l 317 500 l 57 500 l 57 677 l 317 677 l 317 936 l 492 936 l 492 677 l 753 677 l 753 500 l 492 500 l 492 241 m 753 0 l 57 0 l 57 178 l 753 178 l 753 0 z "},"≤":{"ha":762,"x_min":40,"x_max":730,"o":"m 40 0 l 40 77 l 730 77 l 730 0 l 40 0 m 40 482 l 40 568 l 730 888 l 730 802 l 129 525 l 730 249 l 730 163 l 40 482 z "},"≥":{"ha":762,"x_min":40,"x_max":730,"o":"m 730 77 l 730 0 l 40 0 l 40 77 l 730 77 m 730 568 l 730 482 l 40 163 l 40 249 l 642 525 l 40 802 l 40 888 l 730 568 z "},"¥":{"ha":868,"x_min":39,"x_max":829,"o":"m 195 301 l 347 301 l 347 399 l 195 399 q 98 463 98 399 q 195 525 98 525 l 281 525 l 78 843 q 46 897 54 881 q 39 933 39 913 q 60 990 39 968 q 115 1011 81 1011 q 171 990 150 1011 q 221 922 193 969 l 440 579 l 636 903 q 659 942 647 922 q 683 978 671 963 q 712 1002 694 992 q 753 1011 729 1011 q 808 990 787 1011 q 829 940 829 970 q 821 897 829 916 q 794 847 812 877 l 599 525 l 685 525 q 781 463 781 525 q 685 399 781 399 l 532 399 l 532 301 l 685 301 q 781 237 781 301 q 685 175 781 175 l 532 175 l 532 121 q 440 -17 532 -17 q 347 121 347 -17 l 347 175 l 195 175 q 98 237 98 175 q 195 301 98 301 z "},"µ":{"ha":854,"x_min":103,"x_max":758,"o":"m 581 0 l 581 87 q 514 7 552 33 q 436 -18 475 -18 q 349 10 380 -18 q 292 87 318 38 l 292 -277 l 103 -277 l 103 720 l 292 720 l 292 395 q 302 253 292 353 q 343 172 308 208 q 427 136 378 136 q 528 190 490 136 q 566 350 566 243 l 566 720 l 758 720 l 758 0 l 581 0 z "},"∂":{"ha":686,"x_min":36,"x_max":646,"o":"m 149 926 l 95 996 q 215 1031 146 1019 q 347 1028 283 1043 q 474 968 416 1012 q 580 842 533 924 q 623 730 608 792 q 642 622 638 669 q 646 546 646 574 q 640 449 646 514 q 616 310 633 384 q 574 182 600 235 q 512 73 542 113 q 430 4 483 34 q 289 -29 361 -34 q 159 16 216 -24 q 104 63 128 37 q 63 129 81 90 q 42 216 46 168 q 60 355 36 292 q 119 460 85 418 q 205 534 158 508 q 316 558 253 560 q 416 537 376 556 q 524 464 456 518 q 539 625 536 531 q 526 740 541 669 q 495 846 511 810 q 438 925 479 886 q 340 970 397 965 q 279 972 302 973 q 241 966 256 970 q 197 948 225 961 q 149 926 170 935 m 513 415 q 445 483 473 460 q 363 504 416 505 q 230 429 283 502 q 188 354 202 390 q 166 282 173 319 q 160 205 160 245 q 172 107 160 155 q 224 32 184 60 q 281 12 254 13 q 340 25 308 12 q 452 154 410 56 q 491 280 476 214 q 513 415 505 347 z "},"∑":{"ha":990,"x_min":20,"x_max":965,"o":"m 857 1035 l 865 814 l 838 814 q 803 908 816 883 q 750 953 791 933 q 625 972 709 972 l 260 972 l 639 475 l 231 4 l 746 4 q 833 17 802 4 q 885 62 863 31 q 933 161 907 94 l 965 161 q 927 -5 935 36 q 905 -150 920 -45 q 851 -140 879 -145 q 799 -135 823 -135 l 100 -135 q 75 -136 90 -135 q 44 -138 60 -137 q 20 -139 29 -139 l 504 414 l 22 1044 q 94 1039 44 1043 q 167 1035 143 1035 l 857 1035 z "},"∏":{"ha":1143,"x_min":35,"x_max":1116,"o":"m 981 873 l 981 4 q 997 -67 981 -43 q 1042 -100 1013 -92 q 1116 -109 1072 -109 l 1116 -140 l 690 -140 l 690 -109 q 791 -86 758 -109 q 823 4 823 -64 l 823 966 l 326 966 l 326 4 q 342 -67 326 -43 q 388 -100 358 -92 q 461 -109 417 -109 l 461 -140 l 35 -140 l 35 -109 q 137 -86 104 -109 q 170 4 170 -64 l 170 873 q 37 1011 170 1011 l 37 1043 l 1111 1043 l 1111 1011 q 981 873 981 1011 z "},"π":{"ha":762,"x_min":14,"x_max":736,"o":"m 465 557 l 309 557 q 286 333 297 420 q 265 183 275 246 q 244 69 255 121 q 218 6 235 29 q 168 -25 201 -16 q 114 -14 141 -32 q 82 28 87 3 q 80 59 78 46 q 87 82 82 71 q 100 102 93 93 q 114 119 106 111 q 137 147 116 122 q 170 193 159 172 q 183 239 180 214 l 224 557 l 158 557 q 105 544 130 557 q 66 513 80 530 l 37 469 l 14 469 q 37 533 23 496 q 77 604 52 570 q 130 655 96 633 q 207 676 163 676 l 725 676 l 725 557 l 550 557 q 533 231 533 395 q 543 172 533 201 q 568 129 553 144 q 615 106 587 111 q 671 123 642 101 q 693 151 686 136 q 703 181 701 167 q 707 210 705 195 l 736 210 q 719 108 735 153 q 680 36 703 63 q 636 -4 658 8 q 579 -22 612 -19 q 519 -7 547 -25 q 452 96 475 26 q 437 203 439 136 q 441 334 435 270 l 465 557 z "},"∫":{"ha":380,"x_min":3,"x_max":414,"o":"m 268 677 l 267 378 q 219 -29 265 131 q 179 -114 205 -81 q 128 -142 168 -129 q 57 -142 88 -156 q 29 -117 42 -134 q 11 -87 16 -100 q 11 -43 3 -64 q 44 -11 19 -23 q 85 -7 67 1 q 123 -39 103 -16 q 156 -41 143 -59 q 175 15 170 -24 q 179 103 180 53 q 176 199 178 155 q 174 280 175 243 q 172 390 172 317 q 171 539 171 464 l 171 739 q 172 869 171 800 q 177 992 174 939 q 188 1087 181 1046 q 207 1169 195 1128 q 232 1220 214 1192 q 269 1260 251 1249 q 308 1272 287 1271 q 348 1266 328 1273 q 378 1253 368 1259 q 405 1212 396 1241 q 396 1160 414 1183 q 367 1140 386 1147 q 329 1134 348 1132 q 297 1150 310 1136 q 270 1166 282 1165 q 250 1159 257 1168 q 241 1136 243 1149 q 243 1094 241 1118 q 252 976 245 1069 q 264 811 260 884 q 268 677 268 739 z "},"ª":{"ha":521,"x_min":24,"x_max":494,"o":"m 355 607 q 271 563 307 576 q 183 549 234 549 q 68 587 112 549 q 24 681 24 626 q 48 756 24 728 q 113 798 72 785 q 236 828 153 812 q 340 850 318 844 q 323 901 338 885 q 261 917 309 917 q 192 905 207 917 q 154 863 176 893 q 103 832 132 832 q 62 846 80 832 q 45 884 45 861 q 68 944 45 915 q 140 992 92 974 q 261 1011 189 1011 q 427 970 380 1011 q 473 833 473 930 q 473 765 473 791 q 472 708 473 739 q 483 647 472 679 q 494 602 494 614 q 475 563 494 579 q 431 547 456 547 q 404 555 417 547 q 379 576 390 564 q 355 607 368 589 m 342 755 l 342 764 q 266 747 335 762 q 178 721 196 731 q 160 689 160 711 q 178 652 160 667 q 225 637 195 637 q 311 667 279 637 q 342 755 342 696 z "},"º":{"ha":534,"x_min":24,"x_max":513,"o":"m 513 779 q 483 659 513 711 q 398 578 453 607 q 268 549 343 549 q 90 613 157 549 q 24 779 24 677 q 54 901 24 848 q 139 983 83 954 q 268 1013 195 1013 q 397 983 341 1013 q 483 901 452 954 q 513 779 513 848 m 376 779 q 348 876 376 842 q 268 911 319 911 q 189 876 218 911 q 160 779 160 842 q 189 684 160 718 q 268 650 217 650 q 348 684 319 650 q 376 779 376 718 z "},"Ω":{"ha":1067,"x_min":47,"x_max":1022,"o":"m 435 211 l 457 0 l 47 0 l 47 225 l 68 225 q 99 156 81 172 q 160 140 116 140 l 379 140 l 376 179 q 278 215 316 197 q 205 262 239 233 q 144 330 172 290 q 83 474 98 400 q 80 618 68 549 q 122 741 92 688 q 194 836 157 805 q 281 895 231 866 q 396 939 328 922 q 534 956 464 956 q 674 939 606 956 q 789 895 742 922 q 875 836 838 866 q 947 741 911 806 q 989 618 977 688 q 986 474 1001 549 q 925 330 972 400 q 832 238 884 271 q 693 179 779 205 l 690 140 l 909 140 q 971 157 954 140 q 1002 225 989 174 l 1022 225 l 1022 0 l 612 0 l 635 211 q 672 228 652 218 q 714 252 693 237 q 758 296 735 267 q 799 370 780 326 q 831 516 824 428 q 816 693 838 604 q 736 839 793 782 q 534 911 664 911 q 334 839 405 911 q 254 693 276 782 q 238 516 231 604 q 271 370 245 428 q 312 296 290 326 q 355 252 334 267 q 397 227 377 236 q 435 211 416 218 z "},"æ":{"ha":1287,"x_min":58,"x_max":1227,"o":"m 873 737 q 1062 696 985 737 q 1189 567 1140 654 q 1227 427 1227 498 q 1104 315 1227 315 l 720 315 q 744 203 722 250 q 806 133 766 157 q 900 109 845 109 q 998 129 950 109 q 1068 179 1045 150 q 1119 233 1101 220 q 1158 245 1137 245 q 1221 172 1221 245 q 1204 125 1221 157 q 1149 61 1187 94 q 1050 6 1112 28 q 904 -17 988 -17 q 781 -5 835 -17 q 687 33 728 7 q 612 100 646 58 q 307 -17 472 -17 q 124 42 189 -17 q 58 189 58 102 q 271 400 58 357 q 545 465 511 448 l 545 473 q 519 577 545 546 q 406 608 494 608 q 305 588 338 608 q 249 525 273 567 q 212 468 225 482 q 160 453 199 453 q 106 473 126 453 q 86 526 86 493 q 122 630 86 582 q 230 708 157 679 q 406 737 302 737 q 552 720 495 737 q 653 657 608 702 q 757 718 706 699 q 873 737 808 737 m 720 421 l 1053 421 q 1003 561 1046 514 q 888 608 960 608 q 766 554 812 608 q 720 425 720 499 l 720 421 m 545 304 l 545 354 q 414 322 511 344 q 280 277 316 300 q 244 204 244 254 q 276 133 244 162 q 364 103 309 103 q 458 127 415 103 q 522 189 502 151 q 541 239 538 216 q 545 304 545 262 z "},"ø":{"ha":839,"x_min":39,"x_max":800,"o":"m 757 628 l 722 593 q 789 359 789 492 q 763 207 789 276 q 689 87 738 138 q 571 10 640 37 q 419 -17 503 -17 q 291 3 352 -17 q 183 57 229 22 l 158 32 q 114 -10 128 2 q 86 -22 100 -22 q 52 -9 66 -22 q 39 21 39 3 q 49 56 39 41 q 86 98 59 71 l 117 129 q 52 359 52 228 q 77 513 52 444 q 151 633 103 583 q 268 709 199 682 q 419 736 336 736 q 549 718 488 736 q 656 664 609 699 l 689 699 q 725 730 711 720 q 757 741 739 741 q 787 728 774 741 q 800 694 800 715 q 790 663 800 677 q 757 628 779 649 m 589 461 l 298 171 q 419 121 347 121 q 553 184 503 121 q 603 359 603 248 q 589 461 603 413 m 250 261 l 541 550 q 419 599 492 599 q 323 571 365 599 q 260 488 282 543 q 237 359 237 433 q 250 261 237 308 z "},"¿":{"ha":796,"x_min":58,"x_max":734,"o":"m 734 -7 q 712 -102 734 -52 q 645 -195 690 -152 q 535 -264 600 -239 q 387 -290 470 -290 q 215 -254 290 -290 q 99 -156 139 -218 q 58 -21 58 -94 q 72 58 58 21 q 111 125 86 95 q 156 174 136 156 q 252 261 176 193 q 308 325 296 302 q 330 401 320 349 q 411 471 344 471 q 471 448 447 471 q 494 379 494 425 q 484 300 494 334 q 455 239 473 267 q 415 190 436 212 q 351 132 393 169 q 269 51 293 81 q 244 -20 244 20 q 284 -110 244 -73 q 387 -147 324 -147 q 472 -128 439 -147 q 524 -76 505 -109 q 557 1 543 -44 q 590 58 570 39 q 646 78 609 78 q 709 51 684 78 q 734 -7 734 24 m 406 736 q 477 709 448 736 q 507 635 507 682 q 493 586 507 610 q 454 548 478 562 q 406 533 431 533 q 354 547 377 533 q 316 583 330 560 q 302 635 302 606 q 333 709 302 683 q 406 736 363 736 z "},"¡":{"ha":463,"x_min":129,"x_max":334,"o":"m 232 736 q 304 709 274 736 q 334 635 334 682 q 303 563 334 593 q 231 533 273 533 q 161 565 193 533 q 129 635 129 597 q 159 709 129 683 q 232 736 189 736 m 304 290 l 328 -36 q 334 -171 334 -134 q 305 -260 334 -228 q 227 -292 276 -292 q 150 -251 170 -292 q 129 -134 129 -210 q 134 -45 129 -96 l 163 290 q 182 383 168 351 q 233 415 197 415 q 285 383 270 415 q 304 290 300 351 z "},"¬":{"ha":810,"x_min":57,"x_max":753,"o":"m 753 256 l 578 256 l 578 553 l 57 553 l 57 730 l 753 730 l 753 256 z "},"√":{"ha":762,"x_min":14,"x_max":715,"o":"m 36 579 l 14 625 l 216 725 l 490 165 l 667 1274 l 715 1267 l 507 -53 l 170 644 l 36 579 z "},"ƒ":{"ha":825,"x_min":-21,"x_max":803,"o":"m 298 528 l 334 528 l 372 742 q 399 859 387 817 q 438 936 411 900 q 512 991 465 972 q 633 1010 559 1010 q 757 989 711 1010 q 803 926 803 968 q 775 873 803 884 q 696 872 747 863 q 643 880 646 880 q 588 862 607 880 q 559 808 570 844 q 534 681 549 773 q 507 528 519 589 l 550 528 q 625 515 598 528 q 652 463 652 503 q 624 410 652 425 q 541 395 596 395 l 484 395 l 410 -31 q 384 -138 399 -92 q 341 -218 369 -184 q 268 -271 314 -252 q 151 -290 222 -290 q 25 -269 71 -290 q -21 -210 -21 -248 q -2 -165 -21 -182 q 49 -149 16 -149 q 84 -155 55 -149 q 131 -161 113 -161 q 204 -132 185 -161 q 236 -35 224 -102 l 310 395 l 283 395 q 206 408 233 395 q 179 456 179 422 q 210 512 179 497 q 298 528 241 528 z "},"≈":{"ha":762,"x_min":20,"x_max":732,"o":"m 681 547 l 732 514 q 621 420 692 448 q 485 411 549 393 l 277 471 q 197 478 232 484 q 138 458 161 473 q 101 425 115 443 q 79 397 87 408 l 20 435 q 143 531 73 506 q 290 534 214 556 l 500 476 q 610 489 546 463 q 681 547 654 508 m 681 338 l 732 304 q 621 210 692 237 q 485 201 549 183 l 277 261 q 197 269 232 274 q 138 249 161 264 q 100 214 115 233 q 79 187 85 195 l 20 225 q 143 321 73 296 q 290 325 214 347 l 500 267 q 610 279 546 253 q 681 338 654 298 z "},"∆":{"ha":850,"x_min":8,"x_max":844,"o":"m 453 956 l 844 0 l 8 0 l 453 956 m 403 718 l 100 68 l 672 68 l 403 718 z "},"«":{"ha":825,"x_min":100,"x_max":705,"o":"m 368 551 l 245 355 l 375 150 q 393 102 393 124 q 375 60 393 77 q 330 43 357 43 q 293 56 310 43 q 250 107 275 70 l 129 289 q 100 354 100 334 q 129 424 100 378 l 254 611 q 329 667 291 667 q 373 650 355 667 q 392 610 392 633 q 384 578 392 591 q 368 551 376 564 m 679 551 l 557 355 l 686 150 q 705 102 705 119 q 687 60 705 77 q 642 43 669 43 q 603 56 621 43 q 561 107 586 70 l 441 289 q 411 354 411 338 q 441 424 411 376 l 566 611 q 642 667 601 667 q 685 650 667 667 q 704 610 704 633 q 701 588 704 597 q 693 573 697 578 q 679 551 689 567 z "},"»":{"ha":825,"x_min":119,"x_max":725,"o":"m 450 150 l 579 355 l 457 551 q 444 570 449 562 q 436 587 439 577 q 432 610 432 597 q 451 650 432 633 q 494 667 470 667 q 571 611 534 667 l 694 424 q 718 386 710 400 q 725 354 725 371 q 694 289 725 334 l 575 107 q 533 56 551 70 q 494 43 515 43 q 449 60 468 43 q 431 102 431 77 q 450 150 431 125 m 139 150 l 268 355 l 146 551 q 133 571 139 562 q 124 589 127 579 q 121 610 121 600 q 140 650 121 633 q 183 667 159 667 q 258 611 222 667 l 383 424 q 412 354 412 381 q 383 289 412 333 l 264 107 q 221 56 239 70 q 183 43 203 43 q 138 60 156 43 q 119 102 119 77 q 139 150 119 122 z "},"…":{"ha":1389,"x_min":131,"x_max":1260,"o":"m 694 -16 q 623 12 654 -16 q 593 86 593 39 q 622 158 593 128 q 694 187 652 187 q 767 158 737 187 q 798 86 798 128 q 766 11 798 38 q 694 -16 735 -16 m 232 -16 q 161 11 191 -16 q 131 86 131 38 q 160 158 131 129 q 232 187 189 187 q 305 158 275 187 q 335 86 335 128 q 304 11 335 38 q 232 -16 273 -16 m 1157 -16 q 1086 12 1117 -16 q 1055 86 1055 39 q 1085 158 1055 128 q 1157 187 1114 187 q 1230 158 1200 187 q 1260 86 1260 128 q 1229 12 1260 39 q 1157 -16 1198 -16 z "}," ":{"ha":347,"x_min":0,"x_max":0,"o":""},"À":{"ha":999,"x_min":37,"x_max":960,"o":"m 745 113 l 697 237 l 293 237 l 245 110 q 198 9 218 35 q 134 -17 178 -17 q 66 11 96 -17 q 37 74 37 39 q 44 116 37 94 q 66 176 51 138 l 321 822 q 347 889 332 850 q 379 954 362 928 q 425 995 397 979 q 494 1011 453 1011 q 565 995 536 1011 q 610 954 593 979 q 639 900 627 929 q 669 823 651 871 l 929 182 q 960 75 960 109 q 931 12 960 41 q 861 -17 902 -17 q 821 -8 838 -17 q 792 15 804 0 q 767 59 781 29 q 745 113 754 90 m 346 389 l 643 389 l 493 799 l 346 389 m 519 1177 l 550 1120 q 568 1080 568 1090 q 539 1063 568 1063 q 456 1082 494 1063 q 362 1163 437 1092 q 288 1243 288 1234 q 322 1253 288 1253 l 414 1253 q 474 1239 454 1253 q 519 1177 494 1225 z "},"Ã":{"ha":999,"x_min":37,"x_max":960,"o":"m 745 113 l 697 237 l 293 237 l 245 110 q 198 9 218 35 q 134 -17 178 -17 q 66 11 96 -17 q 37 74 37 39 q 44 116 37 94 q 66 176 51 138 l 321 822 q 347 889 332 850 q 379 954 362 928 q 425 995 397 979 q 494 1011 453 1011 q 565 995 536 1011 q 610 954 593 979 q 639 900 627 929 q 669 823 651 871 l 929 182 q 960 75 960 109 q 931 12 960 41 q 861 -17 902 -17 q 821 -8 838 -17 q 792 15 804 0 q 767 59 781 29 q 745 113 754 90 m 346 389 l 643 389 l 493 799 l 346 389 m 355 1141 q 309 1095 321 1141 q 272 1055 296 1055 q 245 1068 257 1055 q 233 1107 233 1082 q 248 1173 233 1141 q 290 1223 263 1204 q 347 1242 317 1242 q 404 1233 378 1242 q 474 1204 430 1224 q 534 1178 517 1184 q 570 1173 550 1173 q 601 1182 589 1173 q 618 1218 612 1192 q 654 1257 629 1257 q 682 1243 670 1257 q 693 1204 693 1229 q 664 1119 693 1166 q 575 1071 635 1071 q 528 1079 552 1071 q 460 1105 503 1086 q 397 1133 418 1124 q 355 1141 376 1141 z "},"Õ":{"ha":1100,"x_min":62,"x_max":1036,"o":"m 546 1011 q 811 948 701 1011 q 979 770 922 886 q 1036 498 1036 654 q 1005 289 1036 383 q 911 125 974 195 q 758 20 849 56 q 550 -17 667 -17 q 341 21 433 -17 q 187 127 249 58 q 94 292 125 195 q 62 500 62 388 q 95 710 62 614 q 191 873 128 806 q 342 976 253 940 q 546 1011 432 1011 m 832 500 q 797 689 832 609 q 696 810 762 769 q 546 851 631 851 q 434 828 486 851 q 346 762 383 806 q 288 651 309 719 q 267 500 267 584 q 288 347 267 415 q 348 233 309 278 q 438 165 387 188 q 549 143 488 143 q 691 182 626 143 q 794 301 755 220 q 832 500 832 382 m 463 1141 q 416 1095 428 1141 q 379 1055 404 1055 q 352 1068 364 1055 q 340 1107 340 1082 q 355 1173 340 1141 q 397 1223 370 1204 q 454 1242 424 1242 q 511 1233 485 1242 q 581 1204 537 1224 q 641 1178 625 1184 q 677 1173 657 1173 q 708 1182 696 1173 q 725 1218 719 1192 q 762 1257 736 1257 q 789 1243 777 1257 q 800 1204 800 1229 q 771 1119 800 1166 q 682 1071 743 1071 q 635 1079 659 1071 q 568 1105 610 1086 q 504 1133 525 1124 q 463 1141 483 1141 z "},"Œ":{"ha":1432,"x_min":54,"x_max":1407,"o":"m 876 994 l 1287 994 q 1361 972 1336 994 q 1386 914 1386 950 q 1362 857 1386 878 q 1287 835 1337 835 l 917 835 l 917 599 l 1253 599 q 1326 576 1302 599 q 1350 518 1350 553 q 1326 460 1350 482 q 1253 439 1303 439 l 917 439 l 917 160 l 1310 160 q 1407 79 1407 160 q 1310 0 1407 0 l 872 0 q 769 27 798 0 q 741 121 741 54 q 625 17 690 50 q 460 -17 559 -17 q 292 19 368 -17 q 163 122 216 54 q 82 286 110 191 q 54 497 54 381 q 82 712 54 616 q 163 874 111 808 q 289 976 215 941 q 454 1011 363 1011 q 617 979 551 1011 q 741 880 684 947 q 756 952 741 928 q 800 985 771 977 q 876 994 829 994 m 722 478 l 722 541 q 663 773 722 694 q 493 851 603 851 q 320 763 382 851 q 258 507 258 675 q 274 348 258 416 q 320 234 290 279 q 396 165 351 188 q 496 143 440 143 q 602 171 553 143 q 679 249 651 199 q 722 478 722 323 z "},"œ":{"ha":1331,"x_min":53,"x_max":1279,"o":"m 929 737 q 1121 691 1041 737 q 1240 574 1200 646 q 1279 424 1279 503 q 1156 314 1279 314 l 770 314 q 797 201 774 247 q 858 132 819 155 q 950 109 897 109 q 1049 126 1011 109 q 1113 171 1087 144 q 1161 219 1138 197 q 1207 241 1184 241 q 1251 223 1234 241 q 1268 176 1268 205 q 1235 99 1268 145 q 1132 18 1202 52 q 961 -17 1061 -17 q 797 10 861 -17 q 676 96 733 37 q 414 -17 574 -17 q 228 31 311 -17 q 99 165 145 79 q 53 359 53 252 q 96 554 53 468 q 221 688 140 640 q 411 736 303 736 q 553 710 490 736 q 672 628 616 684 q 787 711 725 684 q 929 737 848 737 m 768 421 l 1103 421 q 1053 562 1096 516 q 937 608 1010 608 q 816 555 863 608 q 768 425 768 501 l 768 421 m 233 357 q 256 231 233 283 q 321 149 279 178 q 418 121 363 121 q 546 183 496 121 q 596 357 596 246 q 574 487 596 431 q 511 570 552 542 q 415 599 470 599 q 282 532 331 599 q 233 357 233 465 z "},"–":{"ha":694,"x_min":-8,"x_max":703,"o":"m 703 289 l -8 289 l -8 414 l 703 414 l 703 289 z "},"—":{"ha":1389,"x_min":-8,"x_max":1397,"o":"m 1397 289 l -8 289 l -8 414 l 1397 414 l 1397 289 z "},"“":{"ha":636,"x_min":62,"x_max":583,"o":"m 175 808 l 184 808 q 254 779 223 808 q 285 705 285 749 q 254 634 285 662 q 178 606 223 606 q 95 645 128 606 q 62 758 62 685 q 91 884 62 825 q 162 977 120 943 q 236 1011 203 1011 q 270 998 258 1011 q 282 965 282 985 q 256 921 282 935 q 199 875 220 901 q 175 808 178 848 m 475 808 l 484 808 q 552 779 522 808 q 583 705 583 749 q 552 633 583 663 q 476 604 522 604 q 393 645 426 604 q 361 758 361 686 q 378 857 361 810 q 421 937 395 903 q 479 991 448 971 q 534 1011 510 1011 q 569 999 557 1011 q 581 965 581 986 q 554 921 581 935 q 498 874 517 900 q 475 808 479 849 z "},"”":{"ha":636,"x_min":52,"x_max":572,"o":"m 161 806 l 151 806 q 82 837 113 806 q 52 909 52 867 q 82 982 52 953 q 158 1011 113 1011 q 241 970 209 1011 q 273 857 273 930 q 245 732 273 791 q 176 639 217 673 q 102 604 135 604 q 67 617 81 604 q 54 650 54 631 q 82 694 54 680 q 138 741 118 715 q 161 806 159 766 m 460 806 l 452 806 q 381 836 413 806 q 350 909 350 867 q 381 982 350 952 q 457 1011 412 1011 q 541 971 509 1011 q 572 857 572 931 q 544 731 572 789 q 475 638 516 673 q 400 604 434 604 q 366 617 378 604 q 353 650 353 630 q 380 694 353 680 q 438 741 419 717 q 460 806 457 765 z "},"‘":{"ha":435,"x_min":111,"x_max":334,"o":"m 224 808 l 233 808 q 303 779 272 808 q 334 705 334 749 q 303 634 334 662 q 227 606 272 606 q 144 645 177 606 q 111 758 111 685 q 140 884 111 825 q 211 977 169 943 q 285 1011 252 1011 q 318 998 305 1011 q 330 965 330 985 q 304 921 330 935 q 248 875 269 901 q 224 808 227 848 z "},"’":{"ha":435,"x_min":111,"x_max":334,"o":"m 221 806 l 211 806 q 142 837 173 806 q 111 909 111 867 q 142 982 111 953 q 218 1011 173 1011 q 277 993 250 1011 q 319 941 304 975 q 334 857 334 907 q 305 731 334 790 q 236 638 277 673 q 161 604 195 604 q 127 617 140 604 q 114 650 114 631 q 142 694 114 680 q 198 741 178 715 q 221 806 218 766 z "},"÷":{"ha":810,"x_min":57,"x_max":753,"o":"m 753 579 l 753 401 l 57 401 l 57 579 l 753 579 m 406 665 q 360 679 382 665 q 324 716 338 693 q 310 761 310 739 q 338 832 310 806 q 406 857 367 857 q 472 831 444 857 q 501 761 501 806 q 473 694 501 722 q 406 665 444 665 m 406 125 q 359 139 382 125 q 323 176 337 154 q 310 221 310 198 q 338 291 310 266 q 406 317 367 317 q 472 291 444 317 q 501 221 501 265 q 473 154 501 182 q 406 125 445 125 z "},"◊":{"ha":686,"x_min":25,"x_max":647,"o":"m 378 0 l 294 0 l 25 524 l 294 1035 l 378 1035 l 647 524 l 378 0 m 564 524 l 336 960 l 109 524 l 336 75 l 564 524 z "},"ÿ":{"ha":753,"x_min":14,"x_max":714,"o":"m 267 -40 l 283 1 l 56 575 q 35 647 35 625 q 47 691 35 671 q 80 724 59 711 q 125 736 102 736 q 185 710 165 736 q 221 637 205 685 l 378 182 l 526 606 q 558 686 544 657 q 588 726 572 715 q 633 736 604 736 q 674 725 654 736 q 704 694 693 713 q 714 654 714 675 q 705 618 711 642 q 690 570 699 594 l 449 -62 q 388 -193 418 -146 q 309 -266 358 -241 q 176 -292 260 -292 q 54 -274 95 -292 q 14 -210 14 -256 q 33 -160 14 -178 q 90 -143 52 -143 q 119 -147 105 -143 q 150 -151 137 -151 q 200 -142 182 -151 q 233 -109 218 -132 q 267 -40 248 -85 m 215 827 q 162 847 186 827 q 139 903 139 867 q 161 958 139 937 q 215 979 184 979 q 269 960 245 979 q 292 903 292 941 q 269 847 292 867 q 215 827 245 827 m 479 979 q 517 969 498 979 q 545 941 535 959 q 555 903 555 922 q 533 847 555 867 q 479 827 511 827 q 426 847 450 827 q 403 903 403 867 q 426 956 403 933 q 479 979 449 979 z "},"Ÿ":{"ha":868,"x_min":29,"x_max":838,"o":"m 330 106 l 330 421 l 87 798 q 42 877 56 848 q 29 926 29 905 q 56 986 29 961 q 122 1011 83 1011 q 185 988 163 1011 q 249 895 206 964 l 435 593 l 623 895 q 651 941 640 922 q 676 977 663 960 q 707 1002 690 994 q 749 1011 724 1011 q 812 986 787 1011 q 838 929 838 962 q 825 876 838 903 q 781 803 812 850 l 532 421 l 532 106 q 503 14 532 44 q 431 -17 475 -17 q 358 13 386 -17 q 330 106 330 43 m 332 1078 q 279 1099 302 1078 q 256 1154 256 1119 q 278 1210 256 1188 q 332 1231 300 1231 q 385 1212 362 1231 q 408 1154 408 1192 q 385 1099 408 1119 q 332 1078 362 1078 m 596 1231 q 633 1221 615 1231 q 662 1192 652 1211 q 672 1154 672 1174 q 650 1099 672 1119 q 596 1078 627 1078 q 543 1099 566 1078 q 519 1154 519 1119 q 543 1208 519 1185 q 596 1231 566 1231 z "},"∕":{"ha":203,"x_min":-241,"x_max":444,"o":"m 421 911 l -144 0 q -195 -37 -166 -37 q -226 -25 -210 -37 q -241 5 -241 -14 q -228 40 -241 20 l 342 958 q 369 1000 359 988 q 400 1011 378 1011 q 433 999 421 1011 q 444 965 444 986 q 421 911 444 949 z "},"€":{"ha":825,"x_min":17,"x_max":793,"o":"m 301 366 q 457 122 325 122 q 548 146 507 122 q 627 257 589 170 q 669 328 651 314 q 707 342 686 342 q 770 318 747 342 q 793 253 793 295 q 695 69 793 153 q 458 -16 597 -16 q 231 79 328 -16 q 115 366 134 174 l 29 366 q 17 383 17 366 q 30 426 17 400 q 52 452 43 452 l 110 452 l 110 476 q 113 562 110 506 l 29 562 q 17 579 17 562 q 30 623 17 597 q 52 648 43 648 l 119 648 q 453 1002 163 1002 q 673 936 581 1002 q 765 772 765 870 q 743 716 765 739 q 690 693 722 693 q 640 711 656 693 q 608 765 624 728 q 562 839 589 813 q 469 864 534 864 q 354 812 395 864 q 302 648 314 760 l 521 648 q 534 631 534 648 q 522 587 534 612 q 500 562 509 562 l 297 562 l 296 496 q 297 452 296 465 l 521 452 q 534 435 534 452 q 522 390 534 415 q 500 366 509 366 l 301 366 z "},"‹":{"ha":507,"x_min":97,"x_max":390,"o":"m 366 551 l 243 355 l 372 150 q 390 102 390 125 q 372 59 390 76 q 328 43 354 43 q 290 56 307 43 q 248 107 273 68 l 126 289 q 97 354 97 334 q 126 424 97 378 l 252 611 q 326 667 287 667 q 370 650 352 667 q 389 610 389 633 q 385 587 389 596 q 376 569 382 578 q 366 551 371 559 z "},"›":{"ha":507,"x_min":117,"x_max":410,"o":"m 136 150 l 265 355 l 143 551 q 131 571 136 562 q 121 589 125 579 q 118 610 118 600 q 137 650 118 633 q 180 667 156 667 q 256 611 219 667 l 380 424 q 410 354 410 381 q 380 289 410 333 l 261 107 q 219 56 237 70 q 180 43 201 43 q 135 60 153 43 q 117 102 117 77 q 136 150 117 125 z "},"":{"ha":825,"x_min":-14,"x_max":725,"o":"m 74 720 l 123 720 l 123 775 q 169 951 123 891 q 339 1011 215 1011 q 466 991 421 1011 q 511 932 511 971 q 499 891 511 903 q 469 877 486 878 q 421 879 452 876 q 387 882 391 882 q 317 853 335 882 q 298 764 298 824 l 298 720 l 343 720 q 449 650 449 720 q 431 611 449 633 q 396 590 416 595 q 343 586 376 586 l 298 586 l 298 90 q 274 9 298 35 q 211 -17 250 -17 q 148 10 172 -17 q 123 90 123 37 l 123 586 l 72 586 q -14 653 -14 586 q 9 702 -14 684 q 74 720 32 720 m 725 615 l 725 92 q 701 10 725 37 q 637 -17 677 -17 q 575 11 600 -17 q 550 92 550 38 l 550 629 q 573 709 550 682 q 637 736 597 736 q 706 705 687 736 q 725 615 725 675 m 637 1003 q 700 977 675 1003 q 725 913 725 950 q 700 846 725 870 q 637 822 674 822 q 576 846 602 822 q 550 913 550 871 q 575 977 550 950 q 637 1003 600 1003 z "},"":{"ha":825,"x_min":-14,"x_max":725,"o":"m 725 907 l 725 92 q 701 11 725 39 q 637 -17 677 -17 q 574 10 599 -17 q 550 92 550 37 l 550 904 q 574 984 550 958 q 637 1011 597 1011 q 725 907 725 1011 m 74 720 l 123 720 l 123 775 q 169 951 123 891 q 339 1011 215 1011 q 466 991 421 1011 q 511 932 511 971 q 499 891 511 903 q 469 877 486 878 q 421 879 452 876 q 387 882 391 882 q 317 853 335 882 q 298 764 298 824 l 298 720 l 343 720 q 449 650 449 720 q 431 611 449 633 q 396 590 416 595 q 343 586 376 586 l 298 586 l 298 90 q 274 9 298 35 q 211 -17 250 -17 q 148 10 172 -17 q 123 90 123 37 l 123 586 l 72 586 q -14 653 -14 586 q 9 702 -14 684 q 74 720 32 720 z "},"‡":{"ha":825,"x_min":52,"x_max":775,"o":"m 329 -164 l 329 -8 l 140 -8 q 74 12 96 -8 q 52 64 52 31 q 74 117 52 97 q 140 136 96 136 l 329 136 l 329 599 l 140 599 q 74 619 97 599 q 52 671 52 639 q 74 723 52 703 q 140 743 96 743 l 329 743 l 329 900 q 352 977 329 951 q 414 1003 376 1003 q 475 977 452 1003 q 497 900 497 951 l 497 743 l 686 743 q 753 724 731 743 q 775 671 775 704 q 753 618 775 638 q 686 599 731 599 l 497 599 l 497 136 l 686 136 q 753 117 731 136 q 775 64 775 97 q 753 12 775 31 q 686 -8 731 -8 l 497 -8 l 497 -164 q 474 -241 497 -215 q 414 -267 451 -267 q 353 -241 376 -267 q 329 -164 329 -215 z "},"∙":{"ha":435,"x_min":115,"x_max":319,"o":"m 115 492 q 129 543 115 519 q 166 579 143 566 q 216 593 189 593 q 289 563 259 593 q 319 492 319 534 q 269 402 319 428 q 166 402 218 376 q 115 492 115 428 z "},"‚":{"ha":435,"x_min":111,"x_max":334,"o":"m 221 -18 q 144 9 176 -18 q 111 86 111 37 q 143 158 111 129 q 218 187 175 187 q 277 170 251 187 q 319 118 304 152 q 334 33 334 83 q 305 -93 334 -34 q 236 -185 277 -151 q 161 -220 195 -220 q 127 -206 140 -220 q 114 -174 114 -192 q 142 -129 114 -146 q 221 -18 221 -85 z "},"„":{"ha":636,"x_min":54,"x_max":575,"o":"m 463 -18 q 385 9 418 -18 q 353 86 353 37 q 385 158 353 129 q 460 187 416 187 q 519 170 492 187 q 560 118 545 152 q 575 33 575 83 q 547 -93 575 -34 q 477 -185 518 -151 q 403 -220 436 -220 q 369 -206 382 -220 q 355 -174 355 -192 q 383 -129 355 -146 q 463 -18 463 -85 m 164 -18 q 87 9 119 -18 q 54 86 54 37 q 86 158 54 129 q 161 187 118 187 q 220 170 194 187 q 262 118 247 152 q 277 33 277 83 q 248 -93 277 -34 q 179 -185 220 -151 q 104 -220 138 -220 q 70 -206 83 -220 q 57 -174 57 -192 q 85 -129 57 -146 q 164 -18 164 -85 z "},"‰":{"ha":1678,"x_min":33,"x_max":1646,"o":"m 458 739 q 401 547 458 610 q 245 484 345 484 q 136 510 184 484 q 60 594 87 537 q 33 733 33 651 q 54 880 33 821 q 122 970 75 939 q 243 1000 170 1000 q 336 984 296 1000 q 404 934 376 968 q 445 852 431 901 q 458 739 458 804 m 332 746 q 313 875 332 835 q 245 916 294 916 q 194 896 213 916 q 167 839 174 877 q 160 743 160 802 q 167 645 160 683 q 193 588 174 607 q 245 568 212 568 q 314 611 296 568 q 332 746 332 654 m 1153 249 q 1096 56 1153 119 q 940 -7 1039 -7 q 830 20 878 -7 q 754 104 781 47 q 726 243 726 160 q 777 442 726 375 q 937 509 827 509 q 1030 492 990 509 q 1098 444 1069 476 q 1139 362 1126 411 q 1153 249 1153 314 m 1026 256 q 1007 384 1026 343 q 940 424 988 424 q 887 405 906 424 q 860 349 868 386 q 852 253 852 312 q 872 120 852 162 q 940 78 891 78 q 1008 121 989 78 q 1026 256 1026 164 m 911 911 l 346 0 q 297 -37 324 -37 q 266 -25 281 -37 q 250 5 250 -14 q 264 40 250 20 l 832 958 q 858 996 847 983 q 890 1008 869 1008 q 923 997 911 1008 q 936 965 936 985 q 911 911 936 951 m 1646 249 q 1619 105 1646 162 q 1545 21 1593 48 q 1432 -7 1496 -7 q 1322 20 1371 -7 q 1246 104 1274 47 q 1219 243 1219 161 q 1269 441 1219 374 q 1429 509 1318 509 q 1590 443 1535 509 q 1646 249 1646 378 m 1520 256 q 1500 384 1520 343 q 1432 424 1481 424 q 1379 405 1398 424 q 1353 348 1360 386 q 1346 253 1346 311 q 1353 156 1346 194 q 1380 98 1360 117 q 1432 78 1399 78 q 1501 121 1482 78 q 1520 256 1520 165 z "},"Â":{"ha":999,"x_min":37,"x_max":960,"o":"m 745 113 l 697 237 l 293 237 l 245 110 q 198 9 218 35 q 134 -17 178 -17 q 66 11 96 -17 q 37 74 37 39 q 44 116 37 94 q 66 176 51 138 l 321 822 q 347 889 332 850 q 379 954 362 928 q 425 995 397 979 q 494 1011 453 1011 q 565 995 536 1011 q 610 954 593 979 q 639 900 627 929 q 669 823 651 871 l 929 182 q 960 75 960 109 q 931 12 960 41 q 861 -17 902 -17 q 821 -8 838 -17 q 792 15 804 0 q 767 59 781 29 q 745 113 754 90 m 346 389 l 643 389 l 493 799 l 346 389 m 532 1114 l 464 1194 l 396 1114 q 357 1073 368 1080 q 319 1065 347 1065 l 265 1065 q 237 1075 237 1065 q 258 1109 237 1082 l 334 1199 q 355 1226 343 1211 q 377 1247 368 1241 q 404 1258 386 1254 q 444 1261 421 1261 l 482 1261 q 544 1251 527 1261 q 593 1199 560 1240 l 671 1107 q 690 1077 690 1082 q 660 1065 690 1065 l 608 1065 q 576 1071 588 1065 q 553 1089 564 1077 q 532 1114 543 1101 z "},"Ê":{"ha":926,"x_min":109,"x_max":875,"o":"m 764 839 l 310 839 l 310 595 l 728 595 q 797 574 774 595 q 819 519 819 553 q 797 464 819 486 q 728 443 774 443 l 310 443 l 310 160 l 779 160 q 851 138 827 160 q 875 79 875 116 q 851 22 875 44 q 779 0 827 0 l 232 0 q 137 29 166 0 q 109 123 109 58 l 109 871 q 121 942 109 914 q 162 982 134 969 q 232 994 189 994 l 764 994 q 835 973 812 994 q 859 917 859 951 q 835 860 859 882 q 764 839 812 839 m 532 1114 l 464 1194 l 396 1114 q 357 1073 368 1080 q 319 1065 347 1065 l 265 1065 q 237 1075 237 1065 q 258 1109 237 1082 l 334 1199 q 355 1226 343 1211 q 377 1247 368 1241 q 404 1258 386 1254 q 444 1261 421 1261 l 482 1261 q 544 1251 527 1261 q 593 1199 560 1240 l 671 1107 q 690 1077 690 1082 q 660 1065 690 1065 l 608 1065 q 576 1071 588 1065 q 553 1089 564 1077 q 532 1114 543 1101 z "},"Á":{"ha":999,"x_min":37,"x_max":960,"o":"m 745 113 l 697 237 l 293 237 l 245 110 q 198 9 218 35 q 134 -17 178 -17 q 66 11 96 -17 q 37 74 37 39 q 44 116 37 94 q 66 176 51 138 l 321 822 q 347 889 332 850 q 379 954 362 928 q 425 995 397 979 q 494 1011 453 1011 q 565 995 536 1011 q 610 954 593 979 q 639 900 627 929 q 669 823 651 871 l 929 182 q 960 75 960 109 q 931 12 960 41 q 861 -17 902 -17 q 821 -8 838 -17 q 792 15 804 0 q 767 59 781 29 q 745 113 754 90 m 346 389 l 643 389 l 493 799 l 346 389 m 518 1253 l 610 1253 q 644 1243 644 1253 q 606 1199 644 1238 q 530 1125 568 1160 q 476 1082 491 1090 q 393 1063 437 1063 q 364 1080 364 1063 q 382 1120 364 1091 l 412 1177 q 458 1240 439 1226 q 518 1253 478 1253 z "},"Ë":{"ha":926,"x_min":109,"x_max":875,"o":"m 764 839 l 310 839 l 310 595 l 728 595 q 797 574 774 595 q 819 519 819 553 q 797 464 819 486 q 728 443 774 443 l 310 443 l 310 160 l 779 160 q 851 138 827 160 q 875 79 875 116 q 851 22 875 44 q 779 0 827 0 l 232 0 q 137 29 166 0 q 109 123 109 58 l 109 871 q 121 942 109 914 q 162 982 134 969 q 232 994 189 994 l 764 994 q 835 973 812 994 q 859 917 859 951 q 835 860 859 882 q 764 839 812 839 m 332 1078 q 279 1099 302 1078 q 256 1154 256 1119 q 278 1210 256 1188 q 332 1231 300 1231 q 385 1212 362 1231 q 408 1154 408 1192 q 385 1099 408 1119 q 332 1078 362 1078 m 596 1231 q 633 1221 615 1231 q 662 1192 652 1211 q 672 1154 672 1174 q 650 1099 672 1119 q 596 1078 627 1078 q 543 1099 566 1078 q 519 1154 519 1119 q 543 1208 519 1185 q 596 1231 566 1231 z "},"È":{"ha":926,"x_min":109,"x_max":875,"o":"m 764 839 l 310 839 l 310 595 l 728 595 q 797 574 774 595 q 819 519 819 553 q 797 464 819 486 q 728 443 774 443 l 310 443 l 310 160 l 779 160 q 851 138 827 160 q 875 79 875 116 q 851 22 875 44 q 779 0 827 0 l 232 0 q 137 29 166 0 q 109 123 109 58 l 109 871 q 121 942 109 914 q 162 982 134 969 q 232 994 189 994 l 764 994 q 835 973 812 994 q 859 917 859 951 q 835 860 859 882 q 764 839 812 839 m 519 1177 l 550 1120 q 568 1080 568 1090 q 539 1063 568 1063 q 456 1082 494 1063 q 362 1163 437 1092 q 288 1243 288 1234 q 322 1253 288 1253 l 414 1253 q 474 1239 454 1253 q 519 1177 494 1225 z "},"Í":{"ha":435,"x_min":95,"x_max":375,"o":"m 117 106 l 117 889 q 144 981 117 950 q 216 1011 172 1011 q 290 981 262 1011 q 318 889 318 951 l 318 106 q 290 14 318 44 q 216 -17 262 -17 q 145 14 173 -17 q 117 106 117 45 m 249 1253 l 340 1253 q 375 1243 375 1253 q 337 1199 375 1238 q 260 1125 299 1160 q 207 1082 222 1090 q 124 1063 168 1063 q 95 1080 95 1063 q 113 1120 95 1091 l 143 1177 q 189 1240 170 1226 q 249 1253 209 1253 z "},"Î":{"ha":435,"x_min":-32,"x_max":421,"o":"m 117 106 l 117 889 q 144 981 117 950 q 216 1011 172 1011 q 290 981 262 1011 q 318 889 318 951 l 318 106 q 290 14 318 44 q 216 -17 262 -17 q 145 14 173 -17 q 117 106 117 45 m 262 1114 l 195 1194 l 127 1114 q 88 1073 98 1080 q 50 1065 78 1065 l -4 1065 q -32 1075 -32 1065 q -11 1109 -32 1082 l 64 1199 q 86 1226 74 1211 q 107 1247 98 1241 q 134 1258 117 1254 q 175 1261 152 1261 l 213 1261 q 274 1251 258 1261 q 323 1199 291 1240 l 401 1107 q 421 1077 421 1082 q 391 1065 421 1065 l 339 1065 q 307 1071 319 1065 q 284 1089 295 1077 q 262 1114 273 1101 z "},"Ï":{"ha":435,"x_min":-14,"x_max":403,"o":"m 117 106 l 117 889 q 144 981 117 950 q 216 1011 172 1011 q 290 981 262 1011 q 318 889 318 951 l 318 106 q 290 14 318 44 q 216 -17 262 -17 q 145 14 173 -17 q 117 106 117 45 m 62 1078 q 10 1099 33 1078 q -14 1154 -14 1119 q 9 1210 -14 1188 q 62 1231 31 1231 q 116 1212 93 1231 q 139 1154 139 1192 q 116 1099 139 1119 q 62 1078 93 1078 m 327 1231 q 364 1221 346 1231 q 393 1192 382 1211 q 403 1154 403 1174 q 380 1099 403 1119 q 327 1078 358 1078 q 274 1099 297 1078 q 250 1154 250 1119 q 273 1208 250 1185 q 327 1231 296 1231 z "},"Ì":{"ha":435,"x_min":18,"x_max":318,"o":"m 117 106 l 117 889 q 144 981 117 950 q 216 1011 172 1011 q 290 981 262 1011 q 318 889 318 951 l 318 106 q 290 14 318 44 q 216 -17 262 -17 q 145 14 173 -17 q 117 106 117 45 m 250 1177 l 281 1120 q 299 1080 299 1090 q 270 1063 299 1063 q 186 1082 225 1063 q 93 1163 168 1092 q 18 1243 18 1234 q 53 1253 18 1253 l 144 1253 q 205 1239 184 1253 q 250 1177 225 1225 z "},"Ó":{"ha":1100,"x_min":62,"x_max":1036,"o":"m 546 1011 q 811 948 701 1011 q 979 770 922 886 q 1036 498 1036 654 q 1005 289 1036 383 q 911 125 974 195 q 758 20 849 56 q 550 -17 667 -17 q 341 21 433 -17 q 187 127 249 58 q 94 292 125 195 q 62 500 62 388 q 95 710 62 614 q 191 873 128 806 q 342 976 253 940 q 546 1011 432 1011 m 832 500 q 797 689 832 609 q 696 810 762 769 q 546 851 631 851 q 434 828 486 851 q 346 762 383 806 q 288 651 309 719 q 267 500 267 584 q 288 347 267 415 q 348 233 309 278 q 438 165 387 188 q 549 143 488 143 q 691 182 626 143 q 794 301 755 220 q 832 500 832 382 m 625 1253 l 717 1253 q 751 1243 751 1253 q 713 1199 751 1238 q 637 1125 675 1160 q 583 1082 598 1090 q 500 1063 545 1063 q 471 1080 471 1063 q 489 1120 471 1091 l 519 1177 q 566 1240 546 1226 q 625 1253 585 1253 z "},"Ô":{"ha":1100,"x_min":62,"x_max":1036,"o":"m 546 1011 q 811 948 701 1011 q 979 770 922 886 q 1036 498 1036 654 q 1005 289 1036 383 q 911 125 974 195 q 758 20 849 56 q 550 -17 667 -17 q 341 21 433 -17 q 187 127 249 58 q 94 292 125 195 q 62 500 62 388 q 95 710 62 614 q 191 873 128 806 q 342 976 253 940 q 546 1011 432 1011 m 832 500 q 797 689 832 609 q 696 810 762 769 q 546 851 631 851 q 434 828 486 851 q 346 762 383 806 q 288 651 309 719 q 267 500 267 584 q 288 347 267 415 q 348 233 309 278 q 438 165 387 188 q 549 143 488 143 q 691 182 626 143 q 794 301 755 220 q 832 500 832 382 m 639 1114 l 571 1194 l 503 1114 q 465 1073 475 1080 q 427 1065 454 1065 l 372 1065 q 345 1075 345 1065 q 366 1109 345 1082 l 441 1199 q 463 1226 450 1211 q 484 1247 475 1241 q 511 1258 493 1254 q 551 1261 528 1261 l 589 1261 q 651 1251 634 1261 q 700 1199 667 1240 l 778 1107 q 798 1077 798 1082 q 767 1065 798 1065 l 715 1065 q 683 1071 695 1065 q 661 1089 671 1077 q 639 1114 650 1101 z "},"Ò":{"ha":1100,"x_min":62,"x_max":1036,"o":"m 546 1011 q 811 948 701 1011 q 979 770 922 886 q 1036 498 1036 654 q 1005 289 1036 383 q 911 125 974 195 q 758 20 849 56 q 550 -17 667 -17 q 341 21 433 -17 q 187 127 249 58 q 94 292 125 195 q 62 500 62 388 q 95 710 62 614 q 191 873 128 806 q 342 976 253 940 q 546 1011 432 1011 m 832 500 q 797 689 832 609 q 696 810 762 769 q 546 851 631 851 q 434 828 486 851 q 346 762 383 806 q 288 651 309 719 q 267 500 267 584 q 288 347 267 415 q 348 233 309 278 q 438 165 387 188 q 549 143 488 143 q 691 182 626 143 q 794 301 755 220 q 832 500 832 382 m 627 1177 l 657 1120 q 675 1080 675 1090 q 646 1063 675 1063 q 563 1082 602 1063 q 469 1163 544 1092 q 395 1243 395 1234 q 429 1253 395 1253 l 521 1253 q 581 1239 561 1253 q 627 1177 602 1225 z "},"Ú":{"ha":1055,"x_min":110,"x_max":946,"o":"m 110 411 l 110 889 q 137 981 110 950 q 210 1011 165 1011 q 284 981 256 1011 q 311 889 311 950 l 311 400 q 330 261 311 317 q 396 174 349 205 q 529 143 444 143 q 696 206 647 143 q 745 396 745 269 l 745 889 q 772 981 745 951 q 844 1011 799 1011 q 918 981 890 1011 q 946 889 946 951 l 946 411 q 923 216 946 294 q 838 79 901 138 q 711 6 783 29 q 543 -17 640 -17 q 346 8 429 -17 q 211 84 263 33 q 134 217 159 136 q 110 411 110 298 m 555 1253 l 647 1253 q 682 1243 682 1253 q 644 1199 682 1238 q 567 1125 606 1160 q 513 1082 528 1090 q 431 1063 475 1063 q 401 1080 401 1063 q 419 1120 401 1091 l 450 1177 q 496 1240 476 1226 q 555 1253 515 1253 z "},"Û":{"ha":1055,"x_min":110,"x_max":946,"o":"m 110 411 l 110 889 q 137 981 110 950 q 210 1011 165 1011 q 284 981 256 1011 q 311 889 311 950 l 311 400 q 330 261 311 317 q 396 174 349 205 q 529 143 444 143 q 696 206 647 143 q 745 396 745 269 l 745 889 q 772 981 745 951 q 844 1011 799 1011 q 918 981 890 1011 q 946 889 946 951 l 946 411 q 923 216 946 294 q 838 79 901 138 q 711 6 783 29 q 543 -17 640 -17 q 346 8 429 -17 q 211 84 263 33 q 134 217 159 136 q 110 411 110 298 m 569 1114 l 501 1194 l 433 1114 q 395 1073 405 1080 q 357 1065 385 1065 l 302 1065 q 275 1075 275 1065 q 296 1109 275 1082 l 371 1199 q 393 1226 380 1211 q 414 1247 405 1241 q 441 1258 423 1254 q 481 1261 458 1261 l 519 1261 q 581 1251 564 1261 q 630 1199 597 1240 l 708 1107 q 728 1077 728 1082 q 697 1065 728 1065 l 646 1065 q 613 1071 625 1065 q 591 1089 602 1077 q 569 1114 580 1101 z "},"Ù":{"ha":1055,"x_min":110,"x_max":946,"o":"m 110 411 l 110 889 q 137 981 110 950 q 210 1011 165 1011 q 284 981 256 1011 q 311 889 311 950 l 311 400 q 330 261 311 317 q 396 174 349 205 q 529 143 444 143 q 696 206 647 143 q 745 396 745 269 l 745 889 q 772 981 745 951 q 844 1011 799 1011 q 918 981 890 1011 q 946 889 946 951 l 946 411 q 923 216 946 294 q 838 79 901 138 q 711 6 783 29 q 543 -17 640 -17 q 346 8 429 -17 q 211 84 263 33 q 134 217 159 136 q 110 411 110 298 m 557 1177 l 587 1120 q 606 1080 606 1090 q 576 1063 606 1063 q 493 1082 532 1063 q 399 1163 474 1092 q 325 1243 325 1234 q 359 1253 325 1253 l 451 1253 q 511 1239 491 1253 q 557 1177 532 1225 z "},"ı":{"ha":376,"x_min":96,"x_max":281,"o":"m 281 631 l 281 96 q 254 12 281 40 q 187 -17 228 -17 q 121 12 146 -17 q 96 96 96 41 l 96 625 q 121 708 96 680 q 187 736 146 736 q 254 708 228 736 q 281 631 281 680 z "},"ˆ":{"ha":463,"x_min":5,"x_max":458,"o":"m 300 863 l 232 942 l 164 863 q 125 821 136 829 q 87 814 115 814 l 33 814 q 5 823 5 814 q 26 857 5 831 l 102 947 q 123 974 111 959 q 145 996 136 989 q 172 1006 154 1002 q 212 1010 189 1010 l 250 1010 q 312 999 295 1010 q 361 947 328 988 l 439 856 q 458 825 458 830 q 428 814 458 814 l 376 814 q 344 820 356 814 q 321 838 332 825 q 300 863 311 850 z "},"˜":{"ha":463,"x_min":1,"x_max":461,"o":"m 123 889 q 77 843 89 889 q 40 803 64 803 q 13 817 25 803 q 1 856 1 831 q 16 921 1 890 q 58 971 31 953 q 115 990 85 990 q 172 981 146 990 q 242 952 198 972 q 302 927 286 932 q 338 921 318 921 q 369 931 357 921 q 386 966 380 941 q 422 1006 397 1006 q 450 991 438 1006 q 461 953 461 977 q 432 867 461 915 q 343 819 404 819 q 296 827 320 819 q 229 854 271 835 q 165 881 186 873 q 123 889 144 889 z "},"ˉ":{"ha":463,"x_min":-16,"x_max":476,"o":"m 476 857 l -16 857 l -16 951 l 476 951 l 476 857 z "},"˘":{"ha":463,"x_min":20,"x_max":443,"o":"m 233 909 q 318 935 283 909 q 361 1006 352 961 q 401 1050 370 1050 q 431 1037 420 1050 q 443 1004 443 1023 q 417 918 443 961 q 343 846 391 874 q 235 818 296 818 q 81 877 143 818 q 20 1004 20 936 q 32 1036 20 1021 q 61 1050 44 1050 q 103 1003 90 1050 q 149 935 114 960 q 233 909 183 909 z "},"˙":{"ha":463,"x_min":155,"x_max":309,"o":"m 232 979 q 269 969 252 979 q 298 941 287 959 q 309 903 309 923 q 270 836 309 854 q 194 836 232 817 q 155 903 155 854 q 178 957 155 934 q 232 979 201 979 z "},"˚":{"ha":463,"x_min":90,"x_max":371,"o":"m 231 1063 q 330 1021 288 1063 q 371 922 371 980 q 330 823 371 865 q 231 782 288 782 q 160 801 192 782 q 109 852 128 820 q 90 922 90 884 q 132 1021 90 980 q 231 1063 173 1063 m 231 991 q 181 972 201 991 q 161 922 161 952 q 181 874 161 893 q 231 854 201 854 q 266 863 250 854 q 291 888 281 872 q 300 922 300 903 q 294 950 300 937 q 280 972 289 963 q 258 986 271 981 q 231 991 245 991 z "},"¸":{"ha":463,"x_min":72,"x_max":422,"o":"m 146 -65 q 243 -16 152 -16 q 336 -36 295 -16 q 400 -87 378 -56 q 422 -150 422 -118 q 398 -216 422 -186 q 326 -262 374 -245 q 207 -278 277 -278 q 72 -233 72 -278 q 82 -210 72 -220 q 109 -200 92 -200 q 143 -203 111 -200 q 201 -205 176 -205 q 275 -191 250 -205 q 301 -150 301 -176 q 282 -113 301 -127 q 225 -100 264 -100 q 192 -104 210 -100 q 172 -109 174 -109 q 153 -98 161 -109 q 144 -75 144 -88 q 145 -71 145 -73 q 146 -65 146 -68 z "},"˝":{"ha":463,"x_min":58,"x_max":581,"o":"m 212 1002 l 304 1002 q 339 991 339 1002 q 297 943 339 985 q 184 839 255 901 q 142 820 173 829 q 87 811 111 811 q 58 828 58 811 q 77 868 58 842 l 107 925 q 154 988 135 975 q 212 1002 174 1002 m 454 1002 l 546 1002 q 581 991 581 1002 q 536 940 581 985 q 427 839 491 895 q 384 820 416 829 q 329 811 352 811 q 300 828 300 811 q 302 840 300 833 q 309 852 305 846 q 318 868 312 858 l 349 925 q 381 975 367 958 q 412 996 395 991 q 454 1002 429 1002 z "},"˛":{"ha":463,"x_min":64,"x_max":399,"o":"m 64 -129 q 89 -54 64 -93 q 148 11 114 -15 q 204 37 181 37 q 240 20 224 37 q 256 -16 256 3 q 249 -38 256 -29 q 227 -65 242 -47 q 197 -114 197 -94 q 245 -146 197 -146 q 299 -134 260 -146 q 351 -122 337 -122 q 386 -137 372 -122 q 399 -170 399 -151 q 372 -213 399 -195 q 301 -242 345 -232 q 221 -252 258 -252 q 139 -237 174 -252 q 83 -194 103 -222 q 64 -129 64 -166 z "},"ˇ":{"ha":463,"x_min":5,"x_max":458,"o":"m 164 961 l 232 882 l 298 961 q 337 1002 327 995 q 376 1010 348 1010 l 431 1010 q 458 1000 458 1010 q 437 966 458 993 l 363 876 q 337 846 346 856 q 317 828 329 836 q 290 817 306 820 q 252 814 274 814 l 214 814 q 166 820 183 814 q 141 833 149 825 q 103 876 133 842 l 25 968 q 5 1000 5 994 q 11 1009 5 1008 q 35 1010 16 1010 l 87 1010 q 127 1001 116 1010 q 164 961 138 992 z "},"Š":{"ha":926,"x_min":74,"x_max":864,"o":"m 864 298 q 818 136 864 208 q 682 24 771 64 q 469 -17 592 -17 q 227 39 322 -17 q 116 145 159 79 q 74 275 74 212 q 99 338 74 312 q 164 364 125 364 q 218 344 196 364 q 256 283 240 323 q 297 204 275 236 q 359 152 319 172 q 464 131 399 131 q 609 173 553 131 q 665 277 665 214 q 635 357 665 326 q 557 404 605 388 q 429 439 509 420 q 250 497 322 464 q 135 589 178 531 q 93 733 93 647 q 138 879 93 815 q 267 977 182 943 q 467 1011 352 1011 q 625 988 558 1011 q 736 928 692 966 q 800 849 780 890 q 821 768 821 808 q 795 704 821 732 q 732 675 770 675 q 679 692 697 675 q 640 749 661 709 q 575 837 613 805 q 453 868 537 868 q 327 834 375 868 q 279 751 279 800 q 296 700 279 722 q 340 663 312 678 q 398 638 369 647 q 494 612 427 629 q 647 569 578 593 q 763 511 715 545 q 837 426 810 477 q 864 298 864 374 m 396 1213 l 464 1133 l 530 1213 q 569 1254 559 1246 q 608 1261 580 1261 l 663 1261 q 690 1252 690 1261 q 669 1218 690 1244 l 595 1128 q 569 1097 578 1107 q 549 1079 561 1087 q 522 1068 538 1072 q 484 1065 506 1065 l 446 1065 q 398 1071 415 1065 q 373 1085 380 1077 q 335 1128 365 1093 l 257 1219 q 237 1252 237 1245 q 242 1261 237 1260 q 267 1261 248 1261 l 319 1261 q 359 1253 348 1261 q 396 1213 370 1244 z "},"š":{"ha":753,"x_min":57,"x_max":692,"o":"m 692 225 q 654 94 692 149 q 544 11 617 39 q 367 -17 471 -17 q 196 14 267 -17 q 91 90 125 44 q 57 182 57 136 q 79 234 57 212 q 134 256 100 256 q 178 241 163 256 q 208 201 194 227 q 276 127 237 152 q 385 103 316 103 q 476 128 440 103 q 511 184 511 153 q 474 256 511 233 q 353 298 437 278 q 197 348 257 322 q 101 417 137 374 q 65 522 65 460 q 98 627 65 578 q 196 706 132 677 q 353 736 261 736 q 482 721 425 736 q 577 681 539 706 q 636 625 616 656 q 656 566 656 595 q 634 513 656 534 q 574 493 613 493 q 525 509 545 493 q 479 558 505 526 q 430 602 458 585 q 353 618 401 618 q 269 596 302 618 q 236 543 236 575 q 260 495 236 514 q 326 465 285 477 q 440 435 368 452 q 581 385 526 414 q 664 316 635 355 q 692 225 692 276 m 279 961 l 347 882 l 414 961 q 453 1002 442 995 q 492 1010 463 1010 l 546 1010 q 574 1000 574 1010 q 553 966 574 993 l 478 876 q 453 846 461 856 q 433 828 444 836 q 405 817 421 820 q 367 814 389 814 l 329 814 q 281 820 298 814 q 256 833 264 825 q 218 876 248 842 l 140 968 q 121 1000 121 994 q 126 1009 121 1008 q 150 1010 131 1010 l 203 1010 q 242 1001 231 1010 q 279 961 254 992 z "},"¦":{"ha":390,"x_min":119,"x_max":271,"o":"m 271 151 l 271 -165 q 259 -258 271 -224 q 196 -292 248 -292 q 141 -268 163 -292 q 119 -199 119 -244 l 119 151 q 141 220 119 197 q 196 244 163 244 q 250 220 229 244 q 271 151 271 196 m 271 918 l 271 568 q 250 498 271 521 q 196 475 229 475 q 141 498 163 475 q 119 568 119 522 l 119 918 q 141 987 119 964 q 196 1011 163 1011 q 250 987 229 1011 q 271 918 271 963 z "},"Ð":{"ha":1028,"x_min":0,"x_max":960,"o":"m 110 142 l 110 433 l 81 433 q 0 497 0 433 q 81 561 0 561 l 110 561 l 110 871 q 139 965 110 936 q 233 994 168 994 l 496 994 q 671 975 598 994 q 804 904 743 956 q 960 500 960 771 q 924 265 960 363 q 811 97 889 167 q 677 22 752 44 q 498 0 603 0 l 237 0 q 155 17 182 0 q 118 63 127 33 q 110 142 110 94 m 465 433 l 311 433 l 311 160 l 463 160 q 603 177 552 160 q 694 252 653 194 q 755 501 755 337 q 729 683 755 614 q 658 784 702 751 q 562 826 614 817 q 443 835 511 835 l 311 835 l 311 561 l 424 561 q 505 551 479 561 q 532 497 532 541 q 513 450 532 467 q 465 433 495 433 z "},"ð":{"ha":839,"x_min":49,"x_max":789,"o":"m 547 895 l 541 890 q 679 724 624 810 q 761 547 734 637 q 789 371 789 458 q 742 163 789 252 q 612 28 696 75 q 418 -18 528 -18 q 223 30 307 -18 q 94 163 140 78 q 49 361 49 249 q 98 550 49 468 q 227 675 146 631 q 399 720 308 720 q 490 701 448 720 q 445 760 469 734 q 397 811 422 787 l 336 778 q 265 747 285 747 q 233 764 245 747 q 220 796 220 780 q 235 830 220 818 q 289 864 250 842 l 319 880 q 283 947 283 914 q 302 991 283 972 q 351 1011 320 1011 q 407 997 382 1011 q 464 961 432 983 l 500 981 q 545 1004 532 999 q 571 1010 557 1010 q 604 995 591 1010 q 616 962 616 979 q 602 929 616 941 q 547 895 587 918 m 235 353 q 259 227 235 279 q 325 147 283 174 q 418 119 366 119 q 510 146 468 119 q 578 226 553 174 q 603 351 603 278 q 553 522 603 461 q 419 582 503 582 q 286 520 338 582 q 235 353 235 458 z "},"Ý":{"ha":868,"x_min":29,"x_max":838,"o":"m 330 106 l 330 421 l 87 798 q 42 877 56 848 q 29 926 29 905 q 56 986 29 961 q 122 1011 83 1011 q 185 988 163 1011 q 249 895 206 964 l 435 593 l 623 895 q 651 941 640 922 q 676 977 663 960 q 707 1002 690 994 q 749 1011 724 1011 q 812 986 787 1011 q 838 929 838 962 q 825 876 838 903 q 781 803 812 850 l 532 421 l 532 106 q 503 14 532 44 q 431 -17 475 -17 q 358 13 386 -17 q 330 106 330 43 m 518 1253 l 610 1253 q 644 1243 644 1253 q 606 1199 644 1238 q 530 1125 568 1160 q 476 1082 491 1090 q 393 1063 437 1063 q 364 1080 364 1063 q 382 1120 364 1091 l 412 1177 q 458 1240 439 1226 q 518 1253 478 1253 z "},"ý":{"ha":753,"x_min":14,"x_max":714,"o":"m 267 -40 l 283 1 l 56 575 q 35 647 35 625 q 47 691 35 671 q 80 724 59 711 q 125 736 102 736 q 185 710 165 736 q 221 637 205 685 l 378 182 l 526 606 q 558 686 544 657 q 588 726 572 715 q 633 736 604 736 q 674 725 654 736 q 704 694 693 713 q 714 654 714 675 q 705 618 711 642 q 690 570 699 594 l 449 -62 q 388 -193 418 -146 q 309 -266 358 -241 q 176 -292 260 -292 q 54 -274 95 -292 q 14 -210 14 -256 q 33 -160 14 -178 q 90 -143 52 -143 q 119 -147 105 -143 q 150 -151 137 -151 q 200 -142 182 -151 q 233 -109 218 -132 q 267 -40 248 -85 m 401 1002 l 493 1002 q 528 991 528 1002 q 490 947 528 986 q 413 873 452 909 q 359 831 374 838 q 277 811 321 811 q 248 828 248 811 q 265 868 248 840 l 296 925 q 342 988 322 975 q 401 1002 361 1002 z "},"Þ":{"ha":926,"x_min":109,"x_max":867,"o":"m 494 195 l 310 195 l 310 104 q 281 14 310 44 q 208 -17 253 -17 q 136 14 163 -17 q 109 104 109 45 l 109 890 q 135 981 109 950 q 208 1011 162 1011 q 260 998 236 1011 q 296 962 283 985 q 308 921 307 945 q 310 844 310 898 l 310 800 l 494 800 q 668 784 602 800 q 786 717 735 768 q 847 623 827 675 q 867 503 867 570 q 494 195 867 195 m 446 648 l 310 648 l 310 346 l 446 346 q 564 360 515 346 q 637 408 612 374 q 663 497 663 441 q 624 604 663 560 q 446 648 581 648 z "},"þ":{"ha":868,"x_min":92,"x_max":815,"o":"m 267 905 l 267 610 q 375 704 319 674 q 503 734 431 734 q 660 690 588 734 q 773 562 732 646 q 815 361 815 477 q 791 204 815 275 q 725 84 767 132 q 626 9 683 35 q 503 -17 568 -17 q 369 15 423 -17 q 267 109 315 47 l 267 -170 q 178 -292 267 -292 q 109 -260 125 -292 q 92 -168 92 -229 l 92 905 q 115 985 92 959 q 178 1011 138 1011 q 242 985 217 1011 q 267 905 267 958 m 629 363 q 607 489 629 436 q 545 569 585 541 q 457 597 505 597 q 328 537 380 597 q 275 359 275 477 q 328 188 275 249 q 457 126 380 126 q 543 153 503 126 q 606 233 582 180 q 629 363 629 287 z "},"×":{"ha":810,"x_min":74,"x_max":734,"o":"m 199 161 l 75 285 l 279 489 l 74 696 l 200 821 l 406 615 l 611 821 l 733 697 l 529 492 l 734 286 l 610 160 l 403 367 l 199 161 z "},"¹":{"ha":492,"x_min":46,"x_max":351,"o":"m 225 546 l 225 832 q 97 774 130 774 q 61 787 77 774 q 46 819 46 800 q 109 873 46 854 q 181 909 153 888 q 231 956 209 929 q 264 991 253 982 q 296 1000 275 1000 q 336 984 321 1000 q 351 939 351 967 l 351 559 q 288 482 351 482 q 243 499 260 482 q 225 546 225 516 z "},"²":{"ha":492,"x_min":39,"x_max":465,"o":"m 406 490 l 111 490 q 58 507 77 490 q 39 547 39 524 q 56 594 39 572 q 100 638 73 616 q 182 703 127 661 q 237 741 186 706 q 308 799 288 776 q 329 850 329 822 q 306 897 329 880 q 248 914 283 914 q 191 899 210 914 q 158 855 172 884 q 132 813 143 825 q 94 802 121 802 q 56 815 71 802 q 40 852 40 829 q 63 920 40 886 q 134 977 86 954 q 250 999 181 999 q 405 956 354 999 q 456 851 456 913 q 416 753 456 795 q 301 662 376 711 q 205 589 227 613 l 393 589 q 447 575 428 589 q 465 539 465 562 q 450 505 465 519 q 406 490 435 490 z "},"³":{"ha":492,"x_min":35,"x_max":461,"o":"m 197 713 q 161 724 176 713 q 146 755 146 736 q 162 789 146 777 q 205 802 178 802 l 231 802 q 284 817 260 802 q 309 861 309 833 q 290 901 309 886 q 239 916 271 916 q 194 908 210 916 q 171 889 178 900 q 149 848 164 879 q 133 835 146 842 q 106 828 119 828 q 68 843 83 828 q 53 876 53 857 q 77 934 53 905 q 144 981 100 962 q 248 1000 189 1000 q 346 983 304 1000 q 412 935 389 965 q 435 868 435 905 q 419 812 435 836 q 375 765 404 789 q 439 713 417 745 q 461 644 461 682 q 400 527 461 576 q 241 478 339 478 q 131 502 178 478 q 59 561 83 526 q 35 624 35 595 q 52 658 35 643 q 94 673 68 673 q 122 666 109 673 q 139 650 136 659 q 181 583 160 603 q 241 562 201 562 q 307 584 279 562 q 335 642 335 606 q 312 696 335 676 q 250 717 290 717 q 236 716 241 717 q 223 715 231 716 q 209 714 216 715 q 197 713 201 713 z "},"½":{"ha":1186,"x_min":46,"x_max":1160,"o":"m 225 546 l 225 832 q 97 774 130 774 q 61 787 77 774 q 46 819 46 800 q 109 873 46 854 q 181 909 153 888 q 231 956 209 929 q 264 991 253 982 q 296 1000 275 1000 q 336 984 321 1000 q 351 939 351 967 l 351 559 q 288 482 351 482 q 243 499 260 482 q 225 546 225 516 m 1100 0 l 806 0 q 752 16 772 0 q 733 56 733 33 q 750 102 733 80 q 794 146 767 124 q 876 211 821 169 q 931 249 881 214 q 1003 307 982 284 q 1023 358 1023 330 q 1000 405 1023 387 q 942 424 977 424 q 886 410 904 424 q 854 367 867 395 q 829 325 842 339 q 790 311 817 311 q 751 324 767 311 q 734 361 734 337 q 758 429 734 395 q 828 486 781 464 q 945 509 876 509 q 1061 488 1016 509 q 1128 434 1107 468 q 1150 361 1150 400 q 1124 281 1150 317 q 1047 209 1098 245 q 957 145 996 172 q 900 97 918 119 l 1088 97 q 1141 84 1122 97 q 1160 49 1160 71 q 1144 15 1160 29 q 1100 0 1129 0 m 908 911 l 343 0 q 293 -37 320 -37 q 261 -25 277 -37 q 245 5 245 -14 q 260 40 245 19 l 829 958 q 856 997 845 985 q 888 1008 866 1008 q 920 997 908 1008 q 932 965 932 985 q 908 911 932 949 z "},"¼":{"ha":1186,"x_min":46,"x_max":1178,"o":"m 225 546 l 225 832 q 97 774 130 774 q 61 787 77 774 q 46 819 46 800 q 109 873 46 854 q 181 909 153 888 q 231 956 209 929 q 264 991 253 982 q 296 1000 275 1000 q 336 984 321 1000 q 351 939 351 967 l 351 559 q 288 482 351 482 q 243 499 260 482 q 225 546 225 516 m 975 52 l 975 104 l 782 104 q 720 122 741 104 q 699 167 699 139 q 708 196 699 183 q 737 229 718 209 l 950 465 q 987 501 971 489 q 1022 513 1002 513 q 1074 495 1055 513 q 1092 444 1092 477 l 1092 197 l 1120 197 q 1162 183 1147 197 q 1178 150 1178 170 q 1108 104 1178 104 l 1092 104 l 1092 52 q 1075 7 1092 22 q 1034 -8 1059 -8 q 992 6 1008 -8 q 975 52 975 21 m 832 197 l 975 197 l 975 358 l 832 197 m 920 911 l 354 0 q 306 -37 332 -37 q 274 -25 290 -37 q 258 5 258 -14 q 272 40 258 20 l 842 958 q 853 977 848 968 q 865 994 859 987 q 879 1004 871 1000 q 900 1008 888 1008 q 933 996 922 1008 q 945 965 945 984 q 920 911 945 953 z "},"¾":{"ha":1186,"x_min":36,"x_max":1178,"o":"m 977 52 l 977 104 l 783 104 q 700 167 700 104 q 708 194 700 183 q 739 229 717 205 l 951 465 q 989 502 975 490 q 1023 513 1003 513 q 1074 495 1057 513 q 1092 444 1092 477 l 1092 197 l 1121 197 q 1163 183 1149 197 q 1178 150 1178 170 q 1108 104 1178 104 l 1092 104 l 1092 52 q 1076 6 1092 21 q 1035 -8 1061 -8 q 977 52 977 -8 m 833 197 l 977 197 l 977 358 l 833 197 m 946 911 l 380 0 q 330 -37 359 -37 q 299 -25 314 -37 q 283 5 283 -13 q 297 40 283 20 l 867 958 q 893 997 882 985 q 925 1008 903 1008 q 958 997 946 1008 q 970 965 970 985 q 967 949 970 958 q 958 930 964 940 q 946 911 951 920 m 199 713 q 162 724 177 713 q 147 755 147 736 q 163 789 147 777 q 207 802 179 802 l 232 802 q 286 817 261 802 q 310 861 310 833 q 291 901 310 886 q 240 916 273 916 q 195 908 212 916 q 172 889 179 900 q 150 848 165 879 q 134 835 147 842 q 107 828 121 828 q 70 843 85 828 q 54 876 54 857 q 78 934 54 905 q 146 981 102 962 q 249 1000 190 1000 q 348 983 305 1000 q 413 935 390 965 q 436 868 436 905 q 420 812 436 836 q 376 765 405 789 q 440 713 418 745 q 463 644 463 682 q 401 527 463 576 q 243 478 340 478 q 132 502 180 478 q 60 561 85 526 q 36 624 36 595 q 53 658 36 643 q 96 673 70 673 q 123 666 110 673 q 140 650 137 659 q 182 583 161 603 q 243 562 203 562 q 308 584 280 562 q 336 642 336 606 q 314 696 336 675 q 252 717 291 717 q 237 716 242 717 q 224 715 232 716 q 210 714 217 715 q 199 713 203 713 z "},"¯":{"ha":694,"x_min":-8,"x_max":703,"o":"m -8 1122 l -8 1191 l 703 1191 l 703 1122 l -8 1122 z "},"¤":{"ha":766,"x_min":65,"x_max":701,"o":"m 119 636 q 78 684 90 666 q 65 729 65 701 q 86 789 65 766 q 146 811 108 811 q 191 797 170 811 q 237 757 212 783 q 383 794 309 794 q 466 784 431 794 q 530 757 501 773 q 578 799 560 787 q 621 811 595 811 q 680 788 659 811 q 701 729 701 765 q 688 682 701 702 q 648 636 675 662 q 684 494 684 569 q 675 421 684 455 q 648 353 666 388 q 688 307 675 327 q 701 260 701 288 q 680 201 701 224 q 621 178 658 178 q 580 189 597 178 q 530 232 563 201 q 383 196 463 196 q 307 204 337 196 q 237 232 276 213 q 190 191 210 205 q 146 178 170 178 q 86 200 108 178 q 65 260 65 223 q 79 307 65 287 q 119 353 92 327 q 83 494 83 427 q 119 636 83 568 m 248 494 q 266 425 248 457 q 315 374 284 393 q 383 355 346 355 q 452 374 420 355 q 502 425 484 393 q 521 494 521 456 q 502 563 521 532 q 452 613 484 595 q 383 631 420 631 q 315 612 346 631 q 266 562 283 594 q 248 494 248 530 z "}}}
